<svg width="48" height="48" viewBox="0 0 48 48" fill="none" xmlns="http://www.w3.org/2000/svg">
<g clip-path="url(#clip0)">
<path d="M43.5 6.00049H4.50003C2.01856 6.00049 0 8.01905 0 10.5005V37.5005C0 39.982 2.01856 42.0005 4.50003 42.0005H43.5C45.9814 42.0005 48 39.982 48 37.5005V10.5005C48 8.01905 45.9814 6.00049 43.5 6.00049ZM43.5 9.00048C43.7038 9.00048 43.8976 9.04276 44.0749 9.1166L24 26.5156L3.925 9.1166C4.10225 9.04286 4.29613 9.00048 4.49993 9.00048H43.5ZM43.5 39.0005H4.50003C3.67241 39.0005 2.99999 38.3281 2.99999 37.5004V12.2861L23.0171 29.6343C23.2998 29.8788 23.6499 30.0005 24 30.0005C24.3501 30.0005 24.7002 29.879 24.9829 29.6343L45 12.2861V37.5005C44.9999 38.3281 44.3276 39.0005 43.5 39.0005Z" fill="#4B6CAC"/>
<path d="M2.3125 9.30078L23.9966 28.0016L45.7242 9.3155" stroke="#FA5060" stroke-width="2" stroke-linecap="round" stroke-linejoin="round"/>
</g>
<defs>
<clipPath id="clip0">
<rect width="48" height="48" fill="white"/>
</clipPath>
</defs>
</svg>
