<svg width="48" height="48" viewBox="0 0 48 48" fill="none" xmlns="http://www.w3.org/2000/svg">
<g clip-path="url(#clip0)">
<path d="M24.0031 48C22.9554 48 22.0171 47.4567 21.4934 46.5465C21.4879 46.5369 21.4826 46.5272 21.4772 46.5176L9.57454 24.7314C6.73335 19.531 6.81482 13.3584 9.79251 8.21977C12.7056 3.19252 17.8799 0.121172 23.6337 0.00379688C23.8795 -0.00126563 24.1266 -0.00126563 24.3722 0.00379688C30.1261 0.121172 35.3004 3.19252 38.2136 8.21977C41.1913 13.3584 41.2727 19.5309 38.4315 24.7314L26.5289 46.5176C26.5235 46.5272 26.5182 46.5369 26.5126 46.5465C25.989 47.4566 25.0509 48 24.0031 48ZM24.003 3.00005C23.9 3.00005 23.7973 3.00108 23.6947 3.00314C18.9979 3.09895 14.7711 5.61136 12.3881 9.72389C9.94054 13.9478 9.87285 19.0203 12.2071 23.2929L24.003 44.8835L35.7989 23.293C38.1331 19.0203 38.0655 13.9478 35.6178 9.72389C33.2348 5.61145 29.008 3.09895 24.3112 3.00314C24.2089 3.00108 24.1061 3.00005 24.003 3.00005Z" fill="#4B6CAC"/>
<path d="M24 21.75C20.278 21.75 17.25 18.722 17.25 15C17.25 11.278 20.278 8.25 24 8.25C27.722 8.25 30.75 11.278 30.75 15C30.75 18.722 27.7221 21.75 24 21.75ZM24 11.25C21.9323 11.25 20.25 12.9323 20.25 15C20.25 17.0678 21.9323 18.75 24 18.75C26.0677 18.75 27.75 17.0678 27.75 15C27.75 12.9323 26.0677 11.25 24 11.25Z" fill="#FA5060"/>
</g>
<defs>
<clipPath id="clip0">
<rect width="48" height="48" fill="white"/>
</clipPath>
</defs>
</svg>
