<svg width="48" height="48" viewBox="0 0 48 48" fill="none" xmlns="http://www.w3.org/2000/svg">
<g clip-path="url(#clip0)">
<path d="M34.4979 48C32.9485 48 31.4122 47.7261 29.9099 47.1803C23.2916 44.7761 17.1484 40.8603 12.1442 35.8562C7.14006 30.8521 3.22428 24.7089 0.820164 18.0906C0.0476017 15.9637 -0.180389 13.7681 0.142754 11.5647C0.44546 9.5008 1.24493 7.49716 2.45482 5.77036C3.67005 4.03596 5.29017 2.59339 7.13997 1.59865C9.11257 0.537915 11.2656 0 13.5395 0C14.2468 0 14.858 0.494136 15.0062 1.18561L17.3605 12.1726C17.4671 12.6701 17.3142 13.1877 16.9545 13.5475L12.9316 17.5704C16.7266 25.1156 22.8846 31.2736 30.4299 35.0687L34.4527 31.0457C34.8124 30.686 35.3302 30.5333 35.8277 30.6397L46.8147 32.9941C47.5062 33.1423 48.0003 33.7535 48.0003 34.4607C48.0003 36.7346 47.4623 38.8878 46.4015 40.8604C45.4068 42.7102 43.9642 44.3303 42.2298 45.5455C40.5031 46.7554 38.4995 47.5549 36.4355 47.8576C35.7887 47.9526 35.142 47.9999 34.4979 48ZM12.3411 3.0655C9.34169 3.39661 6.67949 4.96873 4.91162 7.49191C2.92364 10.3291 2.46006 13.8188 3.63977 17.0664C8.26183 29.7902 18.2103 39.7386 30.9341 44.3607C34.1815 45.5404 37.6713 45.0769 40.5085 43.0888C43.0317 41.321 44.6038 38.6588 44.935 35.6593L35.9971 33.7441L31.7958 37.9454C31.3487 38.3925 30.6694 38.5113 30.0974 38.2424C21.1737 34.0501 13.9503 26.8268 9.75802 17.9031C9.48925 17.3309 9.60793 16.6517 10.055 16.2047L14.2563 12.0034L12.3411 3.0655Z" fill="#4B6CAC"/>
<path d="M46.5 25.499C45.6717 25.499 45.0001 24.8274 45.0001 23.999C45.0001 12.4201 35.5799 2.99988 24.0009 2.99988C23.1726 2.99988 22.501 2.32828 22.501 1.49994C22.501 0.671597 23.1726 0 24.0009 0C30.4114 0 36.438 2.49627 40.9708 7.02909C45.5037 11.5619 47.9999 17.5886 47.9999 23.999C47.9999 24.8274 47.3284 25.499 46.5 25.499Z" fill="#FA5060"/>
<path d="M40.5002 25.4992C39.6719 25.4992 39.0003 24.8276 39.0003 23.9993C39.0003 15.7286 32.2716 8.99988 24.0009 8.99988C23.1726 8.99988 22.501 8.32828 22.501 7.49994C22.501 6.6716 23.1726 6 24.0009 6C33.9257 6 42.0002 14.0745 42.0002 23.9993C42.0002 24.8276 41.3287 25.4992 40.5002 25.4992Z" fill="#FA5060"/>
<path d="M34.5005 25.499C33.6721 25.499 33.0005 24.8274 33.0005 23.999C33.0005 19.0366 28.9634 14.9994 24.0009 14.9994C23.1726 14.9994 22.501 14.3278 22.501 13.4995C22.501 12.6711 23.1726 11.9995 24.0009 11.9995C30.6175 11.9995 36.0004 17.3824 36.0004 23.999C36.0004 24.8274 35.3289 25.499 34.5005 25.499Z" fill="#FA5060"/>
</g>
<defs>
<clipPath id="clip0">
<rect width="48" height="48" fill="white"/>
</clipPath>
</defs>
</svg>
