<svg width="76" height="76" viewBox="0 0 76 76" fill="none" xmlns="http://www.w3.org/2000/svg">
<path d="M49.7619 30.3715H49.6593C48.2901 30.3608 46.9631 30.8391 45.9227 31.7185C45.0406 29.4548 42.9072 27.8348 40.4161 27.8348C38.902 27.85 37.4551 28.4525 36.3871 29.5131C35.3974 27.5662 33.3877 26.3321 31.1831 26.3168H31.0742C29.8536 26.3168 28.66 26.6292 27.8394 27.2912V13.5616C27.8394 10.1513 25.147 7.37695 21.8764 7.37695C18.6097 7.37695 15.9333 10.1487 15.9307 13.5572L15.9032 40.8992L14.4839 39.1962C13.0826 37.4723 11.0197 36.4017 8.7882 36.2401C6.60287 36.0925 4.4528 36.8432 2.84763 38.3162L1.47515 39.4414C0.998849 39.831 0.862948 40.4969 1.14821 41.0386L14.514 66.4236C16.9737 71.0934 21.6546 74.0001 26.7304 74.0001H41.7213C49.4132 74.0001 55.6781 67.4106 55.6858 59.3183C55.689 55.7362 55.6929 53.0614 55.6954 50.8921C55.7031 45.0641 55.7057 42.9202 55.6909 36.5024C55.6826 33.1015 53.0229 30.3715 49.7619 30.3715ZM53.0697 50.8858C53.0672 53.0551 53.0633 55.7331 53.0601 59.3158C53.0537 65.9788 47.967 71.4051 41.7213 71.4051H26.7304C22.6374 71.4051 18.8494 69.0338 16.8436 65.2255L3.96625 40.7725L4.54704 40.2948C4.5637 40.2809 4.58101 40.2657 4.59704 40.2511C5.67528 39.2488 7.12596 38.7337 8.60293 38.8294C10.1126 38.9434 11.5062 39.6733 12.4505 40.8434L16.191 45.3435C16.5429 45.7667 17.1256 45.9258 17.6474 45.7414C18.1693 45.557 18.518 45.0679 18.518 44.5206L18.5404 13.5585C18.5417 11.5805 20.0565 9.97196 21.8777 9.97196C23.6989 9.97196 25.2137 11.5818 25.2137 13.5616V32.2278C25.2137 32.2937 25.2105 32.3596 25.2105 32.4255C25.2105 32.4553 25.2137 32.4851 25.2137 32.5142V40.4918C25.2137 41.2084 25.8016 41.7893 26.5266 41.7893C27.2516 41.7893 27.8394 41.2084 27.8394 40.4918V32.2722C27.8394 30.3646 29.2997 28.9119 31.0742 28.9119H31.1831C33.005 28.9119 34.5679 30.4476 34.5679 32.4274V39.7309C34.5679 40.4475 35.1557 41.0284 35.8807 41.0284C36.6057 41.0284 37.1936 40.4475 37.1936 39.7309V34.0005C37.1936 32.0213 38.6488 30.4108 40.4809 30.4108C42.3027 30.4108 43.7579 32.0207 43.7579 34.0005V39.4066C43.7579 40.1231 44.3457 40.7041 45.0707 40.7041C45.7958 40.7041 46.3836 40.1231 46.3836 39.4066V36.4789C46.3836 34.5004 47.8375 32.9666 49.6593 32.9666H49.7619C51.5786 32.9666 53.0601 34.5333 53.0652 36.5068C53.08 42.9202 53.0774 45.061 53.0697 50.8858Z" fill="#4B6CAC" stroke="#4B6CAC" stroke-width="0.997907"/>
<path d="M12.1361 14.1723C12.8611 14.1723 13.449 13.5914 13.449 12.8748C13.449 8.30189 17.1997 4.59501 21.8268 4.59501C26.4539 4.59501 30.2046 8.30189 30.2046 12.8748C30.2046 13.5914 30.7925 14.1723 31.5175 14.1723C32.2425 14.1723 32.8303 13.5914 32.8303 12.8748C32.8303 6.86881 27.9039 2 21.8268 2C15.7497 2 10.8232 6.86881 10.8232 12.8748C10.8232 13.5914 11.4111 14.1723 12.1361 14.1723Z" fill="#4B6CAC"/>
<path d="M38.7033 47.0859C37.6781 47.0859 36.7502 47.2921 35.9328 47.7189L35.9312 47.7197C35.1202 48.147 34.4861 48.7538 34.0404 49.5356L34.0396 49.5369C33.6027 50.3089 33.3888 51.1731 33.3888 52.1172V52.6172H36.7619V52.1172C36.7619 51.3904 36.9493 50.8812 37.2678 50.5284C37.576 50.187 38.0238 49.9902 38.6838 49.9902C39.2099 49.9902 39.5779 50.1547 39.8465 50.451L39.8493 50.4541C40.1323 50.761 40.2931 51.1785 40.2931 51.7559C40.2931 52.171 40.1758 52.6009 39.9192 53.0514L39.9182 53.0532C39.6583 53.5138 39.2018 54.1165 38.5282 54.8673L38.5265 54.8692L33.6623 60.1746V62.5H44.2228V59.6055H38.2728L40.9632 56.7261L40.9656 56.7235C41.8926 55.717 42.5795 54.7975 43.0052 53.9672C43.4367 53.1319 43.6662 52.3081 43.6662 51.502C43.6662 50.1588 43.2209 49.054 42.2931 48.2536C41.3829 47.456 40.166 47.0859 38.7033 47.0859Z" fill="#FA5060"/>
<path d="M24.3675 50.9336H20.5615L24.0932 56.6379L20.4414 62.5H24.2664L26.0793 59.3802L27.9006 62.5H31.7054L28.0538 56.6383L31.5965 50.9336H27.7724L26.0532 53.9045L24.3675 50.9336Z" fill="#FA5060"/>
</svg>
