<svg width="76" height="76" viewBox="0 0 76 76" fill="none" xmlns="http://www.w3.org/2000/svg">
<path d="M52.8371 7.70191H38.7493V6.63909C38.7484 5.67382 38.3678 4.7484 37.6913 4.06607C37.0147 3.38374 36.0974 3.00031 35.1409 3H19.7258C18.7697 3.00094 17.853 3.38465 17.177 4.06691C16.5009 4.74917 16.1207 5.67424 16.1197 6.63909V7.70191H2.02963C1.8944 7.70183 1.76047 7.72865 1.63552 7.78084C1.51056 7.83303 1.39703 7.90956 1.3014 8.00607C1.20577 8.10257 1.12993 8.21714 1.07822 8.34324C1.0265 8.46934 0.999923 8.6045 1 8.74097V72.5495C0.999923 72.686 1.0265 72.8211 1.07822 72.9472C1.12993 73.0733 1.20577 73.1879 1.3014 73.2844C1.39703 73.3809 1.51056 73.4574 1.63552 73.5096C1.76047 73.5618 1.8944 73.5886 2.02963 73.5886H52.8371C52.9723 73.5886 53.1062 73.5618 53.2312 73.5096C53.3561 73.4574 53.4697 73.3809 53.5653 73.2844C53.6609 73.1879 53.7368 73.0733 53.7885 72.9472C53.8402 72.8211 53.8668 72.686 53.8667 72.5495V8.74097C53.8668 8.6045 53.8402 8.46934 53.7885 8.34324C53.7368 8.21714 53.6609 8.10257 53.5653 8.00607C53.4697 7.90956 53.3561 7.83303 53.2312 7.78084C53.1062 7.72865 52.9723 7.70183 52.8371 7.70191ZM45.6955 15.6362V65.3758H9.17058V15.6362H45.6955ZM18.1766 6.63909C18.1771 6.22483 18.3405 5.82771 18.631 5.535C18.9215 5.2423 19.3153 5.07797 19.7258 5.07812H35.1409C35.551 5.0786 35.9441 5.24321 36.2341 5.53584C36.5241 5.82848 36.6872 6.22524 36.6877 6.63909V13.5581H18.1766V6.63909ZM51.8074 71.5104H3.05927V9.78003H16.1174V13.5581H8.14095C7.86787 13.5581 7.60598 13.6675 7.41289 13.8624C7.2198 14.0573 7.11132 14.3215 7.11132 14.5971V66.4149C7.11132 66.6905 7.2198 66.9547 7.41289 67.1496C7.60598 67.3445 7.86787 67.4539 8.14095 67.4539H46.7252C46.8604 67.454 46.9943 67.4272 47.1193 67.375C47.2442 67.3228 47.3578 67.2463 47.4534 67.1498C47.549 67.0533 47.6249 66.9387 47.6766 66.8126C47.7283 66.6865 47.7549 66.5513 47.7548 66.4149V14.5971C47.7549 14.4607 47.7283 14.3255 47.6766 14.1994C47.6249 14.0733 47.549 13.9587 47.4534 13.8622C47.3578 13.7657 47.2442 13.6892 47.1193 13.637C46.9943 13.5848 46.8604 13.558 46.7252 13.5581H38.7493V9.78003H51.8074V71.5104Z" fill="#4B6CAC" stroke="#4B6CAC"/>
<path d="M14.287 46.2141H23.5401C23.6754 46.2142 23.8093 46.1874 23.9342 46.1352C24.0592 46.083 24.1727 46.0065 24.2684 45.91C24.364 45.8135 24.4398 45.6989 24.4915 45.5728C24.5433 45.4467 24.5698 45.3115 24.5698 45.175V37.4082L26.6426 35.3164C26.8301 35.1204 26.9338 34.8579 26.9314 34.5855C26.929 34.3131 26.8207 34.0525 26.6297 33.8599C26.4388 33.6672 26.1805 33.558 25.9106 33.5557C25.6406 33.5534 25.3805 33.6582 25.1864 33.8475L24.0855 34.9584C23.9225 34.8538 23.7334 34.798 23.5401 34.7975H14.287C14.0139 34.7976 13.7521 34.9072 13.5591 35.102C13.366 35.2968 13.2575 35.561 13.2573 35.8366V45.175C13.2573 45.4506 13.3658 45.7149 13.5589 45.9098C13.752 46.1046 14.0139 46.2141 14.287 46.2141ZM15.3148 36.8756H22.1851L18.9203 40.1703L18.0995 39.3421C17.9054 39.1527 17.6453 39.048 17.3754 39.0503C17.1054 39.0526 16.8471 39.1618 16.6562 39.3544C16.4652 39.547 16.3569 39.8076 16.3545 40.0801C16.3521 40.3525 16.4558 40.615 16.6433 40.811L18.1925 42.3743C18.2881 42.4709 18.4016 42.5475 18.5265 42.5998C18.6514 42.652 18.7854 42.6789 18.9206 42.6789C19.0558 42.6789 19.1898 42.652 19.3147 42.5998C19.4396 42.5475 19.5531 42.4709 19.6487 42.3743L22.5105 39.4863V44.136H15.3148V36.8756Z" fill="#FA5060"/>
<path d="M14.287 61.5031H23.5401C23.6754 61.5031 23.8093 61.4763 23.9342 61.4241C24.0592 61.3719 24.1727 61.2954 24.2684 61.1989C24.364 61.1024 24.4398 60.9878 24.4915 60.8617C24.5433 60.7356 24.5698 60.6005 24.5698 60.464V52.6972L26.6426 50.6054C26.7409 50.5095 26.8193 50.3948 26.8732 50.2681C26.9272 50.1413 26.9556 50.0049 26.9567 49.867C26.9579 49.729 26.9318 49.5922 26.88 49.4645C26.8282 49.3368 26.7517 49.2208 26.655 49.1233C26.5583 49.0257 26.4434 48.9486 26.3168 48.8964C26.1903 48.8442 26.0547 48.8179 25.918 48.8191C25.7813 48.8204 25.6461 48.849 25.5205 48.9035C25.3949 48.958 25.2813 49.0372 25.1864 49.1365L24.0855 50.2474C23.9225 50.1427 23.7334 50.0869 23.5401 50.0865H14.287C14.0139 50.0866 13.7521 50.1961 13.5591 50.391C13.366 50.5858 13.2575 50.85 13.2573 51.1255V60.464C13.2573 60.7396 13.3658 61.0039 13.5589 61.1987C13.752 61.3936 14.0139 61.5031 14.287 61.5031ZM15.3148 52.1646H22.1851L18.9203 55.4593L18.0995 54.631C17.9054 54.4417 17.6453 54.3369 17.3754 54.3392C17.1054 54.3415 16.8471 54.4508 16.6562 54.6434C16.4652 54.836 16.3569 55.0966 16.3545 55.369C16.3521 55.6415 16.4558 55.9039 16.6434 56.0999L18.1925 57.6633C18.2881 57.7599 18.4016 57.8365 18.5265 57.8887C18.6514 57.941 18.7854 57.9679 18.9206 57.9679C19.0559 57.9679 19.1898 57.941 19.3147 57.8887C19.4396 57.8365 19.5531 57.7599 19.6487 57.6633L22.5105 54.7753V59.4249H15.3148V52.1646Z" fill="#FA5060"/>
<path d="M14.287 30.9251H23.5401C23.6754 30.9251 23.8093 30.8983 23.9342 30.8461C24.0592 30.7939 24.1727 30.7174 24.2684 30.6209C24.364 30.5244 24.4398 30.4098 24.4915 30.2837C24.5433 30.1576 24.5698 30.0225 24.5698 29.886V22.1191L26.6426 20.0274C26.8301 19.8314 26.9338 19.5689 26.9314 19.2964C26.929 19.024 26.8207 18.7634 26.6297 18.5708C26.4388 18.3782 26.1805 18.269 25.9106 18.2666C25.6406 18.2643 25.3805 18.3691 25.1864 18.5584L24.0855 19.6693C23.9225 19.5647 23.7334 19.5089 23.5401 19.5084H14.287C14.0139 19.5086 13.7521 19.6181 13.5591 19.8129C13.366 20.0078 13.2575 20.272 13.2573 20.5475V29.886C13.2573 30.1616 13.3658 30.4259 13.5589 30.6207C13.752 30.8156 14.0139 30.9251 14.287 30.9251ZM15.3148 21.5866H22.1851L18.9203 24.8813L18.0995 24.053C18.0046 23.9537 17.891 23.8745 17.7654 23.8201C17.6398 23.7656 17.5047 23.7369 17.368 23.7357C17.2312 23.7344 17.0956 23.7607 16.9691 23.8129C16.8426 23.8651 16.7276 23.9423 16.6309 24.0398C16.5342 24.1374 16.4577 24.2533 16.4059 24.381C16.3541 24.5087 16.328 24.6455 16.3292 24.7835C16.3304 24.9215 16.3587 25.0578 16.4127 25.1846C16.4666 25.3114 16.545 25.4261 16.6433 25.5219L18.1925 27.0853C18.2881 27.1818 18.4016 27.2584 18.5265 27.3107C18.6514 27.363 18.7854 27.3899 18.9206 27.3899C19.0558 27.3899 19.1898 27.363 19.3147 27.3107C19.4396 27.2584 19.5531 27.1818 19.6487 27.0853L22.5105 24.1973V28.8469H15.3148V21.5866Z" fill="#FA5060"/>
<path d="M28.4041 26.2561H40.5803C40.8534 26.2561 41.1153 26.1466 41.3083 25.9518C41.5014 25.7569 41.6099 25.4926 41.6099 25.217C41.6099 24.9415 41.5014 24.6772 41.3083 24.4823C41.1153 24.2875 40.8534 24.178 40.5803 24.178H28.4041C28.1311 24.178 27.8692 24.2875 27.6761 24.4823C27.483 24.6772 27.3745 24.9415 27.3745 25.217C27.3745 25.4926 27.483 25.7569 27.6761 25.9518C27.8692 26.1466 28.1311 26.2561 28.4041 26.2561Z" fill="#4B6CAC"/>
<path d="M28.4041 41.5452H40.5803C40.8534 41.5452 41.1153 41.4357 41.3083 41.2408C41.5014 41.046 41.6099 40.7817 41.6099 40.5061C41.6099 40.2305 41.5014 39.9662 41.3083 39.7714C41.1153 39.5765 40.8534 39.467 40.5803 39.467H28.4041C28.1311 39.467 27.8692 39.5765 27.6761 39.7714C27.483 39.9662 27.3745 40.2305 27.3745 40.5061C27.3745 40.7817 27.483 41.046 27.6761 41.2408C27.8692 41.4357 28.1311 41.5452 28.4041 41.5452Z" fill="#4B6CAC"/>
<path d="M28.4041 56.8342H40.5803C40.8534 56.8342 41.1153 56.7248 41.3083 56.5299C41.5014 56.335 41.6099 56.0707 41.6099 55.7952C41.6099 55.5196 41.5014 55.2553 41.3083 55.0604C41.1153 54.8656 40.8534 54.7561 40.5803 54.7561H28.4041C28.1311 54.7561 27.8692 54.8656 27.6761 55.0604C27.483 55.2553 27.3745 55.5196 27.3745 55.7952C27.3745 56.0707 27.483 56.335 27.6761 56.5299C27.8692 56.7248 28.1311 56.8342 28.4041 56.8342Z" fill="#4B6CAC"/>
</svg>
