<svg width="76" height="76" viewBox="0 0 76 76" fill="none" xmlns="http://www.w3.org/2000/svg">
<g clip-path="url(#clip0)">
<path d="M30.5188 19.1885C35.0248 19.1885 39.415 20.6166 43.0604 23.2681C46.7058 25.9196 49.419 29.6584 50.8113 33.9485C52.2037 38.2387 52.2035 42.86 50.8109 47.1501C49.4184 51.4402 46.7049 55.1788 43.0593 57.8301L30.5188 40.5487L30.5188 19.1885Z" fill="#FA5060"/>
<path fill-rule="evenodd" clip-rule="evenodd" d="M46.4535 65.8272C45.4623 66.4508 44.1726 66.0546 43.6205 65.0217C43.0684 63.9889 43.4642 62.7115 44.448 62.0763C49.3568 58.9066 53.0545 54.1392 54.892 48.5467C56.951 42.28 56.5158 35.4593 53.677 29.502C50.8381 23.5448 45.8139 18.9092 39.6485 16.5587C33.483 14.2082 26.6506 14.3235 20.5711 16.8807C14.4916 19.438 9.63267 24.2404 7.00409 30.29C4.37551 36.3395 4.17947 43.1709 6.45671 49.3644C8.73394 55.5579 13.3093 60.6372 19.2319 63.5465C24.5175 66.143 30.5133 66.833 36.2127 65.5404C37.3547 65.2814 38.5447 65.8914 38.8976 67.0078C39.2506 68.1246 38.6324 69.3237 37.4931 69.5961C30.7504 71.2085 23.6295 70.4293 17.3649 67.3519C10.4633 63.9617 5.13158 58.0428 2.47791 50.8255C-0.175749 43.6083 0.0527059 35.6476 3.11579 28.5981C6.17887 21.5485 11.841 15.9522 18.9254 12.9723C26.0099 9.99232 33.9717 9.85791 41.1563 12.597C48.3409 15.336 54.1956 20.7379 57.5038 27.6799C60.8119 34.6219 61.3189 42.5701 58.9196 49.8727C56.7416 56.5014 52.3209 62.1354 46.4535 65.8272Z" fill="#4B6CAC"/>
<path fill-rule="evenodd" clip-rule="evenodd" d="M18.9941 3.80687C19.7007 4.74951 19.5096 6.08689 18.5674 6.79398L4.907 17.0452C3.96476 17.7523 2.62813 17.5614 1.92157 16.6187C1.215 15.6761 1.40605 14.3387 2.3483 13.6316L16.0087 3.38038C16.9509 2.67329 18.2875 2.86423 18.9941 3.80687Z" fill="#4B6CAC"/>
<path fill-rule="evenodd" clip-rule="evenodd" d="M16.3292 63.0348C17.3296 63.6569 17.6371 64.9726 17.0161 65.9737L12.8642 72.6657C12.2431 73.6668 10.9286 73.974 9.9282 73.3519C8.92777 72.7299 8.62024 71.4141 9.24131 70.4131L13.3932 63.721C14.0143 62.72 15.3288 62.4127 16.3292 63.0348Z" fill="#4B6CAC"/>
<path fill-rule="evenodd" clip-rule="evenodd" d="M44.379 62.7372C43.3624 63.3325 43.0202 64.6397 43.6146 65.6567L47.7342 72.7057C48.3286 73.7227 49.6345 74.0646 50.6511 73.4692C51.6677 72.8738 52.0099 71.5667 51.4155 70.5497L47.2959 63.5007C46.7015 62.4837 45.3956 62.1418 44.379 62.7372Z" fill="#4B6CAC"/>
<path fill-rule="evenodd" clip-rule="evenodd" d="M42.0411 3.80687C41.3345 4.74951 41.5256 6.08689 42.4678 6.79398L56.1282 17.0452C57.0704 17.7523 58.407 17.5614 59.1136 16.6187C59.8202 15.6761 59.6291 14.3387 58.6869 13.6316L45.0265 3.38038C44.0843 2.67329 42.7476 2.86423 42.0411 3.80687Z" fill="#4B6CAC"/>
<path fill-rule="evenodd" clip-rule="evenodd" d="M43.7801 35.8192V32.0049H40.732V35.8192H36.9219V38.8707H40.732V42.685H43.7801V38.8707H47.5902V35.8192H43.7801Z" fill="white"/>
</g>
<defs>
<clipPath id="clip0">
<rect width="76" height="76" fill="white"/>
</clipPath>
</defs>
</svg>
