<svg width="66" height="76" viewBox="0 0 66 76" fill="none" xmlns="http://www.w3.org/2000/svg">
<path d="M62.3018 17.5051C62.0786 15.9977 61.0701 14.6998 59.6698 14.1176L33.7297 3.33354C32.6593 2.88882 31.4804 2.88882 30.41 3.33354L4.4699 14.1176C3.06962 14.6998 2.0611 15.9977 1.83787 17.5051C1.2932 21.1835 0.380132 30.9155 3.65476 41.8115C5.47594 47.871 8.32967 53.4476 12.1367 58.3861C16.7067 64.3145 22.7037 69.3839 29.9612 73.4532C30.6116 73.8176 31.3406 74 32.0699 74C32.7989 74 33.5282 73.8176 34.1785 73.4531C41.436 69.3838 47.433 64.3143 52.003 58.386C55.8099 53.4475 58.6636 47.8709 60.4848 41.8114C63.7596 30.9155 62.8464 21.1835 62.3018 17.5051ZM58.5035 41.2112C54.6125 54.1575 46.0891 64.3948 33.1694 71.6391C32.4916 72.0192 31.649 72.0194 30.9707 71.6391C18.0509 64.3949 9.52717 54.1575 5.63631 41.2112C2.48255 30.7173 3.36109 21.3505 3.88517 17.8105C4.00204 17.0211 4.52957 16.3417 5.26183 16.0374L31.202 5.25331C31.4818 5.13697 31.7759 5.07873 32.07 5.07873C32.3639 5.07873 32.6582 5.13697 32.938 5.25331L58.8782 16.0374C59.6104 16.3418 60.1378 17.0211 60.2545 17.8105C60.7788 21.3506 61.6572 30.7175 58.5035 41.2112Z" fill="#4B6CAC" stroke="#4B6CAC"/>
<path d="M54.3081 18.999L44.1694 14.8452C43.6399 14.6286 43.036 14.8834 42.8202 15.4146C42.6045 15.9459 42.8582 16.5523 43.3874 16.769L53.5261 20.9228C54.0466 21.1359 54.4211 21.6094 54.5035 22.1581C54.9222 24.9447 55.624 32.318 53.1045 40.5794C49.9966 50.7702 43.1843 58.8311 32.8571 64.5379C32.3703 64.8067 31.7653 64.8067 31.2785 64.5379C20.9511 58.8311 14.1388 50.7704 11.0309 40.5794C8.51118 32.3182 9.21291 24.9448 9.63159 22.1581C9.71406 21.6092 10.0885 21.1359 10.6092 20.9228L31.4435 12.3871C31.84 12.2246 32.2953 12.2245 32.6919 12.3871L38.9491 14.9508C39.4785 15.1674 40.0825 14.9125 40.2983 14.3814C40.5142 13.8501 40.2603 13.2437 39.7311 13.027L33.4737 10.4633C32.5669 10.0918 31.5683 10.0921 30.6614 10.4633L9.82705 18.999C8.63481 19.4874 7.77561 20.5793 7.58498 21.8483C7.1453 24.7752 6.40793 32.519 9.0517 41.1876C10.5224 46.0102 12.8269 50.4482 15.9013 54.3783C19.5893 59.093 24.4271 63.1235 30.2803 66.3579C30.8316 66.6626 31.4495 66.8148 32.0676 66.8148C32.6857 66.8147 33.3038 66.6626 33.855 66.3579C39.7083 63.1237 44.5461 59.093 48.234 54.3783C51.3082 50.4482 53.6127 46.0101 55.0834 41.1876C57.7272 32.5188 56.9898 24.7751 56.55 21.8483C56.3594 20.5792 55.5003 19.4874 54.3081 18.999Z" fill="#4B6CAC" stroke="#4B6CAC"/>
<path d="M30.0088 51.0997H34.1339C35.6106 51.0997 36.8121 49.8994 36.8121 48.4239V43.8317C36.8121 43.5019 37.0849 43.2336 37.4204 43.2336H42.0308C43.5076 43.2336 44.709 42.0332 44.709 40.5579V36.4491C44.709 34.9736 43.5076 33.7732 42.0308 33.7732H37.4204C37.0849 33.7732 36.8121 33.5051 36.8121 33.1753V28.5829C36.8121 27.1076 35.6107 25.9072 34.1339 25.9072H30.0088C28.5321 25.9072 27.3306 27.1074 27.3306 28.5829V33.1753C27.3306 33.5049 27.0577 33.7732 26.7223 33.7732H22.1118C20.6351 33.7732 19.4336 34.9736 19.4336 36.4491V40.5579C19.4336 41.8969 20.4348 43.0375 21.7624 43.211C22.3295 43.2859 22.8483 42.8837 22.9222 42.3149C22.996 41.7459 22.5962 41.2248 22.0296 41.1506C21.7297 41.1113 21.5034 40.8566 21.5034 40.558V36.4492C21.5034 36.1194 21.7764 35.8511 22.1118 35.8511H26.7223C28.199 35.8511 29.4005 34.6508 29.4005 33.1754V28.583C29.4005 28.2534 29.6734 27.9851 30.0088 27.9851H34.1339C34.4695 27.9851 34.7423 28.2533 34.7423 28.583V33.1754C34.7423 34.6508 35.9436 35.8511 37.4203 35.8511H42.0307C42.3662 35.8511 42.6392 36.1193 42.6392 36.4492V40.558C42.6392 40.8877 42.3662 41.156 42.0307 41.156H37.4203C35.9436 41.156 34.7423 42.3563 34.7423 43.8318V48.4241C34.7423 48.7538 34.4695 49.0221 34.1339 49.0221H30.0088C29.6734 49.0221 29.4005 48.754 29.4005 48.4241V43.8318C29.4005 42.3565 28.1991 41.156 26.7223 41.156C26.1507 41.156 25.6874 41.6211 25.6874 42.1949C25.6874 42.7687 26.1507 43.2338 26.7223 43.2338C27.0577 43.2338 27.3306 43.502 27.3306 43.8319V48.4242C27.3308 49.8994 28.5321 51.0997 30.0088 51.0997Z" fill="#FA5060"/>
<path d="M21.3672 43.1706H26.4855H28.8119V50.1772H35.7914V42.2364H43.2362V34.7627H35.7914V27.2891H28.8119V33.3614L26.9508 35.697L21.3672 35.2298V43.1706Z" fill="#FA5060"/>
</svg>
