<svg width="194" height="227" viewBox="0 0 194 227" fill="none" xmlns="http://www.w3.org/2000/svg">
<path d="M5.24855 10.4971C8.14961 10.4971 10.4971 8.14721 10.4971 5.24855C10.4971 2.3499 8.14961 0 5.24855 0C2.3475 0 0 2.3499 0 5.24855C0 8.14721 2.3475 10.4971 5.24855 10.4971Z" fill="url(#paint0_linear)"/>
<path d="M5.24855 128.59C8.14961 128.59 10.4971 126.24 10.4971 123.341C10.4971 120.442 8.14961 118.092 5.24855 118.092C2.3475 118.092 0 120.442 0 123.341C0 126.24 2.3475 128.59 5.24855 128.59Z" fill="url(#paint1_linear)"/>
<path d="M128.59 5.24855C128.59 8.14721 126.242 10.4971 123.341 10.4971C120.44 10.4971 118.092 8.14721 118.092 5.24855C118.092 2.3499 120.44 0 123.341 0C126.242 0 128.59 2.3499 128.59 5.24855Z" fill="url(#paint2_linear)"/>
<path d="M123.341 128.59C126.242 128.59 128.59 126.24 128.59 123.341C128.59 120.442 126.242 118.092 123.341 118.092C120.44 118.092 118.092 120.442 118.092 123.341C118.092 126.24 120.44 128.59 123.341 128.59Z" fill="url(#paint3_linear)"/>
<path d="M10.4971 24.9306C10.4971 27.8293 8.14961 30.1792 5.24855 30.1792C2.3475 30.1792 0 27.8293 0 24.9306C0 22.032 2.3475 19.6821 5.24855 19.6821C8.14961 19.6821 10.4971 22.032 10.4971 24.9306Z" fill="url(#paint4_linear)"/>
<path d="M5.24855 148.272C8.14961 148.272 10.4971 145.922 10.4971 143.023C10.4971 140.124 8.14961 137.775 5.24855 137.775C2.3475 137.775 0 140.124 0 143.023C0 145.922 2.3475 148.272 5.24855 148.272Z" fill="url(#paint5_linear)"/>
<path d="M128.59 24.9306C128.59 27.8293 126.242 30.1792 123.341 30.1792C120.44 30.1792 118.092 27.8293 118.092 24.9306C118.092 22.032 120.44 19.6821 123.341 19.6821C126.242 19.6821 128.59 22.032 128.59 24.9306Z" fill="url(#paint6_linear)"/>
<path d="M123.341 148.272C126.242 148.272 128.59 145.922 128.59 143.023C128.59 140.124 126.242 137.775 123.341 137.775C120.44 137.775 118.092 140.124 118.092 143.023C118.092 145.922 120.44 148.272 123.341 148.272Z" fill="url(#paint7_linear)"/>
<path d="M10.4971 44.6127C10.4971 47.5114 8.14961 49.8613 5.24855 49.8613C2.3475 49.8613 0 47.5114 0 44.6127C0 41.7141 2.3475 39.3642 5.24855 39.3642C8.14961 39.3642 10.4971 41.7141 10.4971 44.6127Z" fill="url(#paint8_linear)"/>
<path d="M5.24855 167.954C8.14961 167.954 10.4971 165.604 10.4971 162.705C10.4971 159.806 8.14961 157.457 5.24855 157.457C2.3475 157.457 0 159.806 0 162.705C0 165.604 2.3475 167.954 5.24855 167.954Z" fill="url(#paint9_linear)"/>
<path d="M128.59 44.6127C128.59 47.5114 126.242 49.8613 123.341 49.8613C120.44 49.8613 118.092 47.5114 118.092 44.6127C118.092 41.7141 120.44 39.3642 123.341 39.3642C126.242 39.3642 128.59 41.7141 128.59 44.6127Z" fill="url(#paint10_linear)"/>
<path d="M123.341 167.954C126.242 167.954 128.59 165.604 128.59 162.705C128.59 159.806 126.242 157.457 123.341 157.457C120.44 157.457 118.092 159.806 118.092 162.705C118.092 165.604 120.44 167.954 123.341 167.954Z" fill="url(#paint11_linear)"/>
<path d="M10.4971 64.2948C10.4971 67.1935 8.14961 69.5434 5.24855 69.5434C2.3475 69.5434 0 67.1935 0 64.2948C0 61.3961 2.3475 59.0462 5.24855 59.0462C8.14961 59.0462 10.4971 61.3961 10.4971 64.2948Z" fill="url(#paint12_linear)"/>
<path d="M5.24855 187.636C8.14961 187.636 10.4971 185.286 10.4971 182.387C10.4971 179.488 8.14961 177.139 5.24855 177.139C2.3475 177.139 0 179.488 0 182.387C0 185.286 2.3475 187.636 5.24855 187.636Z" fill="url(#paint13_linear)"/>
<path d="M128.59 64.2948C128.59 67.1935 126.242 69.5434 123.341 69.5434C120.44 69.5434 118.092 67.1935 118.092 64.2948C118.092 61.3961 120.44 59.0462 123.341 59.0462C126.242 59.0462 128.59 61.3961 128.59 64.2948Z" fill="url(#paint14_linear)"/>
<path d="M123.341 187.636C126.242 187.636 128.59 185.286 128.59 182.387C128.59 179.488 126.242 177.139 123.341 177.139C120.44 177.139 118.092 179.488 118.092 182.387C118.092 185.286 120.44 187.636 123.341 187.636Z" fill="url(#paint15_linear)"/>
<path d="M10.4971 83.9769C10.4971 86.8757 8.14961 89.2254 5.24855 89.2254C2.3475 89.2254 0 86.8757 0 83.9769C0 81.0781 2.3475 78.7283 5.24855 78.7283C8.14961 78.7283 10.4971 81.0781 10.4971 83.9769Z" fill="url(#paint16_linear)"/>
<path d="M5.24855 207.318C8.14961 207.318 10.4971 204.968 10.4971 202.069C10.4971 199.171 8.14961 196.821 5.24855 196.821C2.3475 196.821 0 199.171 0 202.069C0 204.968 2.3475 207.318 5.24855 207.318Z" fill="url(#paint17_linear)"/>
<path d="M128.59 83.9769C128.59 86.8757 126.242 89.2254 123.341 89.2254C120.44 89.2254 118.092 86.8757 118.092 83.9769C118.092 81.0781 120.44 78.7283 123.341 78.7283C126.242 78.7283 128.59 81.0781 128.59 83.9769Z" fill="url(#paint18_linear)"/>
<path d="M123.341 207.318C126.242 207.318 128.59 204.968 128.59 202.069C128.59 199.171 126.242 196.821 123.341 196.821C120.44 196.821 118.092 199.171 118.092 202.069C118.092 204.968 120.44 207.318 123.341 207.318Z" fill="url(#paint19_linear)"/>
<path d="M10.4971 103.659C10.4971 106.558 8.14961 108.908 5.24855 108.908C2.3475 108.908 0 106.558 0 103.659C0 100.76 2.3475 98.4104 5.24855 98.4104C8.14961 98.4104 10.4971 100.76 10.4971 103.659Z" fill="url(#paint20_linear)"/>
<path d="M5.24855 227C8.14961 227 10.4971 224.65 10.4971 221.751C10.4971 218.853 8.14961 216.503 5.24855 216.503C2.3475 216.503 0 218.853 0 221.751C0 224.65 2.3475 227 5.24855 227Z" fill="url(#paint21_linear)"/>
<path d="M128.59 103.659C128.59 106.558 126.242 108.908 123.341 108.908C120.44 108.908 118.092 106.558 118.092 103.659C118.092 100.76 120.44 98.4104 123.341 98.4104C126.242 98.4104 128.59 100.76 128.59 103.659Z" fill="url(#paint22_linear)"/>
<path d="M123.341 227C126.242 227 128.59 224.65 128.59 221.751C128.59 218.853 126.242 216.503 123.341 216.503C120.44 216.503 118.092 218.853 118.092 221.751C118.092 224.65 120.44 227 123.341 227Z" fill="url(#paint23_linear)"/>
<path d="M30.1792 5.24855C30.1792 8.14721 27.8317 10.4971 24.9306 10.4971C22.0296 10.4971 19.6821 8.14721 19.6821 5.24855C19.6821 2.3499 22.0296 0 24.9306 0C27.8317 0 30.1792 2.3499 30.1792 5.24855Z" fill="url(#paint24_linear)"/>
<path d="M24.9306 128.59C27.8317 128.59 30.1792 126.24 30.1792 123.341C30.1792 120.442 27.8317 118.092 24.9306 118.092C22.0296 118.092 19.6821 120.442 19.6821 123.341C19.6821 126.24 22.0296 128.59 24.9306 128.59Z" fill="url(#paint25_linear)"/>
<path d="M148.272 5.24855C148.272 8.14721 145.924 10.4971 143.023 10.4971C140.122 10.4971 137.775 8.14721 137.775 5.24855C137.775 2.3499 140.122 0 143.023 0C145.924 0 148.272 2.3499 148.272 5.24855Z" fill="url(#paint26_linear)"/>
<path d="M143.023 128.59C145.924 128.59 148.272 126.24 148.272 123.341C148.272 120.442 145.924 118.092 143.023 118.092C140.122 118.092 137.775 120.442 137.775 123.341C137.775 126.24 140.122 128.59 143.023 128.59Z" fill="url(#paint27_linear)"/>
<path d="M30.1792 24.9306C30.1792 27.8293 27.8317 30.1792 24.9306 30.1792C22.0296 30.1792 19.6821 27.8293 19.6821 24.9306C19.6821 22.032 22.0296 19.6821 24.9306 19.6821C27.8317 19.6821 30.1792 22.032 30.1792 24.9306Z" fill="url(#paint28_linear)"/>
<path d="M24.9306 148.272C27.8317 148.272 30.1792 145.922 30.1792 143.023C30.1792 140.124 27.8317 137.775 24.9306 137.775C22.0296 137.775 19.6821 140.124 19.6821 143.023C19.6821 145.922 22.0296 148.272 24.9306 148.272Z" fill="url(#paint29_linear)"/>
<path d="M148.272 24.9306C148.272 27.8293 145.924 30.1792 143.023 30.1792C140.122 30.1792 137.775 27.8293 137.775 24.9306C137.775 22.032 140.122 19.6821 143.023 19.6821C145.924 19.6821 148.272 22.032 148.272 24.9306Z" fill="url(#paint30_linear)"/>
<path d="M143.023 148.272C145.924 148.272 148.272 145.922 148.272 143.023C148.272 140.124 145.924 137.775 143.023 137.775C140.122 137.775 137.775 140.124 137.775 143.023C137.775 145.922 140.122 148.272 143.023 148.272Z" fill="url(#paint31_linear)"/>
<path d="M30.1792 44.6127C30.1792 47.5114 27.8317 49.8613 24.9306 49.8613C22.0296 49.8613 19.6821 47.5114 19.6821 44.6127C19.6821 41.7141 22.0296 39.3642 24.9306 39.3642C27.8317 39.3642 30.1792 41.7141 30.1792 44.6127Z" fill="url(#paint32_linear)"/>
<path d="M24.9306 167.954C27.8317 167.954 30.1792 165.604 30.1792 162.705C30.1792 159.806 27.8317 157.457 24.9306 157.457C22.0296 157.457 19.6821 159.806 19.6821 162.705C19.6821 165.604 22.0296 167.954 24.9306 167.954Z" fill="url(#paint33_linear)"/>
<path d="M148.272 44.6127C148.272 47.5114 145.924 49.8613 143.023 49.8613C140.122 49.8613 137.775 47.5114 137.775 44.6127C137.775 41.7141 140.122 39.3642 143.023 39.3642C145.924 39.3642 148.272 41.7141 148.272 44.6127Z" fill="url(#paint34_linear)"/>
<path d="M143.023 167.954C145.924 167.954 148.272 165.604 148.272 162.705C148.272 159.806 145.924 157.457 143.023 157.457C140.122 157.457 137.775 159.806 137.775 162.705C137.775 165.604 140.122 167.954 143.023 167.954Z" fill="url(#paint35_linear)"/>
<path d="M30.1792 64.2948C30.1792 67.1935 27.8317 69.5434 24.9306 69.5434C22.0296 69.5434 19.6821 67.1935 19.6821 64.2948C19.6821 61.3961 22.0296 59.0462 24.9306 59.0462C27.8317 59.0462 30.1792 61.3961 30.1792 64.2948Z" fill="url(#paint36_linear)"/>
<path d="M24.9306 187.636C27.8317 187.636 30.1792 185.286 30.1792 182.387C30.1792 179.488 27.8317 177.139 24.9306 177.139C22.0296 177.139 19.6821 179.488 19.6821 182.387C19.6821 185.286 22.0296 187.636 24.9306 187.636Z" fill="url(#paint37_linear)"/>
<path d="M148.272 64.2948C148.272 67.1935 145.924 69.5434 143.023 69.5434C140.122 69.5434 137.775 67.1935 137.775 64.2948C137.775 61.3961 140.122 59.0462 143.023 59.0462C145.924 59.0462 148.272 61.3961 148.272 64.2948Z" fill="url(#paint38_linear)"/>
<path d="M143.023 187.636C145.924 187.636 148.272 185.286 148.272 182.387C148.272 179.488 145.924 177.139 143.023 177.139C140.122 177.139 137.775 179.488 137.775 182.387C137.775 185.286 140.122 187.636 143.023 187.636Z" fill="url(#paint39_linear)"/>
<path d="M30.1792 83.9769C30.1792 86.8757 27.8317 89.2254 24.9306 89.2254C22.0296 89.2254 19.6821 86.8757 19.6821 83.9769C19.6821 81.0781 22.0296 78.7283 24.9306 78.7283C27.8317 78.7283 30.1792 81.0781 30.1792 83.9769Z" fill="url(#paint40_linear)"/>
<path d="M24.9306 207.318C27.8317 207.318 30.1792 204.968 30.1792 202.069C30.1792 199.171 27.8317 196.821 24.9306 196.821C22.0296 196.821 19.6821 199.171 19.6821 202.069C19.6821 204.968 22.0296 207.318 24.9306 207.318Z" fill="url(#paint41_linear)"/>
<path d="M148.272 83.9769C148.272 86.8757 145.924 89.2254 143.023 89.2254C140.122 89.2254 137.775 86.8757 137.775 83.9769C137.775 81.0781 140.122 78.7283 143.023 78.7283C145.924 78.7283 148.272 81.0781 148.272 83.9769Z" fill="url(#paint42_linear)"/>
<path d="M143.023 207.318C145.924 207.318 148.272 204.968 148.272 202.069C148.272 199.171 145.924 196.821 143.023 196.821C140.122 196.821 137.775 199.171 137.775 202.069C137.775 204.968 140.122 207.318 143.023 207.318Z" fill="url(#paint43_linear)"/>
<path d="M30.1792 103.659C30.1792 106.558 27.8317 108.908 24.9306 108.908C22.0296 108.908 19.6821 106.558 19.6821 103.659C19.6821 100.76 22.0296 98.4104 24.9306 98.4104C27.8317 98.4104 30.1792 100.76 30.1792 103.659Z" fill="url(#paint44_linear)"/>
<path d="M24.9306 227C27.8317 227 30.1792 224.65 30.1792 221.751C30.1792 218.853 27.8317 216.503 24.9306 216.503C22.0296 216.503 19.6821 218.853 19.6821 221.751C19.6821 224.65 22.0296 227 24.9306 227Z" fill="url(#paint45_linear)"/>
<path d="M148.272 103.659C148.272 106.558 145.924 108.908 143.023 108.908C140.122 108.908 137.775 106.558 137.775 103.659C137.775 100.76 140.122 98.4104 143.023 98.4104C145.924 98.4104 148.272 100.76 148.272 103.659Z" fill="url(#paint46_linear)"/>
<path d="M143.023 227C145.924 227 148.272 224.65 148.272 221.751C148.272 218.853 145.924 216.503 143.023 216.503C140.122 216.503 137.775 218.853 137.775 221.751C137.775 224.65 140.122 227 143.023 227Z" fill="url(#paint47_linear)"/>
<path d="M49.8613 5.24855C49.8613 8.14721 47.5138 10.4971 44.6127 10.4971C41.7117 10.4971 39.3642 8.14721 39.3642 5.24855C39.3642 2.3499 41.7117 0 44.6127 0C47.5138 0 49.8613 2.3499 49.8613 5.24855Z" fill="url(#paint48_linear)"/>
<path d="M44.6127 128.59C47.5138 128.59 49.8613 126.24 49.8613 123.341C49.8613 120.442 47.5138 118.092 44.6127 118.092C41.7117 118.092 39.3642 120.442 39.3642 123.341C39.3642 126.24 41.7117 128.59 44.6127 128.59Z" fill="url(#paint49_linear)"/>
<path d="M167.954 5.24855C167.954 8.14721 165.606 10.4971 162.705 10.4971C159.804 10.4971 157.457 8.14721 157.457 5.24855C157.457 2.3499 159.804 0 162.705 0C165.606 0 167.954 2.3499 167.954 5.24855Z" fill="url(#paint50_linear)"/>
<path d="M162.705 128.59C165.606 128.59 167.954 126.24 167.954 123.341C167.954 120.442 165.606 118.092 162.705 118.092C159.804 118.092 157.457 120.442 157.457 123.341C157.457 126.24 159.804 128.59 162.705 128.59Z" fill="url(#paint51_linear)"/>
<path d="M49.8613 24.9306C49.8613 27.8293 47.5138 30.1792 44.6127 30.1792C41.7117 30.1792 39.3642 27.8293 39.3642 24.9306C39.3642 22.032 41.7117 19.6821 44.6127 19.6821C47.5138 19.6821 49.8613 22.032 49.8613 24.9306Z" fill="url(#paint52_linear)"/>
<path d="M44.6127 148.272C47.5138 148.272 49.8613 145.922 49.8613 143.023C49.8613 140.124 47.5138 137.775 44.6127 137.775C41.7117 137.775 39.3642 140.124 39.3642 143.023C39.3642 145.922 41.7117 148.272 44.6127 148.272Z" fill="url(#paint53_linear)"/>
<path d="M167.954 24.9306C167.954 27.8293 165.606 30.1792 162.705 30.1792C159.804 30.1792 157.457 27.8293 157.457 24.9306C157.457 22.032 159.804 19.6821 162.705 19.6821C165.606 19.6821 167.954 22.032 167.954 24.9306Z" fill="url(#paint54_linear)"/>
<path d="M162.705 148.272C165.606 148.272 167.954 145.922 167.954 143.023C167.954 140.124 165.606 137.775 162.705 137.775C159.804 137.775 157.457 140.124 157.457 143.023C157.457 145.922 159.804 148.272 162.705 148.272Z" fill="url(#paint55_linear)"/>
<path d="M49.8613 44.6127C49.8613 47.5114 47.5138 49.8613 44.6127 49.8613C41.7117 49.8613 39.3642 47.5114 39.3642 44.6127C39.3642 41.7141 41.7117 39.3642 44.6127 39.3642C47.5138 39.3642 49.8613 41.7141 49.8613 44.6127Z" fill="url(#paint56_linear)"/>
<path d="M44.6127 167.954C47.5138 167.954 49.8613 165.604 49.8613 162.705C49.8613 159.806 47.5138 157.457 44.6127 157.457C41.7117 157.457 39.3642 159.806 39.3642 162.705C39.3642 165.604 41.7117 167.954 44.6127 167.954Z" fill="url(#paint57_linear)"/>
<path d="M167.954 44.6127C167.954 47.5114 165.606 49.8613 162.705 49.8613C159.804 49.8613 157.457 47.5114 157.457 44.6127C157.457 41.7141 159.804 39.3642 162.705 39.3642C165.606 39.3642 167.954 41.7141 167.954 44.6127Z" fill="url(#paint58_linear)"/>
<path d="M162.705 167.954C165.606 167.954 167.954 165.604 167.954 162.705C167.954 159.806 165.606 157.457 162.705 157.457C159.804 157.457 157.457 159.806 157.457 162.705C157.457 165.604 159.804 167.954 162.705 167.954Z" fill="url(#paint59_linear)"/>
<path d="M49.8613 64.2948C49.8613 67.1935 47.5138 69.5434 44.6127 69.5434C41.7117 69.5434 39.3642 67.1935 39.3642 64.2948C39.3642 61.3961 41.7117 59.0462 44.6127 59.0462C47.5138 59.0462 49.8613 61.3961 49.8613 64.2948Z" fill="url(#paint60_linear)"/>
<path d="M44.6127 187.636C47.5138 187.636 49.8613 185.286 49.8613 182.387C49.8613 179.488 47.5138 177.139 44.6127 177.139C41.7117 177.139 39.3642 179.488 39.3642 182.387C39.3642 185.286 41.7117 187.636 44.6127 187.636Z" fill="url(#paint61_linear)"/>
<path d="M167.954 64.2948C167.954 67.1935 165.606 69.5434 162.705 69.5434C159.804 69.5434 157.457 67.1935 157.457 64.2948C157.457 61.3961 159.804 59.0462 162.705 59.0462C165.606 59.0462 167.954 61.3961 167.954 64.2948Z" fill="url(#paint62_linear)"/>
<path d="M162.705 187.636C165.606 187.636 167.954 185.286 167.954 182.387C167.954 179.488 165.606 177.139 162.705 177.139C159.804 177.139 157.457 179.488 157.457 182.387C157.457 185.286 159.804 187.636 162.705 187.636Z" fill="url(#paint63_linear)"/>
<path d="M49.8613 83.9769C49.8613 86.8757 47.5138 89.2254 44.6127 89.2254C41.7117 89.2254 39.3642 86.8757 39.3642 83.9769C39.3642 81.0781 41.7117 78.7283 44.6127 78.7283C47.5138 78.7283 49.8613 81.0781 49.8613 83.9769Z" fill="url(#paint64_linear)"/>
<path d="M44.6127 207.318C47.5138 207.318 49.8613 204.968 49.8613 202.069C49.8613 199.171 47.5138 196.821 44.6127 196.821C41.7117 196.821 39.3642 199.171 39.3642 202.069C39.3642 204.968 41.7117 207.318 44.6127 207.318Z" fill="url(#paint65_linear)"/>
<path d="M167.954 83.9769C167.954 86.8757 165.606 89.2254 162.705 89.2254C159.804 89.2254 157.457 86.8757 157.457 83.9769C157.457 81.0781 159.804 78.7283 162.705 78.7283C165.606 78.7283 167.954 81.0781 167.954 83.9769Z" fill="url(#paint66_linear)"/>
<path d="M162.705 207.318C165.606 207.318 167.954 204.968 167.954 202.069C167.954 199.171 165.606 196.821 162.705 196.821C159.804 196.821 157.457 199.171 157.457 202.069C157.457 204.968 159.804 207.318 162.705 207.318Z" fill="url(#paint67_linear)"/>
<path d="M49.8613 103.659C49.8613 106.558 47.5138 108.908 44.6127 108.908C41.7117 108.908 39.3642 106.558 39.3642 103.659C39.3642 100.76 41.7117 98.4104 44.6127 98.4104C47.5138 98.4104 49.8613 100.76 49.8613 103.659Z" fill="url(#paint68_linear)"/>
<path d="M44.6127 227C47.5138 227 49.8613 224.65 49.8613 221.751C49.8613 218.853 47.5138 216.503 44.6127 216.503C41.7117 216.503 39.3642 218.853 39.3642 221.751C39.3642 224.65 41.7117 227 44.6127 227Z" fill="url(#paint69_linear)"/>
<path d="M167.954 103.659C167.954 106.558 165.606 108.908 162.705 108.908C159.804 108.908 157.457 106.558 157.457 103.659C157.457 100.76 159.804 98.4104 162.705 98.4104C165.606 98.4104 167.954 100.76 167.954 103.659Z" fill="url(#paint70_linear)"/>
<path d="M162.705 227C165.606 227 167.954 224.65 167.954 221.751C167.954 218.853 165.606 216.503 162.705 216.503C159.804 216.503 157.457 218.853 157.457 221.751C157.457 224.65 159.804 227 162.705 227Z" fill="url(#paint71_linear)"/>
<path d="M69.5434 5.24855C69.5434 8.14721 67.1959 10.4971 64.2948 10.4971C61.3937 10.4971 59.0462 8.14721 59.0462 5.24855C59.0462 2.3499 61.3937 0 64.2948 0C67.1959 0 69.5434 2.3499 69.5434 5.24855Z" fill="url(#paint72_linear)"/>
<path d="M64.2948 128.59C67.1959 128.59 69.5434 126.24 69.5434 123.341C69.5434 120.442 67.1959 118.092 64.2948 118.092C61.3937 118.092 59.0462 120.442 59.0462 123.341C59.0462 126.24 61.3937 128.59 64.2948 128.59Z" fill="url(#paint73_linear)"/>
<path d="M187.636 5.24855C187.636 8.14721 185.288 10.4971 182.387 10.4971C179.486 10.4971 177.139 8.14721 177.139 5.24855C177.139 2.3499 179.486 0 182.387 0C185.288 0 187.636 2.3499 187.636 5.24855Z" fill="url(#paint74_linear)"/>
<path d="M182.387 128.59C185.288 128.59 187.636 126.24 187.636 123.341C187.636 120.442 185.288 118.092 182.387 118.092C179.486 118.092 177.139 120.442 177.139 123.341C177.139 126.24 179.486 128.59 182.387 128.59Z" fill="url(#paint75_linear)"/>
<path d="M69.5434 24.9306C69.5434 27.8293 67.1959 30.1792 64.2948 30.1792C61.3937 30.1792 59.0462 27.8293 59.0462 24.9306C59.0462 22.032 61.3937 19.6821 64.2948 19.6821C67.1959 19.6821 69.5434 22.032 69.5434 24.9306Z" fill="url(#paint76_linear)"/>
<path d="M64.2948 148.272C67.1959 148.272 69.5434 145.922 69.5434 143.023C69.5434 140.124 67.1959 137.775 64.2948 137.775C61.3937 137.775 59.0462 140.124 59.0462 143.023C59.0462 145.922 61.3937 148.272 64.2948 148.272Z" fill="url(#paint77_linear)"/>
<path d="M187.636 24.9306C187.636 27.8293 185.288 30.1792 182.387 30.1792C179.486 30.1792 177.139 27.8293 177.139 24.9306C177.139 22.032 179.486 19.6821 182.387 19.6821C185.288 19.6821 187.636 22.032 187.636 24.9306Z" fill="url(#paint78_linear)"/>
<path d="M182.387 148.272C185.288 148.272 187.636 145.922 187.636 143.023C187.636 140.124 185.288 137.775 182.387 137.775C179.486 137.775 177.139 140.124 177.139 143.023C177.139 145.922 179.486 148.272 182.387 148.272Z" fill="url(#paint79_linear)"/>
<path d="M69.5434 44.6127C69.5434 47.5114 67.1959 49.8613 64.2948 49.8613C61.3937 49.8613 59.0462 47.5114 59.0462 44.6127C59.0462 41.7141 61.3937 39.3642 64.2948 39.3642C67.1959 39.3642 69.5434 41.7141 69.5434 44.6127Z" fill="url(#paint80_linear)"/>
<path d="M64.2948 167.954C67.1959 167.954 69.5434 165.604 69.5434 162.705C69.5434 159.806 67.1959 157.457 64.2948 157.457C61.3937 157.457 59.0462 159.806 59.0462 162.705C59.0462 165.604 61.3937 167.954 64.2948 167.954Z" fill="url(#paint81_linear)"/>
<path d="M187.636 44.6127C187.636 47.5114 185.288 49.8613 182.387 49.8613C179.486 49.8613 177.139 47.5114 177.139 44.6127C177.139 41.7141 179.486 39.3642 182.387 39.3642C185.288 39.3642 187.636 41.7141 187.636 44.6127Z" fill="url(#paint82_linear)"/>
<path d="M182.387 167.954C185.288 167.954 187.636 165.604 187.636 162.705C187.636 159.806 185.288 157.457 182.387 157.457C179.486 157.457 177.139 159.806 177.139 162.705C177.139 165.604 179.486 167.954 182.387 167.954Z" fill="url(#paint83_linear)"/>
<path d="M69.5434 64.2948C69.5434 67.1935 67.1959 69.5434 64.2948 69.5434C61.3937 69.5434 59.0462 67.1935 59.0462 64.2948C59.0462 61.3961 61.3937 59.0462 64.2948 59.0462C67.1959 59.0462 69.5434 61.3961 69.5434 64.2948Z" fill="url(#paint84_linear)"/>
<path d="M64.2948 187.636C67.1959 187.636 69.5434 185.286 69.5434 182.387C69.5434 179.488 67.1959 177.139 64.2948 177.139C61.3937 177.139 59.0462 179.488 59.0462 182.387C59.0462 185.286 61.3937 187.636 64.2948 187.636Z" fill="url(#paint85_linear)"/>
<path d="M187.636 64.2948C187.636 67.1935 185.288 69.5434 182.387 69.5434C179.486 69.5434 177.139 67.1935 177.139 64.2948C177.139 61.3961 179.486 59.0462 182.387 59.0462C185.288 59.0462 187.636 61.3961 187.636 64.2948Z" fill="url(#paint86_linear)"/>
<path d="M182.387 187.636C185.288 187.636 187.636 185.286 187.636 182.387C187.636 179.488 185.288 177.139 182.387 177.139C179.486 177.139 177.139 179.488 177.139 182.387C177.139 185.286 179.486 187.636 182.387 187.636Z" fill="url(#paint87_linear)"/>
<path d="M69.5434 83.9769C69.5434 86.8757 67.1959 89.2254 64.2948 89.2254C61.3937 89.2254 59.0462 86.8757 59.0462 83.9769C59.0462 81.0781 61.3937 78.7283 64.2948 78.7283C67.1959 78.7283 69.5434 81.0781 69.5434 83.9769Z" fill="url(#paint88_linear)"/>
<path d="M64.2948 207.318C67.1959 207.318 69.5434 204.968 69.5434 202.069C69.5434 199.171 67.1959 196.821 64.2948 196.821C61.3937 196.821 59.0462 199.171 59.0462 202.069C59.0462 204.968 61.3937 207.318 64.2948 207.318Z" fill="url(#paint89_linear)"/>
<path d="M187.636 83.9769C187.636 86.8757 185.288 89.2254 182.387 89.2254C179.486 89.2254 177.139 86.8757 177.139 83.9769C177.139 81.0781 179.486 78.7283 182.387 78.7283C185.288 78.7283 187.636 81.0781 187.636 83.9769Z" fill="url(#paint90_linear)"/>
<path d="M182.387 207.318C185.288 207.318 187.636 204.968 187.636 202.069C187.636 199.171 185.288 196.821 182.387 196.821C179.486 196.821 177.139 199.171 177.139 202.069C177.139 204.968 179.486 207.318 182.387 207.318Z" fill="url(#paint91_linear)"/>
<path d="M69.5434 103.659C69.5434 106.558 67.1959 108.908 64.2948 108.908C61.3937 108.908 59.0462 106.558 59.0462 103.659C59.0462 100.76 61.3937 98.4104 64.2948 98.4104C67.1959 98.4104 69.5434 100.76 69.5434 103.659Z" fill="url(#paint92_linear)"/>
<path d="M64.2948 227C67.1959 227 69.5434 224.65 69.5434 221.751C69.5434 218.853 67.1959 216.503 64.2948 216.503C61.3937 216.503 59.0462 218.853 59.0462 221.751C59.0462 224.65 61.3937 227 64.2948 227Z" fill="url(#paint93_linear)"/>
<path d="M187.636 103.659C187.636 106.558 185.288 108.908 182.387 108.908C179.486 108.908 177.139 106.558 177.139 103.659C177.139 100.76 179.486 98.4104 182.387 98.4104C185.288 98.4104 187.636 100.76 187.636 103.659Z" fill="url(#paint94_linear)"/>
<path d="M182.387 227C185.288 227 187.636 224.65 187.636 221.751C187.636 218.853 185.288 216.503 182.387 216.503C179.486 216.503 177.139 218.853 177.139 221.751C177.139 224.65 179.486 227 182.387 227Z" fill="url(#paint95_linear)"/>
<path d="M89.2254 5.24855C89.2254 8.14721 86.8779 10.4971 83.9769 10.4971C81.0758 10.4971 78.7283 8.14721 78.7283 5.24855C78.7283 2.3499 81.0758 0 83.9769 0C86.8779 0 89.2254 2.3499 89.2254 5.24855Z" fill="url(#paint96_linear)"/>
<path d="M83.9769 128.59C86.8779 128.59 89.2254 126.24 89.2254 123.341C89.2254 120.442 86.8779 118.092 83.9769 118.092C81.0758 118.092 78.7283 120.442 78.7283 123.341C78.7283 126.24 81.0758 128.59 83.9769 128.59Z" fill="url(#paint97_linear)"/>
<path d="M207.318 5.24855C207.318 8.14721 204.97 10.4971 202.069 10.4971C199.168 10.4971 196.821 8.14721 196.821 5.24855C196.821 2.3499 199.168 0 202.069 0C204.97 0 207.318 2.3499 207.318 5.24855Z" fill="url(#paint98_linear)"/>
<path d="M202.069 128.59C204.97 128.59 207.318 126.24 207.318 123.341C207.318 120.442 204.97 118.092 202.069 118.092C199.168 118.092 196.821 120.442 196.821 123.341C196.821 126.24 199.168 128.59 202.069 128.59Z" fill="url(#paint99_linear)"/>
<path d="M89.2254 24.9306C89.2254 27.8293 86.8779 30.1792 83.9769 30.1792C81.0758 30.1792 78.7283 27.8293 78.7283 24.9306C78.7283 22.032 81.0758 19.6821 83.9769 19.6821C86.8779 19.6821 89.2254 22.032 89.2254 24.9306Z" fill="url(#paint100_linear)"/>
<path d="M83.9769 148.272C86.8779 148.272 89.2254 145.922 89.2254 143.023C89.2254 140.124 86.8779 137.775 83.9769 137.775C81.0758 137.775 78.7283 140.124 78.7283 143.023C78.7283 145.922 81.0758 148.272 83.9769 148.272Z" fill="url(#paint101_linear)"/>
<path d="M207.318 24.9306C207.318 27.8293 204.97 30.1792 202.069 30.1792C199.168 30.1792 196.821 27.8293 196.821 24.9306C196.821 22.032 199.168 19.6821 202.069 19.6821C204.97 19.6821 207.318 22.032 207.318 24.9306Z" fill="url(#paint102_linear)"/>
<path d="M202.069 148.272C204.97 148.272 207.318 145.922 207.318 143.023C207.318 140.124 204.97 137.775 202.069 137.775C199.168 137.775 196.821 140.124 196.821 143.023C196.821 145.922 199.168 148.272 202.069 148.272Z" fill="url(#paint103_linear)"/>
<path d="M89.2254 44.6127C89.2254 47.5114 86.8779 49.8613 83.9769 49.8613C81.0758 49.8613 78.7283 47.5114 78.7283 44.6127C78.7283 41.7141 81.0758 39.3642 83.9769 39.3642C86.8779 39.3642 89.2254 41.7141 89.2254 44.6127Z" fill="url(#paint104_linear)"/>
<path d="M83.9769 167.954C86.8779 167.954 89.2254 165.604 89.2254 162.705C89.2254 159.806 86.8779 157.457 83.9769 157.457C81.0758 157.457 78.7283 159.806 78.7283 162.705C78.7283 165.604 81.0758 167.954 83.9769 167.954Z" fill="url(#paint105_linear)"/>
<path d="M207.318 44.6127C207.318 47.5114 204.97 49.8613 202.069 49.8613C199.168 49.8613 196.821 47.5114 196.821 44.6127C196.821 41.7141 199.168 39.3642 202.069 39.3642C204.97 39.3642 207.318 41.7141 207.318 44.6127Z" fill="url(#paint106_linear)"/>
<path d="M202.069 167.954C204.97 167.954 207.318 165.604 207.318 162.705C207.318 159.806 204.97 157.457 202.069 157.457C199.168 157.457 196.821 159.806 196.821 162.705C196.821 165.604 199.168 167.954 202.069 167.954Z" fill="url(#paint107_linear)"/>
<path d="M89.2254 64.2948C89.2254 67.1935 86.8779 69.5434 83.9769 69.5434C81.0758 69.5434 78.7283 67.1935 78.7283 64.2948C78.7283 61.3961 81.0758 59.0462 83.9769 59.0462C86.8779 59.0462 89.2254 61.3961 89.2254 64.2948Z" fill="url(#paint108_linear)"/>
<path d="M83.9769 187.636C86.8779 187.636 89.2254 185.286 89.2254 182.387C89.2254 179.488 86.8779 177.139 83.9769 177.139C81.0758 177.139 78.7283 179.488 78.7283 182.387C78.7283 185.286 81.0758 187.636 83.9769 187.636Z" fill="url(#paint109_linear)"/>
<path d="M207.318 64.2948C207.318 67.1935 204.97 69.5434 202.069 69.5434C199.168 69.5434 196.821 67.1935 196.821 64.2948C196.821 61.3961 199.168 59.0462 202.069 59.0462C204.97 59.0462 207.318 61.3961 207.318 64.2948Z" fill="url(#paint110_linear)"/>
<path d="M202.069 187.636C204.97 187.636 207.318 185.286 207.318 182.387C207.318 179.488 204.97 177.139 202.069 177.139C199.168 177.139 196.821 179.488 196.821 182.387C196.821 185.286 199.168 187.636 202.069 187.636Z" fill="url(#paint111_linear)"/>
<path d="M89.2254 83.9769C89.2254 86.8757 86.8779 89.2254 83.9769 89.2254C81.0758 89.2254 78.7283 86.8757 78.7283 83.9769C78.7283 81.0781 81.0758 78.7283 83.9769 78.7283C86.8779 78.7283 89.2254 81.0781 89.2254 83.9769Z" fill="url(#paint112_linear)"/>
<path d="M83.9769 207.318C86.8779 207.318 89.2254 204.968 89.2254 202.069C89.2254 199.171 86.8779 196.821 83.9769 196.821C81.0758 196.821 78.7283 199.171 78.7283 202.069C78.7283 204.968 81.0758 207.318 83.9769 207.318Z" fill="url(#paint113_linear)"/>
<path d="M207.318 83.9769C207.318 86.8757 204.97 89.2254 202.069 89.2254C199.168 89.2254 196.821 86.8757 196.821 83.9769C196.821 81.0781 199.168 78.7283 202.069 78.7283C204.97 78.7283 207.318 81.0781 207.318 83.9769Z" fill="url(#paint114_linear)"/>
<path d="M202.069 207.318C204.97 207.318 207.318 204.968 207.318 202.069C207.318 199.171 204.97 196.821 202.069 196.821C199.168 196.821 196.821 199.171 196.821 202.069C196.821 204.968 199.168 207.318 202.069 207.318Z" fill="url(#paint115_linear)"/>
<path d="M89.2254 103.659C89.2254 106.558 86.8779 108.908 83.9769 108.908C81.0758 108.908 78.7283 106.558 78.7283 103.659C78.7283 100.76 81.0758 98.4104 83.9769 98.4104C86.8779 98.4104 89.2254 100.76 89.2254 103.659Z" fill="url(#paint116_linear)"/>
<path d="M83.9769 227C86.8779 227 89.2254 224.65 89.2254 221.751C89.2254 218.853 86.8779 216.503 83.9769 216.503C81.0758 216.503 78.7283 218.853 78.7283 221.751C78.7283 224.65 81.0758 227 83.9769 227Z" fill="url(#paint117_linear)"/>
<path d="M207.318 103.659C207.318 106.558 204.97 108.908 202.069 108.908C199.168 108.908 196.821 106.558 196.821 103.659C196.821 100.76 199.168 98.4104 202.069 98.4104C204.97 98.4104 207.318 100.76 207.318 103.659Z" fill="url(#paint118_linear)"/>
<path d="M202.069 227C204.97 227 207.318 224.65 207.318 221.751C207.318 218.853 204.97 216.503 202.069 216.503C199.168 216.503 196.821 218.853 196.821 221.751C196.821 224.65 199.168 227 202.069 227Z" fill="url(#paint119_linear)"/>
<path d="M108.908 5.24855C108.908 8.14721 106.56 10.4971 103.659 10.4971C100.758 10.4971 98.4104 8.14721 98.4104 5.24855C98.4104 2.3499 100.758 0 103.659 0C106.56 0 108.908 2.3499 108.908 5.24855Z" fill="url(#paint120_linear)"/>
<path d="M103.659 128.59C106.56 128.59 108.908 126.24 108.908 123.341C108.908 120.442 106.56 118.092 103.659 118.092C100.758 118.092 98.4104 120.442 98.4104 123.341C98.4104 126.24 100.758 128.59 103.659 128.59Z" fill="url(#paint121_linear)"/>
<path d="M227 5.24855C227 8.14721 224.652 10.4971 221.751 10.4971C218.85 10.4971 216.503 8.14721 216.503 5.24855C216.503 2.3499 218.85 0 221.751 0C224.652 0 227 2.3499 227 5.24855Z" fill="url(#paint122_linear)"/>
<path d="M221.751 128.59C224.652 128.59 227 126.24 227 123.341C227 120.442 224.652 118.092 221.751 118.092C218.85 118.092 216.503 120.442 216.503 123.341C216.503 126.24 218.85 128.59 221.751 128.59Z" fill="url(#paint123_linear)"/>
<path d="M108.908 24.9306C108.908 27.8293 106.56 30.1792 103.659 30.1792C100.758 30.1792 98.4104 27.8293 98.4104 24.9306C98.4104 22.032 100.758 19.6821 103.659 19.6821C106.56 19.6821 108.908 22.032 108.908 24.9306Z" fill="url(#paint124_linear)"/>
<path d="M103.659 148.272C106.56 148.272 108.908 145.922 108.908 143.023C108.908 140.124 106.56 137.775 103.659 137.775C100.758 137.775 98.4104 140.124 98.4104 143.023C98.4104 145.922 100.758 148.272 103.659 148.272Z" fill="url(#paint125_linear)"/>
<path d="M227 24.9306C227 27.8293 224.652 30.1792 221.751 30.1792C218.85 30.1792 216.503 27.8293 216.503 24.9306C216.503 22.032 218.85 19.6821 221.751 19.6821C224.652 19.6821 227 22.032 227 24.9306Z" fill="url(#paint126_linear)"/>
<path d="M221.751 148.272C224.652 148.272 227 145.922 227 143.023C227 140.124 224.652 137.775 221.751 137.775C218.85 137.775 216.503 140.124 216.503 143.023C216.503 145.922 218.85 148.272 221.751 148.272Z" fill="url(#paint127_linear)"/>
<path d="M108.908 44.6127C108.908 47.5114 106.56 49.8613 103.659 49.8613C100.758 49.8613 98.4104 47.5114 98.4104 44.6127C98.4104 41.7141 100.758 39.3642 103.659 39.3642C106.56 39.3642 108.908 41.7141 108.908 44.6127Z" fill="url(#paint128_linear)"/>
<path d="M103.659 167.954C106.56 167.954 108.908 165.604 108.908 162.705C108.908 159.806 106.56 157.457 103.659 157.457C100.758 157.457 98.4104 159.806 98.4104 162.705C98.4104 165.604 100.758 167.954 103.659 167.954Z" fill="url(#paint129_linear)"/>
<path d="M227 44.6127C227 47.5114 224.652 49.8613 221.751 49.8613C218.85 49.8613 216.503 47.5114 216.503 44.6127C216.503 41.7141 218.85 39.3642 221.751 39.3642C224.652 39.3642 227 41.7141 227 44.6127Z" fill="url(#paint130_linear)"/>
<path d="M221.751 167.954C224.652 167.954 227 165.604 227 162.705C227 159.806 224.652 157.457 221.751 157.457C218.85 157.457 216.503 159.806 216.503 162.705C216.503 165.604 218.85 167.954 221.751 167.954Z" fill="url(#paint131_linear)"/>
<path d="M108.908 64.2948C108.908 67.1935 106.56 69.5434 103.659 69.5434C100.758 69.5434 98.4104 67.1935 98.4104 64.2948C98.4104 61.3961 100.758 59.0462 103.659 59.0462C106.56 59.0462 108.908 61.3961 108.908 64.2948Z" fill="url(#paint132_linear)"/>
<path d="M103.659 187.636C106.56 187.636 108.908 185.286 108.908 182.387C108.908 179.488 106.56 177.139 103.659 177.139C100.758 177.139 98.4104 179.488 98.4104 182.387C98.4104 185.286 100.758 187.636 103.659 187.636Z" fill="url(#paint133_linear)"/>
<path d="M227 64.2948C227 67.1935 224.652 69.5434 221.751 69.5434C218.85 69.5434 216.503 67.1935 216.503 64.2948C216.503 61.3961 218.85 59.0462 221.751 59.0462C224.652 59.0462 227 61.3961 227 64.2948Z" fill="url(#paint134_linear)"/>
<path d="M221.751 187.636C224.652 187.636 227 185.286 227 182.387C227 179.488 224.652 177.139 221.751 177.139C218.85 177.139 216.503 179.488 216.503 182.387C216.503 185.286 218.85 187.636 221.751 187.636Z" fill="url(#paint135_linear)"/>
<path d="M108.908 83.9769C108.908 86.8757 106.56 89.2254 103.659 89.2254C100.758 89.2254 98.4104 86.8757 98.4104 83.9769C98.4104 81.0781 100.758 78.7283 103.659 78.7283C106.56 78.7283 108.908 81.0781 108.908 83.9769Z" fill="url(#paint136_linear)"/>
<path d="M103.659 207.318C106.56 207.318 108.908 204.968 108.908 202.069C108.908 199.171 106.56 196.821 103.659 196.821C100.758 196.821 98.4104 199.171 98.4104 202.069C98.4104 204.968 100.758 207.318 103.659 207.318Z" fill="url(#paint137_linear)"/>
<path d="M227 83.9769C227 86.8757 224.652 89.2254 221.751 89.2254C218.85 89.2254 216.503 86.8757 216.503 83.9769C216.503 81.0781 218.85 78.7283 221.751 78.7283C224.652 78.7283 227 81.0781 227 83.9769Z" fill="url(#paint138_linear)"/>
<path d="M221.751 207.318C224.652 207.318 227 204.968 227 202.069C227 199.171 224.652 196.821 221.751 196.821C218.85 196.821 216.503 199.171 216.503 202.069C216.503 204.968 218.85 207.318 221.751 207.318Z" fill="url(#paint139_linear)"/>
<path d="M108.908 103.659C108.908 106.558 106.56 108.908 103.659 108.908C100.758 108.908 98.4104 106.558 98.4104 103.659C98.4104 100.76 100.758 98.4104 103.659 98.4104C106.56 98.4104 108.908 100.76 108.908 103.659Z" fill="url(#paint140_linear)"/>
<path d="M103.659 227C106.56 227 108.908 224.65 108.908 221.751C108.908 218.853 106.56 216.503 103.659 216.503C100.758 216.503 98.4104 218.853 98.4104 221.751C98.4104 224.65 100.758 227 103.659 227Z" fill="url(#paint141_linear)"/>
<path d="M227 103.659C227 106.558 224.652 108.908 221.751 108.908C218.85 108.908 216.503 106.558 216.503 103.659C216.503 100.76 218.85 98.4104 221.751 98.4104C224.652 98.4104 227 100.76 227 103.659Z" fill="url(#paint142_linear)"/>
<path d="M221.751 227C224.652 227 227 224.65 227 221.751C227 218.853 224.652 216.503 221.751 216.503C218.85 216.503 216.503 218.853 216.503 221.751C216.503 224.65 218.85 227 221.751 227Z" fill="url(#paint143_linear)"/>
<defs>
<linearGradient id="paint0_linear" x1="113.5" y1="0" x2="113.5" y2="227" gradientUnits="userSpaceOnUse">
<stop stop-color="#FFA5AD"/>
<stop offset="1" stop-color="#FEDCDF"/>
</linearGradient>
<linearGradient id="paint1_linear" x1="113.5" y1="0" x2="113.5" y2="227" gradientUnits="userSpaceOnUse">
<stop stop-color="#FFA5AD"/>
<stop offset="1" stop-color="#FEDCDF"/>
</linearGradient>
<linearGradient id="paint2_linear" x1="113.5" y1="0" x2="113.5" y2="227" gradientUnits="userSpaceOnUse">
<stop stop-color="#FFA5AD"/>
<stop offset="1" stop-color="#FEDCDF"/>
</linearGradient>
<linearGradient id="paint3_linear" x1="113.5" y1="0" x2="113.5" y2="227" gradientUnits="userSpaceOnUse">
<stop stop-color="#FFA5AD"/>
<stop offset="1" stop-color="#FEDCDF"/>
</linearGradient>
<linearGradient id="paint4_linear" x1="113.5" y1="0" x2="113.5" y2="227" gradientUnits="userSpaceOnUse">
<stop stop-color="#FFA5AD"/>
<stop offset="1" stop-color="#FEDCDF"/>
</linearGradient>
<linearGradient id="paint5_linear" x1="113.5" y1="0" x2="113.5" y2="227" gradientUnits="userSpaceOnUse">
<stop stop-color="#FFA5AD"/>
<stop offset="1" stop-color="#FEDCDF"/>
</linearGradient>
<linearGradient id="paint6_linear" x1="113.5" y1="0" x2="113.5" y2="227" gradientUnits="userSpaceOnUse">
<stop stop-color="#FFA5AD"/>
<stop offset="1" stop-color="#FEDCDF"/>
</linearGradient>
<linearGradient id="paint7_linear" x1="113.5" y1="0" x2="113.5" y2="227" gradientUnits="userSpaceOnUse">
<stop stop-color="#FFA5AD"/>
<stop offset="1" stop-color="#FEDCDF"/>
</linearGradient>
<linearGradient id="paint8_linear" x1="113.5" y1="0" x2="113.5" y2="227" gradientUnits="userSpaceOnUse">
<stop stop-color="#FFA5AD"/>
<stop offset="1" stop-color="#FEDCDF"/>
</linearGradient>
<linearGradient id="paint9_linear" x1="113.5" y1="0" x2="113.5" y2="227" gradientUnits="userSpaceOnUse">
<stop stop-color="#FFA5AD"/>
<stop offset="1" stop-color="#FEDCDF"/>
</linearGradient>
<linearGradient id="paint10_linear" x1="113.5" y1="0" x2="113.5" y2="227" gradientUnits="userSpaceOnUse">
<stop stop-color="#FFA5AD"/>
<stop offset="1" stop-color="#FEDCDF"/>
</linearGradient>
<linearGradient id="paint11_linear" x1="113.5" y1="0" x2="113.5" y2="227" gradientUnits="userSpaceOnUse">
<stop stop-color="#FFA5AD"/>
<stop offset="1" stop-color="#FEDCDF"/>
</linearGradient>
<linearGradient id="paint12_linear" x1="113.5" y1="0" x2="113.5" y2="227" gradientUnits="userSpaceOnUse">
<stop stop-color="#FFA5AD"/>
<stop offset="1" stop-color="#FEDCDF"/>
</linearGradient>
<linearGradient id="paint13_linear" x1="113.5" y1="0" x2="113.5" y2="227" gradientUnits="userSpaceOnUse">
<stop stop-color="#FFA5AD"/>
<stop offset="1" stop-color="#FEDCDF"/>
</linearGradient>
<linearGradient id="paint14_linear" x1="113.5" y1="0" x2="113.5" y2="227" gradientUnits="userSpaceOnUse">
<stop stop-color="#FFA5AD"/>
<stop offset="1" stop-color="#FEDCDF"/>
</linearGradient>
<linearGradient id="paint15_linear" x1="113.5" y1="0" x2="113.5" y2="227" gradientUnits="userSpaceOnUse">
<stop stop-color="#FFA5AD"/>
<stop offset="1" stop-color="#FEDCDF"/>
</linearGradient>
<linearGradient id="paint16_linear" x1="113.5" y1="0" x2="113.5" y2="227" gradientUnits="userSpaceOnUse">
<stop stop-color="#FFA5AD"/>
<stop offset="1" stop-color="#FEDCDF"/>
</linearGradient>
<linearGradient id="paint17_linear" x1="113.5" y1="0" x2="113.5" y2="227" gradientUnits="userSpaceOnUse">
<stop stop-color="#FFA5AD"/>
<stop offset="1" stop-color="#FEDCDF"/>
</linearGradient>
<linearGradient id="paint18_linear" x1="113.5" y1="0" x2="113.5" y2="227" gradientUnits="userSpaceOnUse">
<stop stop-color="#FFA5AD"/>
<stop offset="1" stop-color="#FEDCDF"/>
</linearGradient>
<linearGradient id="paint19_linear" x1="113.5" y1="0" x2="113.5" y2="227" gradientUnits="userSpaceOnUse">
<stop stop-color="#FFA5AD"/>
<stop offset="1" stop-color="#FEDCDF"/>
</linearGradient>
<linearGradient id="paint20_linear" x1="113.5" y1="0" x2="113.5" y2="227" gradientUnits="userSpaceOnUse">
<stop stop-color="#FFA5AD"/>
<stop offset="1" stop-color="#FEDCDF"/>
</linearGradient>
<linearGradient id="paint21_linear" x1="113.5" y1="0" x2="113.5" y2="227" gradientUnits="userSpaceOnUse">
<stop stop-color="#FFA5AD"/>
<stop offset="1" stop-color="#FEDCDF"/>
</linearGradient>
<linearGradient id="paint22_linear" x1="113.5" y1="0" x2="113.5" y2="227" gradientUnits="userSpaceOnUse">
<stop stop-color="#FFA5AD"/>
<stop offset="1" stop-color="#FEDCDF"/>
</linearGradient>
<linearGradient id="paint23_linear" x1="113.5" y1="0" x2="113.5" y2="227" gradientUnits="userSpaceOnUse">
<stop stop-color="#FFA5AD"/>
<stop offset="1" stop-color="#FEDCDF"/>
</linearGradient>
<linearGradient id="paint24_linear" x1="113.5" y1="0" x2="113.5" y2="227" gradientUnits="userSpaceOnUse">
<stop stop-color="#FFA5AD"/>
<stop offset="1" stop-color="#FEDCDF"/>
</linearGradient>
<linearGradient id="paint25_linear" x1="113.5" y1="0" x2="113.5" y2="227" gradientUnits="userSpaceOnUse">
<stop stop-color="#FFA5AD"/>
<stop offset="1" stop-color="#FEDCDF"/>
</linearGradient>
<linearGradient id="paint26_linear" x1="113.5" y1="0" x2="113.5" y2="227" gradientUnits="userSpaceOnUse">
<stop stop-color="#FFA5AD"/>
<stop offset="1" stop-color="#FEDCDF"/>
</linearGradient>
<linearGradient id="paint27_linear" x1="113.5" y1="0" x2="113.5" y2="227" gradientUnits="userSpaceOnUse">
<stop stop-color="#FFA5AD"/>
<stop offset="1" stop-color="#FEDCDF"/>
</linearGradient>
<linearGradient id="paint28_linear" x1="113.5" y1="0" x2="113.5" y2="227" gradientUnits="userSpaceOnUse">
<stop stop-color="#FFA5AD"/>
<stop offset="1" stop-color="#FEDCDF"/>
</linearGradient>
<linearGradient id="paint29_linear" x1="113.5" y1="0" x2="113.5" y2="227" gradientUnits="userSpaceOnUse">
<stop stop-color="#FFA5AD"/>
<stop offset="1" stop-color="#FEDCDF"/>
</linearGradient>
<linearGradient id="paint30_linear" x1="113.5" y1="0" x2="113.5" y2="227" gradientUnits="userSpaceOnUse">
<stop stop-color="#FFA5AD"/>
<stop offset="1" stop-color="#FEDCDF"/>
</linearGradient>
<linearGradient id="paint31_linear" x1="113.5" y1="0" x2="113.5" y2="227" gradientUnits="userSpaceOnUse">
<stop stop-color="#FFA5AD"/>
<stop offset="1" stop-color="#FEDCDF"/>
</linearGradient>
<linearGradient id="paint32_linear" x1="113.5" y1="0" x2="113.5" y2="227" gradientUnits="userSpaceOnUse">
<stop stop-color="#FFA5AD"/>
<stop offset="1" stop-color="#FEDCDF"/>
</linearGradient>
<linearGradient id="paint33_linear" x1="113.5" y1="0" x2="113.5" y2="227" gradientUnits="userSpaceOnUse">
<stop stop-color="#FFA5AD"/>
<stop offset="1" stop-color="#FEDCDF"/>
</linearGradient>
<linearGradient id="paint34_linear" x1="113.5" y1="0" x2="113.5" y2="227" gradientUnits="userSpaceOnUse">
<stop stop-color="#FFA5AD"/>
<stop offset="1" stop-color="#FEDCDF"/>
</linearGradient>
<linearGradient id="paint35_linear" x1="113.5" y1="0" x2="113.5" y2="227" gradientUnits="userSpaceOnUse">
<stop stop-color="#FFA5AD"/>
<stop offset="1" stop-color="#FEDCDF"/>
</linearGradient>
<linearGradient id="paint36_linear" x1="113.5" y1="0" x2="113.5" y2="227" gradientUnits="userSpaceOnUse">
<stop stop-color="#FFA5AD"/>
<stop offset="1" stop-color="#FEDCDF"/>
</linearGradient>
<linearGradient id="paint37_linear" x1="113.5" y1="0" x2="113.5" y2="227" gradientUnits="userSpaceOnUse">
<stop stop-color="#FFA5AD"/>
<stop offset="1" stop-color="#FEDCDF"/>
</linearGradient>
<linearGradient id="paint38_linear" x1="113.5" y1="0" x2="113.5" y2="227" gradientUnits="userSpaceOnUse">
<stop stop-color="#FFA5AD"/>
<stop offset="1" stop-color="#FEDCDF"/>
</linearGradient>
<linearGradient id="paint39_linear" x1="113.5" y1="0" x2="113.5" y2="227" gradientUnits="userSpaceOnUse">
<stop stop-color="#FFA5AD"/>
<stop offset="1" stop-color="#FEDCDF"/>
</linearGradient>
<linearGradient id="paint40_linear" x1="113.5" y1="0" x2="113.5" y2="227" gradientUnits="userSpaceOnUse">
<stop stop-color="#FFA5AD"/>
<stop offset="1" stop-color="#FEDCDF"/>
</linearGradient>
<linearGradient id="paint41_linear" x1="113.5" y1="0" x2="113.5" y2="227" gradientUnits="userSpaceOnUse">
<stop stop-color="#FFA5AD"/>
<stop offset="1" stop-color="#FEDCDF"/>
</linearGradient>
<linearGradient id="paint42_linear" x1="113.5" y1="0" x2="113.5" y2="227" gradientUnits="userSpaceOnUse">
<stop stop-color="#FFA5AD"/>
<stop offset="1" stop-color="#FEDCDF"/>
</linearGradient>
<linearGradient id="paint43_linear" x1="113.5" y1="0" x2="113.5" y2="227" gradientUnits="userSpaceOnUse">
<stop stop-color="#FFA5AD"/>
<stop offset="1" stop-color="#FEDCDF"/>
</linearGradient>
<linearGradient id="paint44_linear" x1="113.5" y1="0" x2="113.5" y2="227" gradientUnits="userSpaceOnUse">
<stop stop-color="#FFA5AD"/>
<stop offset="1" stop-color="#FEDCDF"/>
</linearGradient>
<linearGradient id="paint45_linear" x1="113.5" y1="0" x2="113.5" y2="227" gradientUnits="userSpaceOnUse">
<stop stop-color="#FFA5AD"/>
<stop offset="1" stop-color="#FEDCDF"/>
</linearGradient>
<linearGradient id="paint46_linear" x1="113.5" y1="0" x2="113.5" y2="227" gradientUnits="userSpaceOnUse">
<stop stop-color="#FFA5AD"/>
<stop offset="1" stop-color="#FEDCDF"/>
</linearGradient>
<linearGradient id="paint47_linear" x1="113.5" y1="0" x2="113.5" y2="227" gradientUnits="userSpaceOnUse">
<stop stop-color="#FFA5AD"/>
<stop offset="1" stop-color="#FEDCDF"/>
</linearGradient>
<linearGradient id="paint48_linear" x1="113.5" y1="0" x2="113.5" y2="227" gradientUnits="userSpaceOnUse">
<stop stop-color="#FFA5AD"/>
<stop offset="1" stop-color="#FEDCDF"/>
</linearGradient>
<linearGradient id="paint49_linear" x1="113.5" y1="0" x2="113.5" y2="227" gradientUnits="userSpaceOnUse">
<stop stop-color="#FFA5AD"/>
<stop offset="1" stop-color="#FEDCDF"/>
</linearGradient>
<linearGradient id="paint50_linear" x1="113.5" y1="0" x2="113.5" y2="227" gradientUnits="userSpaceOnUse">
<stop stop-color="#FFA5AD"/>
<stop offset="1" stop-color="#FEDCDF"/>
</linearGradient>
<linearGradient id="paint51_linear" x1="113.5" y1="0" x2="113.5" y2="227" gradientUnits="userSpaceOnUse">
<stop stop-color="#FFA5AD"/>
<stop offset="1" stop-color="#FEDCDF"/>
</linearGradient>
<linearGradient id="paint52_linear" x1="113.5" y1="0" x2="113.5" y2="227" gradientUnits="userSpaceOnUse">
<stop stop-color="#FFA5AD"/>
<stop offset="1" stop-color="#FEDCDF"/>
</linearGradient>
<linearGradient id="paint53_linear" x1="113.5" y1="0" x2="113.5" y2="227" gradientUnits="userSpaceOnUse">
<stop stop-color="#FFA5AD"/>
<stop offset="1" stop-color="#FEDCDF"/>
</linearGradient>
<linearGradient id="paint54_linear" x1="113.5" y1="0" x2="113.5" y2="227" gradientUnits="userSpaceOnUse">
<stop stop-color="#FFA5AD"/>
<stop offset="1" stop-color="#FEDCDF"/>
</linearGradient>
<linearGradient id="paint55_linear" x1="113.5" y1="0" x2="113.5" y2="227" gradientUnits="userSpaceOnUse">
<stop stop-color="#FFA5AD"/>
<stop offset="1" stop-color="#FEDCDF"/>
</linearGradient>
<linearGradient id="paint56_linear" x1="113.5" y1="0" x2="113.5" y2="227" gradientUnits="userSpaceOnUse">
<stop stop-color="#FFA5AD"/>
<stop offset="1" stop-color="#FEDCDF"/>
</linearGradient>
<linearGradient id="paint57_linear" x1="113.5" y1="0" x2="113.5" y2="227" gradientUnits="userSpaceOnUse">
<stop stop-color="#FFA5AD"/>
<stop offset="1" stop-color="#FEDCDF"/>
</linearGradient>
<linearGradient id="paint58_linear" x1="113.5" y1="0" x2="113.5" y2="227" gradientUnits="userSpaceOnUse">
<stop stop-color="#FFA5AD"/>
<stop offset="1" stop-color="#FEDCDF"/>
</linearGradient>
<linearGradient id="paint59_linear" x1="113.5" y1="0" x2="113.5" y2="227" gradientUnits="userSpaceOnUse">
<stop stop-color="#FFA5AD"/>
<stop offset="1" stop-color="#FEDCDF"/>
</linearGradient>
<linearGradient id="paint60_linear" x1="113.5" y1="0" x2="113.5" y2="227" gradientUnits="userSpaceOnUse">
<stop stop-color="#FFA5AD"/>
<stop offset="1" stop-color="#FEDCDF"/>
</linearGradient>
<linearGradient id="paint61_linear" x1="113.5" y1="0" x2="113.5" y2="227" gradientUnits="userSpaceOnUse">
<stop stop-color="#FFA5AD"/>
<stop offset="1" stop-color="#FEDCDF"/>
</linearGradient>
<linearGradient id="paint62_linear" x1="113.5" y1="0" x2="113.5" y2="227" gradientUnits="userSpaceOnUse">
<stop stop-color="#FFA5AD"/>
<stop offset="1" stop-color="#FEDCDF"/>
</linearGradient>
<linearGradient id="paint63_linear" x1="113.5" y1="0" x2="113.5" y2="227" gradientUnits="userSpaceOnUse">
<stop stop-color="#FFA5AD"/>
<stop offset="1" stop-color="#FEDCDF"/>
</linearGradient>
<linearGradient id="paint64_linear" x1="113.5" y1="0" x2="113.5" y2="227" gradientUnits="userSpaceOnUse">
<stop stop-color="#FFA5AD"/>
<stop offset="1" stop-color="#FEDCDF"/>
</linearGradient>
<linearGradient id="paint65_linear" x1="113.5" y1="0" x2="113.5" y2="227" gradientUnits="userSpaceOnUse">
<stop stop-color="#FFA5AD"/>
<stop offset="1" stop-color="#FEDCDF"/>
</linearGradient>
<linearGradient id="paint66_linear" x1="113.5" y1="0" x2="113.5" y2="227" gradientUnits="userSpaceOnUse">
<stop stop-color="#FFA5AD"/>
<stop offset="1" stop-color="#FEDCDF"/>
</linearGradient>
<linearGradient id="paint67_linear" x1="113.5" y1="0" x2="113.5" y2="227" gradientUnits="userSpaceOnUse">
<stop stop-color="#FFA5AD"/>
<stop offset="1" stop-color="#FEDCDF"/>
</linearGradient>
<linearGradient id="paint68_linear" x1="113.5" y1="0" x2="113.5" y2="227" gradientUnits="userSpaceOnUse">
<stop stop-color="#FFA5AD"/>
<stop offset="1" stop-color="#FEDCDF"/>
</linearGradient>
<linearGradient id="paint69_linear" x1="113.5" y1="0" x2="113.5" y2="227" gradientUnits="userSpaceOnUse">
<stop stop-color="#FFA5AD"/>
<stop offset="1" stop-color="#FEDCDF"/>
</linearGradient>
<linearGradient id="paint70_linear" x1="113.5" y1="0" x2="113.5" y2="227" gradientUnits="userSpaceOnUse">
<stop stop-color="#FFA5AD"/>
<stop offset="1" stop-color="#FEDCDF"/>
</linearGradient>
<linearGradient id="paint71_linear" x1="113.5" y1="0" x2="113.5" y2="227" gradientUnits="userSpaceOnUse">
<stop stop-color="#FFA5AD"/>
<stop offset="1" stop-color="#FEDCDF"/>
</linearGradient>
<linearGradient id="paint72_linear" x1="113.5" y1="0" x2="113.5" y2="227" gradientUnits="userSpaceOnUse">
<stop stop-color="#FFA5AD"/>
<stop offset="1" stop-color="#FEDCDF"/>
</linearGradient>
<linearGradient id="paint73_linear" x1="113.5" y1="0" x2="113.5" y2="227" gradientUnits="userSpaceOnUse">
<stop stop-color="#FFA5AD"/>
<stop offset="1" stop-color="#FEDCDF"/>
</linearGradient>
<linearGradient id="paint74_linear" x1="113.5" y1="0" x2="113.5" y2="227" gradientUnits="userSpaceOnUse">
<stop stop-color="#FFA5AD"/>
<stop offset="1" stop-color="#FEDCDF"/>
</linearGradient>
<linearGradient id="paint75_linear" x1="113.5" y1="0" x2="113.5" y2="227" gradientUnits="userSpaceOnUse">
<stop stop-color="#FFA5AD"/>
<stop offset="1" stop-color="#FEDCDF"/>
</linearGradient>
<linearGradient id="paint76_linear" x1="113.5" y1="0" x2="113.5" y2="227" gradientUnits="userSpaceOnUse">
<stop stop-color="#FFA5AD"/>
<stop offset="1" stop-color="#FEDCDF"/>
</linearGradient>
<linearGradient id="paint77_linear" x1="113.5" y1="0" x2="113.5" y2="227" gradientUnits="userSpaceOnUse">
<stop stop-color="#FFA5AD"/>
<stop offset="1" stop-color="#FEDCDF"/>
</linearGradient>
<linearGradient id="paint78_linear" x1="113.5" y1="0" x2="113.5" y2="227" gradientUnits="userSpaceOnUse">
<stop stop-color="#FFA5AD"/>
<stop offset="1" stop-color="#FEDCDF"/>
</linearGradient>
<linearGradient id="paint79_linear" x1="113.5" y1="0" x2="113.5" y2="227" gradientUnits="userSpaceOnUse">
<stop stop-color="#FFA5AD"/>
<stop offset="1" stop-color="#FEDCDF"/>
</linearGradient>
<linearGradient id="paint80_linear" x1="113.5" y1="0" x2="113.5" y2="227" gradientUnits="userSpaceOnUse">
<stop stop-color="#FFA5AD"/>
<stop offset="1" stop-color="#FEDCDF"/>
</linearGradient>
<linearGradient id="paint81_linear" x1="113.5" y1="0" x2="113.5" y2="227" gradientUnits="userSpaceOnUse">
<stop stop-color="#FFA5AD"/>
<stop offset="1" stop-color="#FEDCDF"/>
</linearGradient>
<linearGradient id="paint82_linear" x1="113.5" y1="0" x2="113.5" y2="227" gradientUnits="userSpaceOnUse">
<stop stop-color="#FFA5AD"/>
<stop offset="1" stop-color="#FEDCDF"/>
</linearGradient>
<linearGradient id="paint83_linear" x1="113.5" y1="0" x2="113.5" y2="227" gradientUnits="userSpaceOnUse">
<stop stop-color="#FFA5AD"/>
<stop offset="1" stop-color="#FEDCDF"/>
</linearGradient>
<linearGradient id="paint84_linear" x1="113.5" y1="0" x2="113.5" y2="227" gradientUnits="userSpaceOnUse">
<stop stop-color="#FFA5AD"/>
<stop offset="1" stop-color="#FEDCDF"/>
</linearGradient>
<linearGradient id="paint85_linear" x1="113.5" y1="0" x2="113.5" y2="227" gradientUnits="userSpaceOnUse">
<stop stop-color="#FFA5AD"/>
<stop offset="1" stop-color="#FEDCDF"/>
</linearGradient>
<linearGradient id="paint86_linear" x1="113.5" y1="0" x2="113.5" y2="227" gradientUnits="userSpaceOnUse">
<stop stop-color="#FFA5AD"/>
<stop offset="1" stop-color="#FEDCDF"/>
</linearGradient>
<linearGradient id="paint87_linear" x1="113.5" y1="0" x2="113.5" y2="227" gradientUnits="userSpaceOnUse">
<stop stop-color="#FFA5AD"/>
<stop offset="1" stop-color="#FEDCDF"/>
</linearGradient>
<linearGradient id="paint88_linear" x1="113.5" y1="0" x2="113.5" y2="227" gradientUnits="userSpaceOnUse">
<stop stop-color="#FFA5AD"/>
<stop offset="1" stop-color="#FEDCDF"/>
</linearGradient>
<linearGradient id="paint89_linear" x1="113.5" y1="0" x2="113.5" y2="227" gradientUnits="userSpaceOnUse">
<stop stop-color="#FFA5AD"/>
<stop offset="1" stop-color="#FEDCDF"/>
</linearGradient>
<linearGradient id="paint90_linear" x1="113.5" y1="0" x2="113.5" y2="227" gradientUnits="userSpaceOnUse">
<stop stop-color="#FFA5AD"/>
<stop offset="1" stop-color="#FEDCDF"/>
</linearGradient>
<linearGradient id="paint91_linear" x1="113.5" y1="0" x2="113.5" y2="227" gradientUnits="userSpaceOnUse">
<stop stop-color="#FFA5AD"/>
<stop offset="1" stop-color="#FEDCDF"/>
</linearGradient>
<linearGradient id="paint92_linear" x1="113.5" y1="0" x2="113.5" y2="227" gradientUnits="userSpaceOnUse">
<stop stop-color="#FFA5AD"/>
<stop offset="1" stop-color="#FEDCDF"/>
</linearGradient>
<linearGradient id="paint93_linear" x1="113.5" y1="0" x2="113.5" y2="227" gradientUnits="userSpaceOnUse">
<stop stop-color="#FFA5AD"/>
<stop offset="1" stop-color="#FEDCDF"/>
</linearGradient>
<linearGradient id="paint94_linear" x1="113.5" y1="0" x2="113.5" y2="227" gradientUnits="userSpaceOnUse">
<stop stop-color="#FFA5AD"/>
<stop offset="1" stop-color="#FEDCDF"/>
</linearGradient>
<linearGradient id="paint95_linear" x1="113.5" y1="0" x2="113.5" y2="227" gradientUnits="userSpaceOnUse">
<stop stop-color="#FFA5AD"/>
<stop offset="1" stop-color="#FEDCDF"/>
</linearGradient>
<linearGradient id="paint96_linear" x1="113.5" y1="0" x2="113.5" y2="227" gradientUnits="userSpaceOnUse">
<stop stop-color="#FFA5AD"/>
<stop offset="1" stop-color="#FEDCDF"/>
</linearGradient>
<linearGradient id="paint97_linear" x1="113.5" y1="0" x2="113.5" y2="227" gradientUnits="userSpaceOnUse">
<stop stop-color="#FFA5AD"/>
<stop offset="1" stop-color="#FEDCDF"/>
</linearGradient>
<linearGradient id="paint98_linear" x1="113.5" y1="0" x2="113.5" y2="227" gradientUnits="userSpaceOnUse">
<stop stop-color="#FFA5AD"/>
<stop offset="1" stop-color="#FEDCDF"/>
</linearGradient>
<linearGradient id="paint99_linear" x1="113.5" y1="0" x2="113.5" y2="227" gradientUnits="userSpaceOnUse">
<stop stop-color="#FFA5AD"/>
<stop offset="1" stop-color="#FEDCDF"/>
</linearGradient>
<linearGradient id="paint100_linear" x1="113.5" y1="0" x2="113.5" y2="227" gradientUnits="userSpaceOnUse">
<stop stop-color="#FFA5AD"/>
<stop offset="1" stop-color="#FEDCDF"/>
</linearGradient>
<linearGradient id="paint101_linear" x1="113.5" y1="0" x2="113.5" y2="227" gradientUnits="userSpaceOnUse">
<stop stop-color="#FFA5AD"/>
<stop offset="1" stop-color="#FEDCDF"/>
</linearGradient>
<linearGradient id="paint102_linear" x1="113.5" y1="0" x2="113.5" y2="227" gradientUnits="userSpaceOnUse">
<stop stop-color="#FFA5AD"/>
<stop offset="1" stop-color="#FEDCDF"/>
</linearGradient>
<linearGradient id="paint103_linear" x1="113.5" y1="0" x2="113.5" y2="227" gradientUnits="userSpaceOnUse">
<stop stop-color="#FFA5AD"/>
<stop offset="1" stop-color="#FEDCDF"/>
</linearGradient>
<linearGradient id="paint104_linear" x1="113.5" y1="0" x2="113.5" y2="227" gradientUnits="userSpaceOnUse">
<stop stop-color="#FFA5AD"/>
<stop offset="1" stop-color="#FEDCDF"/>
</linearGradient>
<linearGradient id="paint105_linear" x1="113.5" y1="0" x2="113.5" y2="227" gradientUnits="userSpaceOnUse">
<stop stop-color="#FFA5AD"/>
<stop offset="1" stop-color="#FEDCDF"/>
</linearGradient>
<linearGradient id="paint106_linear" x1="113.5" y1="0" x2="113.5" y2="227" gradientUnits="userSpaceOnUse">
<stop stop-color="#FFA5AD"/>
<stop offset="1" stop-color="#FEDCDF"/>
</linearGradient>
<linearGradient id="paint107_linear" x1="113.5" y1="0" x2="113.5" y2="227" gradientUnits="userSpaceOnUse">
<stop stop-color="#FFA5AD"/>
<stop offset="1" stop-color="#FEDCDF"/>
</linearGradient>
<linearGradient id="paint108_linear" x1="113.5" y1="0" x2="113.5" y2="227" gradientUnits="userSpaceOnUse">
<stop stop-color="#FFA5AD"/>
<stop offset="1" stop-color="#FEDCDF"/>
</linearGradient>
<linearGradient id="paint109_linear" x1="113.5" y1="0" x2="113.5" y2="227" gradientUnits="userSpaceOnUse">
<stop stop-color="#FFA5AD"/>
<stop offset="1" stop-color="#FEDCDF"/>
</linearGradient>
<linearGradient id="paint110_linear" x1="113.5" y1="0" x2="113.5" y2="227" gradientUnits="userSpaceOnUse">
<stop stop-color="#FFA5AD"/>
<stop offset="1" stop-color="#FEDCDF"/>
</linearGradient>
<linearGradient id="paint111_linear" x1="113.5" y1="0" x2="113.5" y2="227" gradientUnits="userSpaceOnUse">
<stop stop-color="#FFA5AD"/>
<stop offset="1" stop-color="#FEDCDF"/>
</linearGradient>
<linearGradient id="paint112_linear" x1="113.5" y1="0" x2="113.5" y2="227" gradientUnits="userSpaceOnUse">
<stop stop-color="#FFA5AD"/>
<stop offset="1" stop-color="#FEDCDF"/>
</linearGradient>
<linearGradient id="paint113_linear" x1="113.5" y1="0" x2="113.5" y2="227" gradientUnits="userSpaceOnUse">
<stop stop-color="#FFA5AD"/>
<stop offset="1" stop-color="#FEDCDF"/>
</linearGradient>
<linearGradient id="paint114_linear" x1="113.5" y1="0" x2="113.5" y2="227" gradientUnits="userSpaceOnUse">
<stop stop-color="#FFA5AD"/>
<stop offset="1" stop-color="#FEDCDF"/>
</linearGradient>
<linearGradient id="paint115_linear" x1="113.5" y1="0" x2="113.5" y2="227" gradientUnits="userSpaceOnUse">
<stop stop-color="#FFA5AD"/>
<stop offset="1" stop-color="#FEDCDF"/>
</linearGradient>
<linearGradient id="paint116_linear" x1="113.5" y1="0" x2="113.5" y2="227" gradientUnits="userSpaceOnUse">
<stop stop-color="#FFA5AD"/>
<stop offset="1" stop-color="#FEDCDF"/>
</linearGradient>
<linearGradient id="paint117_linear" x1="113.5" y1="0" x2="113.5" y2="227" gradientUnits="userSpaceOnUse">
<stop stop-color="#FFA5AD"/>
<stop offset="1" stop-color="#FEDCDF"/>
</linearGradient>
<linearGradient id="paint118_linear" x1="113.5" y1="0" x2="113.5" y2="227" gradientUnits="userSpaceOnUse">
<stop stop-color="#FFA5AD"/>
<stop offset="1" stop-color="#FEDCDF"/>
</linearGradient>
<linearGradient id="paint119_linear" x1="113.5" y1="0" x2="113.5" y2="227" gradientUnits="userSpaceOnUse">
<stop stop-color="#FFA5AD"/>
<stop offset="1" stop-color="#FEDCDF"/>
</linearGradient>
<linearGradient id="paint120_linear" x1="113.5" y1="0" x2="113.5" y2="227" gradientUnits="userSpaceOnUse">
<stop stop-color="#FFA5AD"/>
<stop offset="1" stop-color="#FEDCDF"/>
</linearGradient>
<linearGradient id="paint121_linear" x1="113.5" y1="0" x2="113.5" y2="227" gradientUnits="userSpaceOnUse">
<stop stop-color="#FFA5AD"/>
<stop offset="1" stop-color="#FEDCDF"/>
</linearGradient>
<linearGradient id="paint122_linear" x1="113.5" y1="0" x2="113.5" y2="227" gradientUnits="userSpaceOnUse">
<stop stop-color="#FFA5AD"/>
<stop offset="1" stop-color="#FEDCDF"/>
</linearGradient>
<linearGradient id="paint123_linear" x1="113.5" y1="0" x2="113.5" y2="227" gradientUnits="userSpaceOnUse">
<stop stop-color="#FFA5AD"/>
<stop offset="1" stop-color="#FEDCDF"/>
</linearGradient>
<linearGradient id="paint124_linear" x1="113.5" y1="0" x2="113.5" y2="227" gradientUnits="userSpaceOnUse">
<stop stop-color="#FFA5AD"/>
<stop offset="1" stop-color="#FEDCDF"/>
</linearGradient>
<linearGradient id="paint125_linear" x1="113.5" y1="0" x2="113.5" y2="227" gradientUnits="userSpaceOnUse">
<stop stop-color="#FFA5AD"/>
<stop offset="1" stop-color="#FEDCDF"/>
</linearGradient>
<linearGradient id="paint126_linear" x1="113.5" y1="0" x2="113.5" y2="227" gradientUnits="userSpaceOnUse">
<stop stop-color="#FFA5AD"/>
<stop offset="1" stop-color="#FEDCDF"/>
</linearGradient>
<linearGradient id="paint127_linear" x1="113.5" y1="0" x2="113.5" y2="227" gradientUnits="userSpaceOnUse">
<stop stop-color="#FFA5AD"/>
<stop offset="1" stop-color="#FEDCDF"/>
</linearGradient>
<linearGradient id="paint128_linear" x1="113.5" y1="0" x2="113.5" y2="227" gradientUnits="userSpaceOnUse">
<stop stop-color="#FFA5AD"/>
<stop offset="1" stop-color="#FEDCDF"/>
</linearGradient>
<linearGradient id="paint129_linear" x1="113.5" y1="0" x2="113.5" y2="227" gradientUnits="userSpaceOnUse">
<stop stop-color="#FFA5AD"/>
<stop offset="1" stop-color="#FEDCDF"/>
</linearGradient>
<linearGradient id="paint130_linear" x1="113.5" y1="0" x2="113.5" y2="227" gradientUnits="userSpaceOnUse">
<stop stop-color="#FFA5AD"/>
<stop offset="1" stop-color="#FEDCDF"/>
</linearGradient>
<linearGradient id="paint131_linear" x1="113.5" y1="0" x2="113.5" y2="227" gradientUnits="userSpaceOnUse">
<stop stop-color="#FFA5AD"/>
<stop offset="1" stop-color="#FEDCDF"/>
</linearGradient>
<linearGradient id="paint132_linear" x1="113.5" y1="0" x2="113.5" y2="227" gradientUnits="userSpaceOnUse">
<stop stop-color="#FFA5AD"/>
<stop offset="1" stop-color="#FEDCDF"/>
</linearGradient>
<linearGradient id="paint133_linear" x1="113.5" y1="0" x2="113.5" y2="227" gradientUnits="userSpaceOnUse">
<stop stop-color="#FFA5AD"/>
<stop offset="1" stop-color="#FEDCDF"/>
</linearGradient>
<linearGradient id="paint134_linear" x1="113.5" y1="0" x2="113.5" y2="227" gradientUnits="userSpaceOnUse">
<stop stop-color="#FFA5AD"/>
<stop offset="1" stop-color="#FEDCDF"/>
</linearGradient>
<linearGradient id="paint135_linear" x1="113.5" y1="0" x2="113.5" y2="227" gradientUnits="userSpaceOnUse">
<stop stop-color="#FFA5AD"/>
<stop offset="1" stop-color="#FEDCDF"/>
</linearGradient>
<linearGradient id="paint136_linear" x1="113.5" y1="0" x2="113.5" y2="227" gradientUnits="userSpaceOnUse">
<stop stop-color="#FFA5AD"/>
<stop offset="1" stop-color="#FEDCDF"/>
</linearGradient>
<linearGradient id="paint137_linear" x1="113.5" y1="0" x2="113.5" y2="227" gradientUnits="userSpaceOnUse">
<stop stop-color="#FFA5AD"/>
<stop offset="1" stop-color="#FEDCDF"/>
</linearGradient>
<linearGradient id="paint138_linear" x1="113.5" y1="0" x2="113.5" y2="227" gradientUnits="userSpaceOnUse">
<stop stop-color="#FFA5AD"/>
<stop offset="1" stop-color="#FEDCDF"/>
</linearGradient>
<linearGradient id="paint139_linear" x1="113.5" y1="0" x2="113.5" y2="227" gradientUnits="userSpaceOnUse">
<stop stop-color="#FFA5AD"/>
<stop offset="1" stop-color="#FEDCDF"/>
</linearGradient>
<linearGradient id="paint140_linear" x1="113.5" y1="0" x2="113.5" y2="227" gradientUnits="userSpaceOnUse">
<stop stop-color="#FFA5AD"/>
<stop offset="1" stop-color="#FEDCDF"/>
</linearGradient>
<linearGradient id="paint141_linear" x1="113.5" y1="0" x2="113.5" y2="227" gradientUnits="userSpaceOnUse">
<stop stop-color="#FFA5AD"/>
<stop offset="1" stop-color="#FEDCDF"/>
</linearGradient>
<linearGradient id="paint142_linear" x1="113.5" y1="0" x2="113.5" y2="227" gradientUnits="userSpaceOnUse">
<stop stop-color="#FFA5AD"/>
<stop offset="1" stop-color="#FEDCDF"/>
</linearGradient>
<linearGradient id="paint143_linear" x1="113.5" y1="0" x2="113.5" y2="227" gradientUnits="userSpaceOnUse">
<stop stop-color="#FFA5AD"/>
<stop offset="1" stop-color="#FEDCDF"/>
</linearGradient>
</defs>
</svg>
