<svg width="173" height="174" viewBox="0 0 173 174" fill="none" xmlns="http://www.w3.org/2000/svg">
<path d="M4 8.03516C6.21094 8.03516 8 6.24426 8 4.03516C8 1.82605 6.21094 0.0351562 4 0.0351562C1.78906 0.0351562 0 1.82605 0 4.03516C0 6.24426 1.78906 8.03516 4 8.03516Z" fill="url(#paint0_linear)"/>
<path d="M4 98.0352C6.21094 98.0352 8 96.2444 8 94.0352C8 91.8259 6.21094 90.0352 4 90.0352C1.78906 90.0352 0 91.8259 0 94.0352C0 96.2444 1.78906 98.0352 4 98.0352Z" fill="url(#paint1_linear)"/>
<path d="M98 4.03516C98 6.24426 96.2109 8.03516 94 8.03516C91.7891 8.03516 90 6.24426 90 4.03516C90 1.82605 91.7891 0.0351562 94 0.0351562C96.2109 0.0351562 98 1.82605 98 4.03516Z" fill="url(#paint2_linear)"/>
<path d="M94 98.0352C96.2109 98.0352 98 96.2444 98 94.0352C98 91.8259 96.2109 90.0352 94 90.0352C91.7891 90.0352 90 91.8259 90 94.0352C90 96.2444 91.7891 98.0352 94 98.0352Z" fill="url(#paint3_linear)"/>
<path d="M8 19.0352C8 21.2443 6.21094 23.0352 4 23.0352C1.78906 23.0352 0 21.2443 0 19.0352C0 16.826 1.78906 15.0352 4 15.0352C6.21094 15.0352 8 16.826 8 19.0352Z" fill="url(#paint4_linear)"/>
<path d="M4 113.035C6.21094 113.035 8 111.244 8 109.035C8 106.826 6.21094 105.035 4 105.035C1.78906 105.035 0 106.826 0 109.035C0 111.244 1.78906 113.035 4 113.035Z" fill="url(#paint5_linear)"/>
<path d="M98 19.0352C98 21.2443 96.2109 23.0352 94 23.0352C91.7891 23.0352 90 21.2443 90 19.0352C90 16.826 91.7891 15.0352 94 15.0352C96.2109 15.0352 98 16.826 98 19.0352Z" fill="url(#paint6_linear)"/>
<path d="M94 113.035C96.2109 113.035 98 111.244 98 109.035C98 106.826 96.2109 105.035 94 105.035C91.7891 105.035 90 106.826 90 109.035C90 111.244 91.7891 113.035 94 113.035Z" fill="url(#paint7_linear)"/>
<path d="M8 34.0352C8 36.2443 6.21094 38.0352 4 38.0352C1.78906 38.0352 0 36.2443 0 34.0352C0 31.826 1.78906 30.0352 4 30.0352C6.21094 30.0352 8 31.826 8 34.0352Z" fill="url(#paint8_linear)"/>
<path d="M4 128.035C6.21094 128.035 8 126.244 8 124.035C8 121.826 6.21094 120.035 4 120.035C1.78906 120.035 0 121.826 0 124.035C0 126.244 1.78906 128.035 4 128.035Z" fill="url(#paint9_linear)"/>
<path d="M98 34.0352C98 36.2443 96.2109 38.0352 94 38.0352C91.7891 38.0352 90 36.2443 90 34.0352C90 31.826 91.7891 30.0352 94 30.0352C96.2109 30.0352 98 31.826 98 34.0352Z" fill="url(#paint10_linear)"/>
<path d="M94 128.035C96.2109 128.035 98 126.244 98 124.035C98 121.826 96.2109 120.035 94 120.035C91.7891 120.035 90 121.826 90 124.035C90 126.244 91.7891 128.035 94 128.035Z" fill="url(#paint11_linear)"/>
<path d="M8 49.0352C8 51.2443 6.21094 53.0352 4 53.0352C1.78906 53.0352 0 51.2443 0 49.0352C0 46.826 1.78906 45.0352 4 45.0352C6.21094 45.0352 8 46.826 8 49.0352Z" fill="url(#paint12_linear)"/>
<path d="M4 143.035C6.21094 143.035 8 141.244 8 139.035C8 136.826 6.21094 135.035 4 135.035C1.78906 135.035 0 136.826 0 139.035C0 141.244 1.78906 143.035 4 143.035Z" fill="url(#paint13_linear)"/>
<path d="M98 49.0352C98 51.2443 96.2109 53.0352 94 53.0352C91.7891 53.0352 90 51.2443 90 49.0352C90 46.826 91.7891 45.0352 94 45.0352C96.2109 45.0352 98 46.826 98 49.0352Z" fill="url(#paint14_linear)"/>
<path d="M94 143.035C96.2109 143.035 98 141.244 98 139.035C98 136.826 96.2109 135.035 94 135.035C91.7891 135.035 90 136.826 90 139.035C90 141.244 91.7891 143.035 94 143.035Z" fill="url(#paint15_linear)"/>
<path d="M8 64.0352C8 66.2444 6.21094 68.0352 4 68.0352C1.78906 68.0352 0 66.2444 0 64.0352C0 61.8259 1.78906 60.0352 4 60.0352C6.21094 60.0352 8 61.8259 8 64.0352Z" fill="url(#paint16_linear)"/>
<path d="M4 158.035C6.21094 158.035 8 156.244 8 154.035C8 151.826 6.21094 150.035 4 150.035C1.78906 150.035 0 151.826 0 154.035C0 156.244 1.78906 158.035 4 158.035Z" fill="url(#paint17_linear)"/>
<path d="M98 64.0352C98 66.2444 96.2109 68.0352 94 68.0352C91.7891 68.0352 90 66.2444 90 64.0352C90 61.8259 91.7891 60.0352 94 60.0352C96.2109 60.0352 98 61.8259 98 64.0352Z" fill="url(#paint18_linear)"/>
<path d="M94 158.035C96.2109 158.035 98 156.244 98 154.035C98 151.826 96.2109 150.035 94 150.035C91.7891 150.035 90 151.826 90 154.035C90 156.244 91.7891 158.035 94 158.035Z" fill="url(#paint19_linear)"/>
<path d="M8 79.0352C8 81.2444 6.21094 83.0352 4 83.0352C1.78906 83.0352 0 81.2444 0 79.0352C0 76.8259 1.78906 75.0352 4 75.0352C6.21094 75.0352 8 76.8259 8 79.0352Z" fill="url(#paint20_linear)"/>
<path d="M4 173.035C6.21094 173.035 8 171.244 8 169.035C8 166.826 6.21094 165.035 4 165.035C1.78906 165.035 0 166.826 0 169.035C0 171.244 1.78906 173.035 4 173.035Z" fill="url(#paint21_linear)"/>
<path d="M98 79.0352C98 81.2444 96.2109 83.0352 94 83.0352C91.7891 83.0352 90 81.2444 90 79.0352C90 76.8259 91.7891 75.0352 94 75.0352C96.2109 75.0352 98 76.8259 98 79.0352Z" fill="url(#paint22_linear)"/>
<path d="M94 173.035C96.2109 173.035 98 171.244 98 169.035C98 166.826 96.2109 165.035 94 165.035C91.7891 165.035 90 166.826 90 169.035C90 171.244 91.7891 173.035 94 173.035Z" fill="url(#paint23_linear)"/>
<path d="M23 4.03516C23 6.24426 21.2109 8.03516 19 8.03516C16.7891 8.03516 15 6.24426 15 4.03516C15 1.82605 16.7891 0.0351562 19 0.0351562C21.2109 0.0351562 23 1.82605 23 4.03516Z" fill="url(#paint24_linear)"/>
<path d="M19 98.0352C21.2109 98.0352 23 96.2444 23 94.0352C23 91.8259 21.2109 90.0352 19 90.0352C16.7891 90.0352 15 91.8259 15 94.0352C15 96.2444 16.7891 98.0352 19 98.0352Z" fill="url(#paint25_linear)"/>
<path d="M113 4.03516C113 6.24426 111.211 8.03516 109 8.03516C106.789 8.03516 105 6.24426 105 4.03516C105 1.82605 106.789 0.0351562 109 0.0351562C111.211 0.0351562 113 1.82605 113 4.03516Z" fill="url(#paint26_linear)"/>
<path d="M109 98.0352C111.211 98.0352 113 96.2444 113 94.0352C113 91.8259 111.211 90.0352 109 90.0352C106.789 90.0352 105 91.8259 105 94.0352C105 96.2444 106.789 98.0352 109 98.0352Z" fill="url(#paint27_linear)"/>
<path d="M23 19.0352C23 21.2443 21.2109 23.0352 19 23.0352C16.7891 23.0352 15 21.2443 15 19.0352C15 16.826 16.7891 15.0352 19 15.0352C21.2109 15.0352 23 16.826 23 19.0352Z" fill="url(#paint28_linear)"/>
<path d="M19 113.035C21.2109 113.035 23 111.244 23 109.035C23 106.826 21.2109 105.035 19 105.035C16.7891 105.035 15 106.826 15 109.035C15 111.244 16.7891 113.035 19 113.035Z" fill="url(#paint29_linear)"/>
<path d="M113 19.0352C113 21.2443 111.211 23.0352 109 23.0352C106.789 23.0352 105 21.2443 105 19.0352C105 16.826 106.789 15.0352 109 15.0352C111.211 15.0352 113 16.826 113 19.0352Z" fill="url(#paint30_linear)"/>
<path d="M109 113.035C111.211 113.035 113 111.244 113 109.035C113 106.826 111.211 105.035 109 105.035C106.789 105.035 105 106.826 105 109.035C105 111.244 106.789 113.035 109 113.035Z" fill="url(#paint31_linear)"/>
<path d="M23 34.0352C23 36.2443 21.2109 38.0352 19 38.0352C16.7891 38.0352 15 36.2443 15 34.0352C15 31.826 16.7891 30.0352 19 30.0352C21.2109 30.0352 23 31.826 23 34.0352Z" fill="url(#paint32_linear)"/>
<path d="M19 128.035C21.2109 128.035 23 126.244 23 124.035C23 121.826 21.2109 120.035 19 120.035C16.7891 120.035 15 121.826 15 124.035C15 126.244 16.7891 128.035 19 128.035Z" fill="url(#paint33_linear)"/>
<path d="M113 34.0352C113 36.2443 111.211 38.0352 109 38.0352C106.789 38.0352 105 36.2443 105 34.0352C105 31.826 106.789 30.0352 109 30.0352C111.211 30.0352 113 31.826 113 34.0352Z" fill="url(#paint34_linear)"/>
<path d="M109 128.035C111.211 128.035 113 126.244 113 124.035C113 121.826 111.211 120.035 109 120.035C106.789 120.035 105 121.826 105 124.035C105 126.244 106.789 128.035 109 128.035Z" fill="url(#paint35_linear)"/>
<path d="M23 49.0352C23 51.2443 21.2109 53.0352 19 53.0352C16.7891 53.0352 15 51.2443 15 49.0352C15 46.826 16.7891 45.0352 19 45.0352C21.2109 45.0352 23 46.826 23 49.0352Z" fill="url(#paint36_linear)"/>
<path d="M19 143.035C21.2109 143.035 23 141.244 23 139.035C23 136.826 21.2109 135.035 19 135.035C16.7891 135.035 15 136.826 15 139.035C15 141.244 16.7891 143.035 19 143.035Z" fill="url(#paint37_linear)"/>
<path d="M113 49.0352C113 51.2443 111.211 53.0352 109 53.0352C106.789 53.0352 105 51.2443 105 49.0352C105 46.826 106.789 45.0352 109 45.0352C111.211 45.0352 113 46.826 113 49.0352Z" fill="url(#paint38_linear)"/>
<path d="M109 143.035C111.211 143.035 113 141.244 113 139.035C113 136.826 111.211 135.035 109 135.035C106.789 135.035 105 136.826 105 139.035C105 141.244 106.789 143.035 109 143.035Z" fill="url(#paint39_linear)"/>
<path d="M23 64.0352C23 66.2444 21.2109 68.0352 19 68.0352C16.7891 68.0352 15 66.2444 15 64.0352C15 61.8259 16.7891 60.0352 19 60.0352C21.2109 60.0352 23 61.8259 23 64.0352Z" fill="url(#paint40_linear)"/>
<path d="M19 158.035C21.2109 158.035 23 156.244 23 154.035C23 151.826 21.2109 150.035 19 150.035C16.7891 150.035 15 151.826 15 154.035C15 156.244 16.7891 158.035 19 158.035Z" fill="url(#paint41_linear)"/>
<path d="M113 64.0352C113 66.2444 111.211 68.0352 109 68.0352C106.789 68.0352 105 66.2444 105 64.0352C105 61.8259 106.789 60.0352 109 60.0352C111.211 60.0352 113 61.8259 113 64.0352Z" fill="url(#paint42_linear)"/>
<path d="M109 158.035C111.211 158.035 113 156.244 113 154.035C113 151.826 111.211 150.035 109 150.035C106.789 150.035 105 151.826 105 154.035C105 156.244 106.789 158.035 109 158.035Z" fill="url(#paint43_linear)"/>
<path d="M23 79.0352C23 81.2444 21.2109 83.0352 19 83.0352C16.7891 83.0352 15 81.2444 15 79.0352C15 76.8259 16.7891 75.0352 19 75.0352C21.2109 75.0352 23 76.8259 23 79.0352Z" fill="url(#paint44_linear)"/>
<path d="M19 173.035C21.2109 173.035 23 171.244 23 169.035C23 166.826 21.2109 165.035 19 165.035C16.7891 165.035 15 166.826 15 169.035C15 171.244 16.7891 173.035 19 173.035Z" fill="url(#paint45_linear)"/>
<path d="M113 79.0352C113 81.2444 111.211 83.0352 109 83.0352C106.789 83.0352 105 81.2444 105 79.0352C105 76.8259 106.789 75.0352 109 75.0352C111.211 75.0352 113 76.8259 113 79.0352Z" fill="url(#paint46_linear)"/>
<path d="M109 173.035C111.211 173.035 113 171.244 113 169.035C113 166.826 111.211 165.035 109 165.035C106.789 165.035 105 166.826 105 169.035C105 171.244 106.789 173.035 109 173.035Z" fill="url(#paint47_linear)"/>
<path d="M38 4.03516C38 6.24426 36.2109 8.03516 34 8.03516C31.7891 8.03516 30 6.24426 30 4.03516C30 1.82605 31.7891 0.0351562 34 0.0351562C36.2109 0.0351562 38 1.82605 38 4.03516Z" fill="url(#paint48_linear)"/>
<path d="M34 98.0352C36.2109 98.0352 38 96.2444 38 94.0352C38 91.8259 36.2109 90.0352 34 90.0352C31.7891 90.0352 30 91.8259 30 94.0352C30 96.2444 31.7891 98.0352 34 98.0352Z" fill="url(#paint49_linear)"/>
<path d="M128 4.03516C128 6.24426 126.211 8.03516 124 8.03516C121.789 8.03516 120 6.24426 120 4.03516C120 1.82605 121.789 0.0351562 124 0.0351562C126.211 0.0351562 128 1.82605 128 4.03516Z" fill="url(#paint50_linear)"/>
<path d="M124 98.0352C126.211 98.0352 128 96.2444 128 94.0352C128 91.8259 126.211 90.0352 124 90.0352C121.789 90.0352 120 91.8259 120 94.0352C120 96.2444 121.789 98.0352 124 98.0352Z" fill="url(#paint51_linear)"/>
<path d="M38 19.0352C38 21.2443 36.2109 23.0352 34 23.0352C31.7891 23.0352 30 21.2443 30 19.0352C30 16.826 31.7891 15.0352 34 15.0352C36.2109 15.0352 38 16.826 38 19.0352Z" fill="url(#paint52_linear)"/>
<path d="M34 113.035C36.2109 113.035 38 111.244 38 109.035C38 106.826 36.2109 105.035 34 105.035C31.7891 105.035 30 106.826 30 109.035C30 111.244 31.7891 113.035 34 113.035Z" fill="url(#paint53_linear)"/>
<path d="M128 19.0352C128 21.2443 126.211 23.0352 124 23.0352C121.789 23.0352 120 21.2443 120 19.0352C120 16.826 121.789 15.0352 124 15.0352C126.211 15.0352 128 16.826 128 19.0352Z" fill="url(#paint54_linear)"/>
<path d="M124 113.035C126.211 113.035 128 111.244 128 109.035C128 106.826 126.211 105.035 124 105.035C121.789 105.035 120 106.826 120 109.035C120 111.244 121.789 113.035 124 113.035Z" fill="url(#paint55_linear)"/>
<path d="M38 34.0352C38 36.2443 36.2109 38.0352 34 38.0352C31.7891 38.0352 30 36.2443 30 34.0352C30 31.826 31.7891 30.0352 34 30.0352C36.2109 30.0352 38 31.826 38 34.0352Z" fill="url(#paint56_linear)"/>
<path d="M34 128.035C36.2109 128.035 38 126.244 38 124.035C38 121.826 36.2109 120.035 34 120.035C31.7891 120.035 30 121.826 30 124.035C30 126.244 31.7891 128.035 34 128.035Z" fill="url(#paint57_linear)"/>
<path d="M128 34.0352C128 36.2443 126.211 38.0352 124 38.0352C121.789 38.0352 120 36.2443 120 34.0352C120 31.826 121.789 30.0352 124 30.0352C126.211 30.0352 128 31.826 128 34.0352Z" fill="url(#paint58_linear)"/>
<path d="M124 128.035C126.211 128.035 128 126.244 128 124.035C128 121.826 126.211 120.035 124 120.035C121.789 120.035 120 121.826 120 124.035C120 126.244 121.789 128.035 124 128.035Z" fill="url(#paint59_linear)"/>
<path d="M38 49.0352C38 51.2443 36.2109 53.0352 34 53.0352C31.7891 53.0352 30 51.2443 30 49.0352C30 46.826 31.7891 45.0352 34 45.0352C36.2109 45.0352 38 46.826 38 49.0352Z" fill="url(#paint60_linear)"/>
<path d="M34 143.035C36.2109 143.035 38 141.244 38 139.035C38 136.826 36.2109 135.035 34 135.035C31.7891 135.035 30 136.826 30 139.035C30 141.244 31.7891 143.035 34 143.035Z" fill="url(#paint61_linear)"/>
<path d="M128 49.0352C128 51.2443 126.211 53.0352 124 53.0352C121.789 53.0352 120 51.2443 120 49.0352C120 46.826 121.789 45.0352 124 45.0352C126.211 45.0352 128 46.826 128 49.0352Z" fill="url(#paint62_linear)"/>
<path d="M124 143.035C126.211 143.035 128 141.244 128 139.035C128 136.826 126.211 135.035 124 135.035C121.789 135.035 120 136.826 120 139.035C120 141.244 121.789 143.035 124 143.035Z" fill="url(#paint63_linear)"/>
<path d="M38 64.0352C38 66.2444 36.2109 68.0352 34 68.0352C31.7891 68.0352 30 66.2444 30 64.0352C30 61.8259 31.7891 60.0352 34 60.0352C36.2109 60.0352 38 61.8259 38 64.0352Z" fill="url(#paint64_linear)"/>
<path d="M34 158.035C36.2109 158.035 38 156.244 38 154.035C38 151.826 36.2109 150.035 34 150.035C31.7891 150.035 30 151.826 30 154.035C30 156.244 31.7891 158.035 34 158.035Z" fill="url(#paint65_linear)"/>
<path d="M128 64.0352C128 66.2444 126.211 68.0352 124 68.0352C121.789 68.0352 120 66.2444 120 64.0352C120 61.8259 121.789 60.0352 124 60.0352C126.211 60.0352 128 61.8259 128 64.0352Z" fill="url(#paint66_linear)"/>
<path d="M124 158.035C126.211 158.035 128 156.244 128 154.035C128 151.826 126.211 150.035 124 150.035C121.789 150.035 120 151.826 120 154.035C120 156.244 121.789 158.035 124 158.035Z" fill="url(#paint67_linear)"/>
<path d="M38 79.0352C38 81.2444 36.2109 83.0352 34 83.0352C31.7891 83.0352 30 81.2444 30 79.0352C30 76.8259 31.7891 75.0352 34 75.0352C36.2109 75.0352 38 76.8259 38 79.0352Z" fill="url(#paint68_linear)"/>
<path d="M34 173.035C36.2109 173.035 38 171.244 38 169.035C38 166.826 36.2109 165.035 34 165.035C31.7891 165.035 30 166.826 30 169.035C30 171.244 31.7891 173.035 34 173.035Z" fill="url(#paint69_linear)"/>
<path d="M128 79.0352C128 81.2444 126.211 83.0352 124 83.0352C121.789 83.0352 120 81.2444 120 79.0352C120 76.8259 121.789 75.0352 124 75.0352C126.211 75.0352 128 76.8259 128 79.0352Z" fill="url(#paint70_linear)"/>
<path d="M124 173.035C126.211 173.035 128 171.244 128 169.035C128 166.826 126.211 165.035 124 165.035C121.789 165.035 120 166.826 120 169.035C120 171.244 121.789 173.035 124 173.035Z" fill="url(#paint71_linear)"/>
<path d="M53 4.03516C53 6.24426 51.2109 8.03516 49 8.03516C46.7891 8.03516 45 6.24426 45 4.03516C45 1.82605 46.7891 0.0351562 49 0.0351562C51.2109 0.0351562 53 1.82605 53 4.03516Z" fill="url(#paint72_linear)"/>
<path d="M49 98.0352C51.2109 98.0352 53 96.2444 53 94.0352C53 91.8259 51.2109 90.0352 49 90.0352C46.7891 90.0352 45 91.8259 45 94.0352C45 96.2444 46.7891 98.0352 49 98.0352Z" fill="url(#paint73_linear)"/>
<path d="M143 4.03516C143 6.24426 141.211 8.03516 139 8.03516C136.789 8.03516 135 6.24426 135 4.03516C135 1.82605 136.789 0.0351562 139 0.0351562C141.211 0.0351562 143 1.82605 143 4.03516Z" fill="url(#paint74_linear)"/>
<path d="M139 98.0352C141.211 98.0352 143 96.2444 143 94.0352C143 91.8259 141.211 90.0352 139 90.0352C136.789 90.0352 135 91.8259 135 94.0352C135 96.2444 136.789 98.0352 139 98.0352Z" fill="url(#paint75_linear)"/>
<path d="M53 19.0352C53 21.2443 51.2109 23.0352 49 23.0352C46.7891 23.0352 45 21.2443 45 19.0352C45 16.826 46.7891 15.0352 49 15.0352C51.2109 15.0352 53 16.826 53 19.0352Z" fill="url(#paint76_linear)"/>
<path d="M49 113.035C51.2109 113.035 53 111.244 53 109.035C53 106.826 51.2109 105.035 49 105.035C46.7891 105.035 45 106.826 45 109.035C45 111.244 46.7891 113.035 49 113.035Z" fill="url(#paint77_linear)"/>
<path d="M143 19.0352C143 21.2443 141.211 23.0352 139 23.0352C136.789 23.0352 135 21.2443 135 19.0352C135 16.826 136.789 15.0352 139 15.0352C141.211 15.0352 143 16.826 143 19.0352Z" fill="url(#paint78_linear)"/>
<path d="M139 113.035C141.211 113.035 143 111.244 143 109.035C143 106.826 141.211 105.035 139 105.035C136.789 105.035 135 106.826 135 109.035C135 111.244 136.789 113.035 139 113.035Z" fill="url(#paint79_linear)"/>
<path d="M53 34.0352C53 36.2443 51.2109 38.0352 49 38.0352C46.7891 38.0352 45 36.2443 45 34.0352C45 31.826 46.7891 30.0352 49 30.0352C51.2109 30.0352 53 31.826 53 34.0352Z" fill="url(#paint80_linear)"/>
<path d="M49 128.035C51.2109 128.035 53 126.244 53 124.035C53 121.826 51.2109 120.035 49 120.035C46.7891 120.035 45 121.826 45 124.035C45 126.244 46.7891 128.035 49 128.035Z" fill="url(#paint81_linear)"/>
<path d="M143 34.0352C143 36.2443 141.211 38.0352 139 38.0352C136.789 38.0352 135 36.2443 135 34.0352C135 31.826 136.789 30.0352 139 30.0352C141.211 30.0352 143 31.826 143 34.0352Z" fill="url(#paint82_linear)"/>
<path d="M139 128.035C141.211 128.035 143 126.244 143 124.035C143 121.826 141.211 120.035 139 120.035C136.789 120.035 135 121.826 135 124.035C135 126.244 136.789 128.035 139 128.035Z" fill="url(#paint83_linear)"/>
<path d="M53 49.0352C53 51.2443 51.2109 53.0352 49 53.0352C46.7891 53.0352 45 51.2443 45 49.0352C45 46.826 46.7891 45.0352 49 45.0352C51.2109 45.0352 53 46.826 53 49.0352Z" fill="url(#paint84_linear)"/>
<path d="M49 143.035C51.2109 143.035 53 141.244 53 139.035C53 136.826 51.2109 135.035 49 135.035C46.7891 135.035 45 136.826 45 139.035C45 141.244 46.7891 143.035 49 143.035Z" fill="url(#paint85_linear)"/>
<path d="M143 49.0352C143 51.2443 141.211 53.0352 139 53.0352C136.789 53.0352 135 51.2443 135 49.0352C135 46.826 136.789 45.0352 139 45.0352C141.211 45.0352 143 46.826 143 49.0352Z" fill="url(#paint86_linear)"/>
<path d="M53 64.0352C53 66.2444 51.2109 68.0352 49 68.0352C46.7891 68.0352 45 66.2444 45 64.0352C45 61.8259 46.7891 60.0352 49 60.0352C51.2109 60.0352 53 61.8259 53 64.0352Z" fill="url(#paint87_linear)"/>
<path d="M49 158.035C51.2109 158.035 53 156.244 53 154.035C53 151.826 51.2109 150.035 49 150.035C46.7891 150.035 45 151.826 45 154.035C45 156.244 46.7891 158.035 49 158.035Z" fill="url(#paint88_linear)"/>
<path d="M143 64.0352C143 66.2444 141.211 68.0352 139 68.0352C136.789 68.0352 135 66.2444 135 64.0352C135 61.8259 136.789 60.0352 139 60.0352C141.211 60.0352 143 61.8259 143 64.0352Z" fill="url(#paint89_linear)"/>
<path d="M139 158.035C141.211 158.035 143 156.244 143 154.035C143 151.826 141.211 150.035 139 150.035C136.789 150.035 135 151.826 135 154.035C135 156.244 136.789 158.035 139 158.035Z" fill="url(#paint90_linear)"/>
<path d="M53 79.0352C53 81.2444 51.2109 83.0352 49 83.0352C46.7891 83.0352 45 81.2444 45 79.0352C45 76.8259 46.7891 75.0352 49 75.0352C51.2109 75.0352 53 76.8259 53 79.0352Z" fill="url(#paint91_linear)"/>
<path d="M49 173.035C51.2109 173.035 53 171.244 53 169.035C53 166.826 51.2109 165.035 49 165.035C46.7891 165.035 45 166.826 45 169.035C45 171.244 46.7891 173.035 49 173.035Z" fill="url(#paint92_linear)"/>
<path d="M143 79.0352C143 81.2444 141.211 83.0352 139 83.0352C136.789 83.0352 135 81.2444 135 79.0352C135 76.8259 136.789 75.0352 139 75.0352C141.211 75.0352 143 76.8259 143 79.0352Z" fill="url(#paint93_linear)"/>
<path d="M139 173.035C141.211 173.035 143 171.244 143 169.035C143 166.826 141.211 165.035 139 165.035C136.789 165.035 135 166.826 135 169.035C135 171.244 136.789 173.035 139 173.035Z" fill="url(#paint94_linear)"/>
<path d="M68 4.03516C68 6.24426 66.2109 8.03516 64 8.03516C61.7891 8.03516 60 6.24426 60 4.03516C60 1.82605 61.7891 0.0351562 64 0.0351562C66.2109 0.0351562 68 1.82605 68 4.03516Z" fill="url(#paint95_linear)"/>
<path d="M64 98.0352C66.2109 98.0352 68 96.2444 68 94.0352C68 91.8259 66.2109 90.0352 64 90.0352C61.7891 90.0352 60 91.8259 60 94.0352C60 96.2444 61.7891 98.0352 64 98.0352Z" fill="url(#paint96_linear)"/>
<path d="M158 4.03516C158 6.24426 156.211 8.03516 154 8.03516C151.789 8.03516 150 6.24426 150 4.03516C150 1.82605 151.789 0.0351562 154 0.0351562C156.211 0.0351562 158 1.82605 158 4.03516Z" fill="url(#paint97_linear)"/>
<path d="M154 98.0352C156.211 98.0352 158 96.2444 158 94.0352C158 91.8259 156.211 90.0352 154 90.0352C151.789 90.0352 150 91.8259 150 94.0352C150 96.2444 151.789 98.0352 154 98.0352Z" fill="url(#paint98_linear)"/>
<path d="M68 19.0352C68 21.2443 66.2109 23.0352 64 23.0352C61.7891 23.0352 60 21.2443 60 19.0352C60 16.826 61.7891 15.0352 64 15.0352C66.2109 15.0352 68 16.826 68 19.0352Z" fill="url(#paint99_linear)"/>
<path d="M64 113.035C66.2109 113.035 68 111.244 68 109.035C68 106.826 66.2109 105.035 64 105.035C61.7891 105.035 60 106.826 60 109.035C60 111.244 61.7891 113.035 64 113.035Z" fill="url(#paint100_linear)"/>
<path d="M158 19.0352C158 21.2443 156.211 23.0352 154 23.0352C151.789 23.0352 150 21.2443 150 19.0352C150 16.826 151.789 15.0352 154 15.0352C156.211 15.0352 158 16.826 158 19.0352Z" fill="url(#paint101_linear)"/>
<path d="M154 113.035C156.211 113.035 158 111.244 158 109.035C158 106.826 156.211 105.035 154 105.035C151.789 105.035 150 106.826 150 109.035C150 111.244 151.789 113.035 154 113.035Z" fill="url(#paint102_linear)"/>
<path d="M68 34.0352C68 36.2443 66.2109 38.0352 64 38.0352C61.7891 38.0352 60 36.2443 60 34.0352C60 31.826 61.7891 30.0352 64 30.0352C66.2109 30.0352 68 31.826 68 34.0352Z" fill="url(#paint103_linear)"/>
<path d="M64 128.035C66.2109 128.035 68 126.244 68 124.035C68 121.826 66.2109 120.035 64 120.035C61.7891 120.035 60 121.826 60 124.035C60 126.244 61.7891 128.035 64 128.035Z" fill="url(#paint104_linear)"/>
<path d="M158 34.0352C158 36.2443 156.211 38.0352 154 38.0352C151.789 38.0352 150 36.2443 150 34.0352C150 31.826 151.789 30.0352 154 30.0352C156.211 30.0352 158 31.826 158 34.0352Z" fill="url(#paint105_linear)"/>
<path d="M154 128.035C156.211 128.035 158 126.244 158 124.035C158 121.826 156.211 120.035 154 120.035C151.789 120.035 150 121.826 150 124.035C150 126.244 151.789 128.035 154 128.035Z" fill="url(#paint106_linear)"/>
<path d="M68 49.0352C68 51.2443 66.2109 53.0352 64 53.0352C61.7891 53.0352 60 51.2443 60 49.0352C60 46.826 61.7891 45.0352 64 45.0352C66.2109 45.0352 68 46.826 68 49.0352Z" fill="url(#paint107_linear)"/>
<path d="M64 143.035C66.2109 143.035 68 141.244 68 139.035C68 136.826 66.2109 135.035 64 135.035C61.7891 135.035 60 136.826 60 139.035C60 141.244 61.7891 143.035 64 143.035Z" fill="url(#paint108_linear)"/>
<path d="M158 49.0352C158 51.2443 156.211 53.0352 154 53.0352C151.789 53.0352 150 51.2443 150 49.0352C150 46.826 151.789 45.0352 154 45.0352C156.211 45.0352 158 46.826 158 49.0352Z" fill="url(#paint109_linear)"/>
<path d="M154 143.035C156.211 143.035 158 141.244 158 139.035C158 136.826 156.211 135.035 154 135.035C151.789 135.035 150 136.826 150 139.035C150 141.244 151.789 143.035 154 143.035Z" fill="url(#paint110_linear)"/>
<path d="M68 64.0352C68 66.2444 66.2109 68.0352 64 68.0352C61.7891 68.0352 60 66.2444 60 64.0352C60 61.8259 61.7891 60.0352 64 60.0352C66.2109 60.0352 68 61.8259 68 64.0352Z" fill="url(#paint111_linear)"/>
<path d="M64 158.035C66.2109 158.035 68 156.244 68 154.035C68 151.826 66.2109 150.035 64 150.035C61.7891 150.035 60 151.826 60 154.035C60 156.244 61.7891 158.035 64 158.035Z" fill="url(#paint112_linear)"/>
<path d="M158 64.0352C158 66.2444 156.211 68.0352 154 68.0352C151.789 68.0352 150 66.2444 150 64.0352C150 61.8259 151.789 60.0352 154 60.0352C156.211 60.0352 158 61.8259 158 64.0352Z" fill="url(#paint113_linear)"/>
<path d="M154 158.035C156.211 158.035 158 156.244 158 154.035C158 151.826 156.211 150.035 154 150.035C151.789 150.035 150 151.826 150 154.035C150 156.244 151.789 158.035 154 158.035Z" fill="url(#paint114_linear)"/>
<path d="M68 79.0352C68 81.2444 66.2109 83.0352 64 83.0352C61.7891 83.0352 60 81.2444 60 79.0352C60 76.8259 61.7891 75.0352 64 75.0352C66.2109 75.0352 68 76.8259 68 79.0352Z" fill="url(#paint115_linear)"/>
<path d="M64 173.035C66.2109 173.035 68 171.244 68 169.035C68 166.826 66.2109 165.035 64 165.035C61.7891 165.035 60 166.826 60 169.035C60 171.244 61.7891 173.035 64 173.035Z" fill="url(#paint116_linear)"/>
<path d="M158 79.0352C158 81.2444 156.211 83.0352 154 83.0352C151.789 83.0352 150 81.2444 150 79.0352C150 76.8259 151.789 75.0352 154 75.0352C156.211 75.0352 158 76.8259 158 79.0352Z" fill="url(#paint117_linear)"/>
<path d="M154 173.035C156.211 173.035 158 171.244 158 169.035C158 166.826 156.211 165.035 154 165.035C151.789 165.035 150 166.826 150 169.035C150 171.244 151.789 173.035 154 173.035Z" fill="url(#paint118_linear)"/>
<path d="M83 4.03516C83 6.24426 81.2109 8.03516 79 8.03516C76.7891 8.03516 75 6.24426 75 4.03516C75 1.82605 76.7891 0.0351562 79 0.0351562C81.2109 0.0351562 83 1.82605 83 4.03516Z" fill="url(#paint119_linear)"/>
<path d="M79 98.0352C81.2109 98.0352 83 96.2444 83 94.0352C83 91.8259 81.2109 90.0352 79 90.0352C76.7891 90.0352 75 91.8259 75 94.0352C75 96.2444 76.7891 98.0352 79 98.0352Z" fill="url(#paint120_linear)"/>
<path d="M173 4.03516C173 6.24426 171.211 8.03516 169 8.03516C166.789 8.03516 165 6.24426 165 4.03516C165 1.82605 166.789 0.0351562 169 0.0351562C171.211 0.0351562 173 1.82605 173 4.03516Z" fill="url(#paint121_linear)"/>
<path d="M169 98.0352C171.211 98.0352 173 96.2444 173 94.0352C173 91.8259 171.211 90.0352 169 90.0352C166.789 90.0352 165 91.8259 165 94.0352C165 96.2444 166.789 98.0352 169 98.0352Z" fill="url(#paint122_linear)"/>
<path d="M83 19.0352C83 21.2443 81.2109 23.0352 79 23.0352C76.7891 23.0352 75 21.2443 75 19.0352C75 16.826 76.7891 15.0352 79 15.0352C81.2109 15.0352 83 16.826 83 19.0352Z" fill="url(#paint123_linear)"/>
<path d="M79 113.035C81.2109 113.035 83 111.244 83 109.035C83 106.826 81.2109 105.035 79 105.035C76.7891 105.035 75 106.826 75 109.035C75 111.244 76.7891 113.035 79 113.035Z" fill="url(#paint124_linear)"/>
<path d="M173 19.0352C173 21.2443 171.211 23.0352 169 23.0352C166.789 23.0352 165 21.2443 165 19.0352C165 16.826 166.789 15.0352 169 15.0352C171.211 15.0352 173 16.826 173 19.0352Z" fill="url(#paint125_linear)"/>
<path d="M169 113.035C171.211 113.035 173 111.244 173 109.035C173 106.826 171.211 105.035 169 105.035C166.789 105.035 165 106.826 165 109.035C165 111.244 166.789 113.035 169 113.035Z" fill="url(#paint126_linear)"/>
<path d="M83 34.0352C83 36.2443 81.2109 38.0352 79 38.0352C76.7891 38.0352 75 36.2443 75 34.0352C75 31.826 76.7891 30.0352 79 30.0352C81.2109 30.0352 83 31.826 83 34.0352Z" fill="url(#paint127_linear)"/>
<path d="M79 128.035C81.2109 128.035 83 126.244 83 124.035C83 121.826 81.2109 120.035 79 120.035C76.7891 120.035 75 121.826 75 124.035C75 126.244 76.7891 128.035 79 128.035Z" fill="url(#paint128_linear)"/>
<path d="M173 34.0352C173 36.2443 171.211 38.0352 169 38.0352C166.789 38.0352 165 36.2443 165 34.0352C165 31.826 166.789 30.0352 169 30.0352C171.211 30.0352 173 31.826 173 34.0352Z" fill="url(#paint129_linear)"/>
<path d="M169 128.035C171.211 128.035 173 126.244 173 124.035C173 121.826 171.211 120.035 169 120.035C166.789 120.035 165 121.826 165 124.035C165 126.244 166.789 128.035 169 128.035Z" fill="url(#paint130_linear)"/>
<path d="M83 49.0352C83 51.2443 81.2109 53.0352 79 53.0352C76.7891 53.0352 75 51.2443 75 49.0352C75 46.826 76.7891 45.0352 79 45.0352C81.2109 45.0352 83 46.826 83 49.0352Z" fill="url(#paint131_linear)"/>
<path d="M79 143.035C81.2109 143.035 83 141.244 83 139.035C83 136.826 81.2109 135.035 79 135.035C76.7891 135.035 75 136.826 75 139.035C75 141.244 76.7891 143.035 79 143.035Z" fill="url(#paint132_linear)"/>
<path d="M173 49.0352C173 51.2443 171.211 53.0352 169 53.0352C166.789 53.0352 165 51.2443 165 49.0352C165 46.826 166.789 45.0352 169 45.0352C171.211 45.0352 173 46.826 173 49.0352Z" fill="url(#paint133_linear)"/>
<path d="M169 143.035C171.211 143.035 173 141.244 173 139.035C173 136.826 171.211 135.035 169 135.035C166.789 135.035 165 136.826 165 139.035C165 141.244 166.789 143.035 169 143.035Z" fill="url(#paint134_linear)"/>
<path d="M83 64.0352C83 66.2444 81.2109 68.0352 79 68.0352C76.7891 68.0352 75 66.2444 75 64.0352C75 61.8259 76.7891 60.0352 79 60.0352C81.2109 60.0352 83 61.8259 83 64.0352Z" fill="url(#paint135_linear)"/>
<path d="M79 158.035C81.2109 158.035 83 156.244 83 154.035C83 151.826 81.2109 150.035 79 150.035C76.7891 150.035 75 151.826 75 154.035C75 156.244 76.7891 158.035 79 158.035Z" fill="url(#paint136_linear)"/>
<path d="M173 64.0352C173 66.2444 171.211 68.0352 169 68.0352C166.789 68.0352 165 66.2444 165 64.0352C165 61.8259 166.789 60.0352 169 60.0352C171.211 60.0352 173 61.8259 173 64.0352Z" fill="url(#paint137_linear)"/>
<path d="M169 158.035C171.211 158.035 173 156.244 173 154.035C173 151.826 171.211 150.035 169 150.035C166.789 150.035 165 151.826 165 154.035C165 156.244 166.789 158.035 169 158.035Z" fill="url(#paint138_linear)"/>
<path d="M83 79.0352C83 81.2444 81.2109 83.0352 79 83.0352C76.7891 83.0352 75 81.2444 75 79.0352C75 76.8259 76.7891 75.0352 79 75.0352C81.2109 75.0352 83 76.8259 83 79.0352Z" fill="url(#paint139_linear)"/>
<path d="M79 173.035C81.2109 173.035 83 171.244 83 169.035C83 166.826 81.2109 165.035 79 165.035C76.7891 165.035 75 166.826 75 169.035C75 171.244 76.7891 173.035 79 173.035Z" fill="url(#paint140_linear)"/>
<path d="M173 79.0352C173 81.2444 171.211 83.0352 169 83.0352C166.789 83.0352 165 81.2444 165 79.0352C165 76.8259 166.789 75.0352 169 75.0352C171.211 75.0352 173 76.8259 173 79.0352Z" fill="url(#paint141_linear)"/>
<path d="M169 173.035C171.211 173.035 173 171.244 173 169.035C173 166.826 171.211 165.035 169 165.035C166.789 165.035 165 166.826 165 169.035C165 171.244 166.789 173.035 169 173.035Z" fill="url(#paint142_linear)"/>
<defs>
<linearGradient id="paint0_linear" x1="86.5" y1="0.0351563" x2="86.5" y2="173.035" gradientUnits="userSpaceOnUse">
<stop stop-color="#4B6CAC"/>
<stop offset="1" stop-color="#EEF0FF"/>
</linearGradient>
<linearGradient id="paint1_linear" x1="86.5" y1="0.0351563" x2="86.5" y2="173.035" gradientUnits="userSpaceOnUse">
<stop stop-color="#4B6CAC"/>
<stop offset="1" stop-color="#EEF0FF"/>
</linearGradient>
<linearGradient id="paint2_linear" x1="86.5" y1="0.0351563" x2="86.5" y2="173.035" gradientUnits="userSpaceOnUse">
<stop stop-color="#4B6CAC"/>
<stop offset="1" stop-color="#EEF0FF"/>
</linearGradient>
<linearGradient id="paint3_linear" x1="86.5" y1="0.0351563" x2="86.5" y2="173.035" gradientUnits="userSpaceOnUse">
<stop stop-color="#4B6CAC"/>
<stop offset="1" stop-color="#EEF0FF"/>
</linearGradient>
<linearGradient id="paint4_linear" x1="86.5" y1="0.0351563" x2="86.5" y2="173.035" gradientUnits="userSpaceOnUse">
<stop stop-color="#4B6CAC"/>
<stop offset="1" stop-color="#EEF0FF"/>
</linearGradient>
<linearGradient id="paint5_linear" x1="86.5" y1="0.0351563" x2="86.5" y2="173.035" gradientUnits="userSpaceOnUse">
<stop stop-color="#4B6CAC"/>
<stop offset="1" stop-color="#EEF0FF"/>
</linearGradient>
<linearGradient id="paint6_linear" x1="86.5" y1="0.0351563" x2="86.5" y2="173.035" gradientUnits="userSpaceOnUse">
<stop stop-color="#4B6CAC"/>
<stop offset="1" stop-color="#EEF0FF"/>
</linearGradient>
<linearGradient id="paint7_linear" x1="86.5" y1="0.0351563" x2="86.5" y2="173.035" gradientUnits="userSpaceOnUse">
<stop stop-color="#4B6CAC"/>
<stop offset="1" stop-color="#EEF0FF"/>
</linearGradient>
<linearGradient id="paint8_linear" x1="86.5" y1="0.0351563" x2="86.5" y2="173.035" gradientUnits="userSpaceOnUse">
<stop stop-color="#4B6CAC"/>
<stop offset="1" stop-color="#EEF0FF"/>
</linearGradient>
<linearGradient id="paint9_linear" x1="86.5" y1="0.0351563" x2="86.5" y2="173.035" gradientUnits="userSpaceOnUse">
<stop stop-color="#4B6CAC"/>
<stop offset="1" stop-color="#EEF0FF"/>
</linearGradient>
<linearGradient id="paint10_linear" x1="86.5" y1="0.0351563" x2="86.5" y2="173.035" gradientUnits="userSpaceOnUse">
<stop stop-color="#4B6CAC"/>
<stop offset="1" stop-color="#EEF0FF"/>
</linearGradient>
<linearGradient id="paint11_linear" x1="86.5" y1="0.0351563" x2="86.5" y2="173.035" gradientUnits="userSpaceOnUse">
<stop stop-color="#4B6CAC"/>
<stop offset="1" stop-color="#EEF0FF"/>
</linearGradient>
<linearGradient id="paint12_linear" x1="86.5" y1="0.0351563" x2="86.5" y2="173.035" gradientUnits="userSpaceOnUse">
<stop stop-color="#4B6CAC"/>
<stop offset="1" stop-color="#EEF0FF"/>
</linearGradient>
<linearGradient id="paint13_linear" x1="86.5" y1="0.0351563" x2="86.5" y2="173.035" gradientUnits="userSpaceOnUse">
<stop stop-color="#4B6CAC"/>
<stop offset="1" stop-color="#EEF0FF"/>
</linearGradient>
<linearGradient id="paint14_linear" x1="86.5" y1="0.0351563" x2="86.5" y2="173.035" gradientUnits="userSpaceOnUse">
<stop stop-color="#4B6CAC"/>
<stop offset="1" stop-color="#EEF0FF"/>
</linearGradient>
<linearGradient id="paint15_linear" x1="86.5" y1="0.0351563" x2="86.5" y2="173.035" gradientUnits="userSpaceOnUse">
<stop stop-color="#4B6CAC"/>
<stop offset="1" stop-color="#EEF0FF"/>
</linearGradient>
<linearGradient id="paint16_linear" x1="86.5" y1="0.0351563" x2="86.5" y2="173.035" gradientUnits="userSpaceOnUse">
<stop stop-color="#4B6CAC"/>
<stop offset="1" stop-color="#EEF0FF"/>
</linearGradient>
<linearGradient id="paint17_linear" x1="86.5" y1="0.0351563" x2="86.5" y2="173.035" gradientUnits="userSpaceOnUse">
<stop stop-color="#4B6CAC"/>
<stop offset="1" stop-color="#EEF0FF"/>
</linearGradient>
<linearGradient id="paint18_linear" x1="86.5" y1="0.0351563" x2="86.5" y2="173.035" gradientUnits="userSpaceOnUse">
<stop stop-color="#4B6CAC"/>
<stop offset="1" stop-color="#EEF0FF"/>
</linearGradient>
<linearGradient id="paint19_linear" x1="86.5" y1="0.0351563" x2="86.5" y2="173.035" gradientUnits="userSpaceOnUse">
<stop stop-color="#4B6CAC"/>
<stop offset="1" stop-color="#EEF0FF"/>
</linearGradient>
<linearGradient id="paint20_linear" x1="86.5" y1="0.0351563" x2="86.5" y2="173.035" gradientUnits="userSpaceOnUse">
<stop stop-color="#4B6CAC"/>
<stop offset="1" stop-color="#EEF0FF"/>
</linearGradient>
<linearGradient id="paint21_linear" x1="86.5" y1="0.0351563" x2="86.5" y2="173.035" gradientUnits="userSpaceOnUse">
<stop stop-color="#4B6CAC"/>
<stop offset="1" stop-color="#EEF0FF"/>
</linearGradient>
<linearGradient id="paint22_linear" x1="86.5" y1="0.0351563" x2="86.5" y2="173.035" gradientUnits="userSpaceOnUse">
<stop stop-color="#4B6CAC"/>
<stop offset="1" stop-color="#EEF0FF"/>
</linearGradient>
<linearGradient id="paint23_linear" x1="86.5" y1="0.0351563" x2="86.5" y2="173.035" gradientUnits="userSpaceOnUse">
<stop stop-color="#4B6CAC"/>
<stop offset="1" stop-color="#EEF0FF"/>
</linearGradient>
<linearGradient id="paint24_linear" x1="86.5" y1="0.0351563" x2="86.5" y2="173.035" gradientUnits="userSpaceOnUse">
<stop stop-color="#4B6CAC"/>
<stop offset="1" stop-color="#EEF0FF"/>
</linearGradient>
<linearGradient id="paint25_linear" x1="86.5" y1="0.0351563" x2="86.5" y2="173.035" gradientUnits="userSpaceOnUse">
<stop stop-color="#4B6CAC"/>
<stop offset="1" stop-color="#EEF0FF"/>
</linearGradient>
<linearGradient id="paint26_linear" x1="86.5" y1="0.0351563" x2="86.5" y2="173.035" gradientUnits="userSpaceOnUse">
<stop stop-color="#4B6CAC"/>
<stop offset="1" stop-color="#EEF0FF"/>
</linearGradient>
<linearGradient id="paint27_linear" x1="86.5" y1="0.0351563" x2="86.5" y2="173.035" gradientUnits="userSpaceOnUse">
<stop stop-color="#4B6CAC"/>
<stop offset="1" stop-color="#EEF0FF"/>
</linearGradient>
<linearGradient id="paint28_linear" x1="86.5" y1="0.0351563" x2="86.5" y2="173.035" gradientUnits="userSpaceOnUse">
<stop stop-color="#4B6CAC"/>
<stop offset="1" stop-color="#EEF0FF"/>
</linearGradient>
<linearGradient id="paint29_linear" x1="86.5" y1="0.0351563" x2="86.5" y2="173.035" gradientUnits="userSpaceOnUse">
<stop stop-color="#4B6CAC"/>
<stop offset="1" stop-color="#EEF0FF"/>
</linearGradient>
<linearGradient id="paint30_linear" x1="86.5" y1="0.0351563" x2="86.5" y2="173.035" gradientUnits="userSpaceOnUse">
<stop stop-color="#4B6CAC"/>
<stop offset="1" stop-color="#EEF0FF"/>
</linearGradient>
<linearGradient id="paint31_linear" x1="86.5" y1="0.0351563" x2="86.5" y2="173.035" gradientUnits="userSpaceOnUse">
<stop stop-color="#4B6CAC"/>
<stop offset="1" stop-color="#EEF0FF"/>
</linearGradient>
<linearGradient id="paint32_linear" x1="86.5" y1="0.0351563" x2="86.5" y2="173.035" gradientUnits="userSpaceOnUse">
<stop stop-color="#4B6CAC"/>
<stop offset="1" stop-color="#EEF0FF"/>
</linearGradient>
<linearGradient id="paint33_linear" x1="86.5" y1="0.0351563" x2="86.5" y2="173.035" gradientUnits="userSpaceOnUse">
<stop stop-color="#4B6CAC"/>
<stop offset="1" stop-color="#EEF0FF"/>
</linearGradient>
<linearGradient id="paint34_linear" x1="86.5" y1="0.0351563" x2="86.5" y2="173.035" gradientUnits="userSpaceOnUse">
<stop stop-color="#4B6CAC"/>
<stop offset="1" stop-color="#EEF0FF"/>
</linearGradient>
<linearGradient id="paint35_linear" x1="86.5" y1="0.0351563" x2="86.5" y2="173.035" gradientUnits="userSpaceOnUse">
<stop stop-color="#4B6CAC"/>
<stop offset="1" stop-color="#EEF0FF"/>
</linearGradient>
<linearGradient id="paint36_linear" x1="86.5" y1="0.0351563" x2="86.5" y2="173.035" gradientUnits="userSpaceOnUse">
<stop stop-color="#4B6CAC"/>
<stop offset="1" stop-color="#EEF0FF"/>
</linearGradient>
<linearGradient id="paint37_linear" x1="86.5" y1="0.0351563" x2="86.5" y2="173.035" gradientUnits="userSpaceOnUse">
<stop stop-color="#4B6CAC"/>
<stop offset="1" stop-color="#EEF0FF"/>
</linearGradient>
<linearGradient id="paint38_linear" x1="86.5" y1="0.0351563" x2="86.5" y2="173.035" gradientUnits="userSpaceOnUse">
<stop stop-color="#4B6CAC"/>
<stop offset="1" stop-color="#EEF0FF"/>
</linearGradient>
<linearGradient id="paint39_linear" x1="86.5" y1="0.0351563" x2="86.5" y2="173.035" gradientUnits="userSpaceOnUse">
<stop stop-color="#4B6CAC"/>
<stop offset="1" stop-color="#EEF0FF"/>
</linearGradient>
<linearGradient id="paint40_linear" x1="86.5" y1="0.0351563" x2="86.5" y2="173.035" gradientUnits="userSpaceOnUse">
<stop stop-color="#4B6CAC"/>
<stop offset="1" stop-color="#EEF0FF"/>
</linearGradient>
<linearGradient id="paint41_linear" x1="86.5" y1="0.0351563" x2="86.5" y2="173.035" gradientUnits="userSpaceOnUse">
<stop stop-color="#4B6CAC"/>
<stop offset="1" stop-color="#EEF0FF"/>
</linearGradient>
<linearGradient id="paint42_linear" x1="86.5" y1="0.0351563" x2="86.5" y2="173.035" gradientUnits="userSpaceOnUse">
<stop stop-color="#4B6CAC"/>
<stop offset="1" stop-color="#EEF0FF"/>
</linearGradient>
<linearGradient id="paint43_linear" x1="86.5" y1="0.0351563" x2="86.5" y2="173.035" gradientUnits="userSpaceOnUse">
<stop stop-color="#4B6CAC"/>
<stop offset="1" stop-color="#EEF0FF"/>
</linearGradient>
<linearGradient id="paint44_linear" x1="86.5" y1="0.0351563" x2="86.5" y2="173.035" gradientUnits="userSpaceOnUse">
<stop stop-color="#4B6CAC"/>
<stop offset="1" stop-color="#EEF0FF"/>
</linearGradient>
<linearGradient id="paint45_linear" x1="86.5" y1="0.0351563" x2="86.5" y2="173.035" gradientUnits="userSpaceOnUse">
<stop stop-color="#4B6CAC"/>
<stop offset="1" stop-color="#EEF0FF"/>
</linearGradient>
<linearGradient id="paint46_linear" x1="86.5" y1="0.0351563" x2="86.5" y2="173.035" gradientUnits="userSpaceOnUse">
<stop stop-color="#4B6CAC"/>
<stop offset="1" stop-color="#EEF0FF"/>
</linearGradient>
<linearGradient id="paint47_linear" x1="86.5" y1="0.0351563" x2="86.5" y2="173.035" gradientUnits="userSpaceOnUse">
<stop stop-color="#4B6CAC"/>
<stop offset="1" stop-color="#EEF0FF"/>
</linearGradient>
<linearGradient id="paint48_linear" x1="86.5" y1="0.0351563" x2="86.5" y2="173.035" gradientUnits="userSpaceOnUse">
<stop stop-color="#4B6CAC"/>
<stop offset="1" stop-color="#EEF0FF"/>
</linearGradient>
<linearGradient id="paint49_linear" x1="86.5" y1="0.0351563" x2="86.5" y2="173.035" gradientUnits="userSpaceOnUse">
<stop stop-color="#4B6CAC"/>
<stop offset="1" stop-color="#EEF0FF"/>
</linearGradient>
<linearGradient id="paint50_linear" x1="86.5" y1="0.0351563" x2="86.5" y2="173.035" gradientUnits="userSpaceOnUse">
<stop stop-color="#4B6CAC"/>
<stop offset="1" stop-color="#EEF0FF"/>
</linearGradient>
<linearGradient id="paint51_linear" x1="86.5" y1="0.0351563" x2="86.5" y2="173.035" gradientUnits="userSpaceOnUse">
<stop stop-color="#4B6CAC"/>
<stop offset="1" stop-color="#EEF0FF"/>
</linearGradient>
<linearGradient id="paint52_linear" x1="86.5" y1="0.0351563" x2="86.5" y2="173.035" gradientUnits="userSpaceOnUse">
<stop stop-color="#4B6CAC"/>
<stop offset="1" stop-color="#EEF0FF"/>
</linearGradient>
<linearGradient id="paint53_linear" x1="86.5" y1="0.0351563" x2="86.5" y2="173.035" gradientUnits="userSpaceOnUse">
<stop stop-color="#4B6CAC"/>
<stop offset="1" stop-color="#EEF0FF"/>
</linearGradient>
<linearGradient id="paint54_linear" x1="86.5" y1="0.0351563" x2="86.5" y2="173.035" gradientUnits="userSpaceOnUse">
<stop stop-color="#4B6CAC"/>
<stop offset="1" stop-color="#EEF0FF"/>
</linearGradient>
<linearGradient id="paint55_linear" x1="86.5" y1="0.0351563" x2="86.5" y2="173.035" gradientUnits="userSpaceOnUse">
<stop stop-color="#4B6CAC"/>
<stop offset="1" stop-color="#EEF0FF"/>
</linearGradient>
<linearGradient id="paint56_linear" x1="86.5" y1="0.0351563" x2="86.5" y2="173.035" gradientUnits="userSpaceOnUse">
<stop stop-color="#4B6CAC"/>
<stop offset="1" stop-color="#EEF0FF"/>
</linearGradient>
<linearGradient id="paint57_linear" x1="86.5" y1="0.0351563" x2="86.5" y2="173.035" gradientUnits="userSpaceOnUse">
<stop stop-color="#4B6CAC"/>
<stop offset="1" stop-color="#EEF0FF"/>
</linearGradient>
<linearGradient id="paint58_linear" x1="86.5" y1="0.0351563" x2="86.5" y2="173.035" gradientUnits="userSpaceOnUse">
<stop stop-color="#4B6CAC"/>
<stop offset="1" stop-color="#EEF0FF"/>
</linearGradient>
<linearGradient id="paint59_linear" x1="86.5" y1="0.0351563" x2="86.5" y2="173.035" gradientUnits="userSpaceOnUse">
<stop stop-color="#4B6CAC"/>
<stop offset="1" stop-color="#EEF0FF"/>
</linearGradient>
<linearGradient id="paint60_linear" x1="86.5" y1="0.0351563" x2="86.5" y2="173.035" gradientUnits="userSpaceOnUse">
<stop stop-color="#4B6CAC"/>
<stop offset="1" stop-color="#EEF0FF"/>
</linearGradient>
<linearGradient id="paint61_linear" x1="86.5" y1="0.0351563" x2="86.5" y2="173.035" gradientUnits="userSpaceOnUse">
<stop stop-color="#4B6CAC"/>
<stop offset="1" stop-color="#EEF0FF"/>
</linearGradient>
<linearGradient id="paint62_linear" x1="86.5" y1="0.0351563" x2="86.5" y2="173.035" gradientUnits="userSpaceOnUse">
<stop stop-color="#4B6CAC"/>
<stop offset="1" stop-color="#EEF0FF"/>
</linearGradient>
<linearGradient id="paint63_linear" x1="86.5" y1="0.0351563" x2="86.5" y2="173.035" gradientUnits="userSpaceOnUse">
<stop stop-color="#4B6CAC"/>
<stop offset="1" stop-color="#EEF0FF"/>
</linearGradient>
<linearGradient id="paint64_linear" x1="86.5" y1="0.0351563" x2="86.5" y2="173.035" gradientUnits="userSpaceOnUse">
<stop stop-color="#4B6CAC"/>
<stop offset="1" stop-color="#EEF0FF"/>
</linearGradient>
<linearGradient id="paint65_linear" x1="86.5" y1="0.0351563" x2="86.5" y2="173.035" gradientUnits="userSpaceOnUse">
<stop stop-color="#4B6CAC"/>
<stop offset="1" stop-color="#EEF0FF"/>
</linearGradient>
<linearGradient id="paint66_linear" x1="86.5" y1="0.0351563" x2="86.5" y2="173.035" gradientUnits="userSpaceOnUse">
<stop stop-color="#4B6CAC"/>
<stop offset="1" stop-color="#EEF0FF"/>
</linearGradient>
<linearGradient id="paint67_linear" x1="86.5" y1="0.0351563" x2="86.5" y2="173.035" gradientUnits="userSpaceOnUse">
<stop stop-color="#4B6CAC"/>
<stop offset="1" stop-color="#EEF0FF"/>
</linearGradient>
<linearGradient id="paint68_linear" x1="86.5" y1="0.0351563" x2="86.5" y2="173.035" gradientUnits="userSpaceOnUse">
<stop stop-color="#4B6CAC"/>
<stop offset="1" stop-color="#EEF0FF"/>
</linearGradient>
<linearGradient id="paint69_linear" x1="86.5" y1="0.0351563" x2="86.5" y2="173.035" gradientUnits="userSpaceOnUse">
<stop stop-color="#4B6CAC"/>
<stop offset="1" stop-color="#EEF0FF"/>
</linearGradient>
<linearGradient id="paint70_linear" x1="86.5" y1="0.0351563" x2="86.5" y2="173.035" gradientUnits="userSpaceOnUse">
<stop stop-color="#4B6CAC"/>
<stop offset="1" stop-color="#EEF0FF"/>
</linearGradient>
<linearGradient id="paint71_linear" x1="86.5" y1="0.0351563" x2="86.5" y2="173.035" gradientUnits="userSpaceOnUse">
<stop stop-color="#4B6CAC"/>
<stop offset="1" stop-color="#EEF0FF"/>
</linearGradient>
<linearGradient id="paint72_linear" x1="86.5" y1="0.0351563" x2="86.5" y2="173.035" gradientUnits="userSpaceOnUse">
<stop stop-color="#4B6CAC"/>
<stop offset="1" stop-color="#EEF0FF"/>
</linearGradient>
<linearGradient id="paint73_linear" x1="86.5" y1="0.0351563" x2="86.5" y2="173.035" gradientUnits="userSpaceOnUse">
<stop stop-color="#4B6CAC"/>
<stop offset="1" stop-color="#EEF0FF"/>
</linearGradient>
<linearGradient id="paint74_linear" x1="86.5" y1="0.0351563" x2="86.5" y2="173.035" gradientUnits="userSpaceOnUse">
<stop stop-color="#4B6CAC"/>
<stop offset="1" stop-color="#EEF0FF"/>
</linearGradient>
<linearGradient id="paint75_linear" x1="86.5" y1="0.0351563" x2="86.5" y2="173.035" gradientUnits="userSpaceOnUse">
<stop stop-color="#4B6CAC"/>
<stop offset="1" stop-color="#EEF0FF"/>
</linearGradient>
<linearGradient id="paint76_linear" x1="86.5" y1="0.0351563" x2="86.5" y2="173.035" gradientUnits="userSpaceOnUse">
<stop stop-color="#4B6CAC"/>
<stop offset="1" stop-color="#EEF0FF"/>
</linearGradient>
<linearGradient id="paint77_linear" x1="86.5" y1="0.0351563" x2="86.5" y2="173.035" gradientUnits="userSpaceOnUse">
<stop stop-color="#4B6CAC"/>
<stop offset="1" stop-color="#EEF0FF"/>
</linearGradient>
<linearGradient id="paint78_linear" x1="86.5" y1="0.0351563" x2="86.5" y2="173.035" gradientUnits="userSpaceOnUse">
<stop stop-color="#4B6CAC"/>
<stop offset="1" stop-color="#EEF0FF"/>
</linearGradient>
<linearGradient id="paint79_linear" x1="86.5" y1="0.0351563" x2="86.5" y2="173.035" gradientUnits="userSpaceOnUse">
<stop stop-color="#4B6CAC"/>
<stop offset="1" stop-color="#EEF0FF"/>
</linearGradient>
<linearGradient id="paint80_linear" x1="86.5" y1="0.0351563" x2="86.5" y2="173.035" gradientUnits="userSpaceOnUse">
<stop stop-color="#4B6CAC"/>
<stop offset="1" stop-color="#EEF0FF"/>
</linearGradient>
<linearGradient id="paint81_linear" x1="86.5" y1="0.0351563" x2="86.5" y2="173.035" gradientUnits="userSpaceOnUse">
<stop stop-color="#4B6CAC"/>
<stop offset="1" stop-color="#EEF0FF"/>
</linearGradient>
<linearGradient id="paint82_linear" x1="86.5" y1="0.0351563" x2="86.5" y2="173.035" gradientUnits="userSpaceOnUse">
<stop stop-color="#4B6CAC"/>
<stop offset="1" stop-color="#EEF0FF"/>
</linearGradient>
<linearGradient id="paint83_linear" x1="86.5" y1="0.0351563" x2="86.5" y2="173.035" gradientUnits="userSpaceOnUse">
<stop stop-color="#4B6CAC"/>
<stop offset="1" stop-color="#EEF0FF"/>
</linearGradient>
<linearGradient id="paint84_linear" x1="86.5" y1="0.0351563" x2="86.5" y2="173.035" gradientUnits="userSpaceOnUse">
<stop stop-color="#4B6CAC"/>
<stop offset="1" stop-color="#EEF0FF"/>
</linearGradient>
<linearGradient id="paint85_linear" x1="86.5" y1="0.0351563" x2="86.5" y2="173.035" gradientUnits="userSpaceOnUse">
<stop stop-color="#4B6CAC"/>
<stop offset="1" stop-color="#EEF0FF"/>
</linearGradient>
<linearGradient id="paint86_linear" x1="86.5" y1="0.0351563" x2="86.5" y2="173.035" gradientUnits="userSpaceOnUse">
<stop stop-color="#4B6CAC"/>
<stop offset="1" stop-color="#EEF0FF"/>
</linearGradient>
<linearGradient id="paint87_linear" x1="86.5" y1="0.0351563" x2="86.5" y2="173.035" gradientUnits="userSpaceOnUse">
<stop stop-color="#4B6CAC"/>
<stop offset="1" stop-color="#EEF0FF"/>
</linearGradient>
<linearGradient id="paint88_linear" x1="86.5" y1="0.0351563" x2="86.5" y2="173.035" gradientUnits="userSpaceOnUse">
<stop stop-color="#4B6CAC"/>
<stop offset="1" stop-color="#EEF0FF"/>
</linearGradient>
<linearGradient id="paint89_linear" x1="86.5" y1="0.0351563" x2="86.5" y2="173.035" gradientUnits="userSpaceOnUse">
<stop stop-color="#4B6CAC"/>
<stop offset="1" stop-color="#EEF0FF"/>
</linearGradient>
<linearGradient id="paint90_linear" x1="86.5" y1="0.0351563" x2="86.5" y2="173.035" gradientUnits="userSpaceOnUse">
<stop stop-color="#4B6CAC"/>
<stop offset="1" stop-color="#EEF0FF"/>
</linearGradient>
<linearGradient id="paint91_linear" x1="86.5" y1="0.0351563" x2="86.5" y2="173.035" gradientUnits="userSpaceOnUse">
<stop stop-color="#4B6CAC"/>
<stop offset="1" stop-color="#EEF0FF"/>
</linearGradient>
<linearGradient id="paint92_linear" x1="86.5" y1="0.0351563" x2="86.5" y2="173.035" gradientUnits="userSpaceOnUse">
<stop stop-color="#4B6CAC"/>
<stop offset="1" stop-color="#EEF0FF"/>
</linearGradient>
<linearGradient id="paint93_linear" x1="86.5" y1="0.0351563" x2="86.5" y2="173.035" gradientUnits="userSpaceOnUse">
<stop stop-color="#4B6CAC"/>
<stop offset="1" stop-color="#EEF0FF"/>
</linearGradient>
<linearGradient id="paint94_linear" x1="86.5" y1="0.0351563" x2="86.5" y2="173.035" gradientUnits="userSpaceOnUse">
<stop stop-color="#4B6CAC"/>
<stop offset="1" stop-color="#EEF0FF"/>
</linearGradient>
<linearGradient id="paint95_linear" x1="86.5" y1="0.0351563" x2="86.5" y2="173.035" gradientUnits="userSpaceOnUse">
<stop stop-color="#4B6CAC"/>
<stop offset="1" stop-color="#EEF0FF"/>
</linearGradient>
<linearGradient id="paint96_linear" x1="86.5" y1="0.0351563" x2="86.5" y2="173.035" gradientUnits="userSpaceOnUse">
<stop stop-color="#4B6CAC"/>
<stop offset="1" stop-color="#EEF0FF"/>
</linearGradient>
<linearGradient id="paint97_linear" x1="86.5" y1="0.0351563" x2="86.5" y2="173.035" gradientUnits="userSpaceOnUse">
<stop stop-color="#4B6CAC"/>
<stop offset="1" stop-color="#EEF0FF"/>
</linearGradient>
<linearGradient id="paint98_linear" x1="86.5" y1="0.0351563" x2="86.5" y2="173.035" gradientUnits="userSpaceOnUse">
<stop stop-color="#4B6CAC"/>
<stop offset="1" stop-color="#EEF0FF"/>
</linearGradient>
<linearGradient id="paint99_linear" x1="86.5" y1="0.0351563" x2="86.5" y2="173.035" gradientUnits="userSpaceOnUse">
<stop stop-color="#4B6CAC"/>
<stop offset="1" stop-color="#EEF0FF"/>
</linearGradient>
<linearGradient id="paint100_linear" x1="86.5" y1="0.0351563" x2="86.5" y2="173.035" gradientUnits="userSpaceOnUse">
<stop stop-color="#4B6CAC"/>
<stop offset="1" stop-color="#EEF0FF"/>
</linearGradient>
<linearGradient id="paint101_linear" x1="86.5" y1="0.0351563" x2="86.5" y2="173.035" gradientUnits="userSpaceOnUse">
<stop stop-color="#4B6CAC"/>
<stop offset="1" stop-color="#EEF0FF"/>
</linearGradient>
<linearGradient id="paint102_linear" x1="86.5" y1="0.0351563" x2="86.5" y2="173.035" gradientUnits="userSpaceOnUse">
<stop stop-color="#4B6CAC"/>
<stop offset="1" stop-color="#EEF0FF"/>
</linearGradient>
<linearGradient id="paint103_linear" x1="86.5" y1="0.0351563" x2="86.5" y2="173.035" gradientUnits="userSpaceOnUse">
<stop stop-color="#4B6CAC"/>
<stop offset="1" stop-color="#EEF0FF"/>
</linearGradient>
<linearGradient id="paint104_linear" x1="86.5" y1="0.0351563" x2="86.5" y2="173.035" gradientUnits="userSpaceOnUse">
<stop stop-color="#4B6CAC"/>
<stop offset="1" stop-color="#EEF0FF"/>
</linearGradient>
<linearGradient id="paint105_linear" x1="86.5" y1="0.0351563" x2="86.5" y2="173.035" gradientUnits="userSpaceOnUse">
<stop stop-color="#4B6CAC"/>
<stop offset="1" stop-color="#EEF0FF"/>
</linearGradient>
<linearGradient id="paint106_linear" x1="86.5" y1="0.0351563" x2="86.5" y2="173.035" gradientUnits="userSpaceOnUse">
<stop stop-color="#4B6CAC"/>
<stop offset="1" stop-color="#EEF0FF"/>
</linearGradient>
<linearGradient id="paint107_linear" x1="86.5" y1="0.0351563" x2="86.5" y2="173.035" gradientUnits="userSpaceOnUse">
<stop stop-color="#4B6CAC"/>
<stop offset="1" stop-color="#EEF0FF"/>
</linearGradient>
<linearGradient id="paint108_linear" x1="86.5" y1="0.0351563" x2="86.5" y2="173.035" gradientUnits="userSpaceOnUse">
<stop stop-color="#4B6CAC"/>
<stop offset="1" stop-color="#EEF0FF"/>
</linearGradient>
<linearGradient id="paint109_linear" x1="86.5" y1="0.0351563" x2="86.5" y2="173.035" gradientUnits="userSpaceOnUse">
<stop stop-color="#4B6CAC"/>
<stop offset="1" stop-color="#EEF0FF"/>
</linearGradient>
<linearGradient id="paint110_linear" x1="86.5" y1="0.0351563" x2="86.5" y2="173.035" gradientUnits="userSpaceOnUse">
<stop stop-color="#4B6CAC"/>
<stop offset="1" stop-color="#EEF0FF"/>
</linearGradient>
<linearGradient id="paint111_linear" x1="86.5" y1="0.0351563" x2="86.5" y2="173.035" gradientUnits="userSpaceOnUse">
<stop stop-color="#4B6CAC"/>
<stop offset="1" stop-color="#EEF0FF"/>
</linearGradient>
<linearGradient id="paint112_linear" x1="86.5" y1="0.0351563" x2="86.5" y2="173.035" gradientUnits="userSpaceOnUse">
<stop stop-color="#4B6CAC"/>
<stop offset="1" stop-color="#EEF0FF"/>
</linearGradient>
<linearGradient id="paint113_linear" x1="86.5" y1="0.0351563" x2="86.5" y2="173.035" gradientUnits="userSpaceOnUse">
<stop stop-color="#4B6CAC"/>
<stop offset="1" stop-color="#EEF0FF"/>
</linearGradient>
<linearGradient id="paint114_linear" x1="86.5" y1="0.0351563" x2="86.5" y2="173.035" gradientUnits="userSpaceOnUse">
<stop stop-color="#4B6CAC"/>
<stop offset="1" stop-color="#EEF0FF"/>
</linearGradient>
<linearGradient id="paint115_linear" x1="86.5" y1="0.0351563" x2="86.5" y2="173.035" gradientUnits="userSpaceOnUse">
<stop stop-color="#4B6CAC"/>
<stop offset="1" stop-color="#EEF0FF"/>
</linearGradient>
<linearGradient id="paint116_linear" x1="86.5" y1="0.0351563" x2="86.5" y2="173.035" gradientUnits="userSpaceOnUse">
<stop stop-color="#4B6CAC"/>
<stop offset="1" stop-color="#EEF0FF"/>
</linearGradient>
<linearGradient id="paint117_linear" x1="86.5" y1="0.0351563" x2="86.5" y2="173.035" gradientUnits="userSpaceOnUse">
<stop stop-color="#4B6CAC"/>
<stop offset="1" stop-color="#EEF0FF"/>
</linearGradient>
<linearGradient id="paint118_linear" x1="86.5" y1="0.0351563" x2="86.5" y2="173.035" gradientUnits="userSpaceOnUse">
<stop stop-color="#4B6CAC"/>
<stop offset="1" stop-color="#EEF0FF"/>
</linearGradient>
<linearGradient id="paint119_linear" x1="86.5" y1="0.0351563" x2="86.5" y2="173.035" gradientUnits="userSpaceOnUse">
<stop stop-color="#4B6CAC"/>
<stop offset="1" stop-color="#EEF0FF"/>
</linearGradient>
<linearGradient id="paint120_linear" x1="86.5" y1="0.0351563" x2="86.5" y2="173.035" gradientUnits="userSpaceOnUse">
<stop stop-color="#4B6CAC"/>
<stop offset="1" stop-color="#EEF0FF"/>
</linearGradient>
<linearGradient id="paint121_linear" x1="86.5" y1="0.0351563" x2="86.5" y2="173.035" gradientUnits="userSpaceOnUse">
<stop stop-color="#4B6CAC"/>
<stop offset="1" stop-color="#EEF0FF"/>
</linearGradient>
<linearGradient id="paint122_linear" x1="86.5" y1="0.0351563" x2="86.5" y2="173.035" gradientUnits="userSpaceOnUse">
<stop stop-color="#4B6CAC"/>
<stop offset="1" stop-color="#EEF0FF"/>
</linearGradient>
<linearGradient id="paint123_linear" x1="86.5" y1="0.0351563" x2="86.5" y2="173.035" gradientUnits="userSpaceOnUse">
<stop stop-color="#4B6CAC"/>
<stop offset="1" stop-color="#EEF0FF"/>
</linearGradient>
<linearGradient id="paint124_linear" x1="86.5" y1="0.0351563" x2="86.5" y2="173.035" gradientUnits="userSpaceOnUse">
<stop stop-color="#4B6CAC"/>
<stop offset="1" stop-color="#EEF0FF"/>
</linearGradient>
<linearGradient id="paint125_linear" x1="86.5" y1="0.0351563" x2="86.5" y2="173.035" gradientUnits="userSpaceOnUse">
<stop stop-color="#4B6CAC"/>
<stop offset="1" stop-color="#EEF0FF"/>
</linearGradient>
<linearGradient id="paint126_linear" x1="86.5" y1="0.0351563" x2="86.5" y2="173.035" gradientUnits="userSpaceOnUse">
<stop stop-color="#4B6CAC"/>
<stop offset="1" stop-color="#EEF0FF"/>
</linearGradient>
<linearGradient id="paint127_linear" x1="86.5" y1="0.0351563" x2="86.5" y2="173.035" gradientUnits="userSpaceOnUse">
<stop stop-color="#4B6CAC"/>
<stop offset="1" stop-color="#EEF0FF"/>
</linearGradient>
<linearGradient id="paint128_linear" x1="86.5" y1="0.0351563" x2="86.5" y2="173.035" gradientUnits="userSpaceOnUse">
<stop stop-color="#4B6CAC"/>
<stop offset="1" stop-color="#EEF0FF"/>
</linearGradient>
<linearGradient id="paint129_linear" x1="86.5" y1="0.0351563" x2="86.5" y2="173.035" gradientUnits="userSpaceOnUse">
<stop stop-color="#4B6CAC"/>
<stop offset="1" stop-color="#EEF0FF"/>
</linearGradient>
<linearGradient id="paint130_linear" x1="86.5" y1="0.0351563" x2="86.5" y2="173.035" gradientUnits="userSpaceOnUse">
<stop stop-color="#4B6CAC"/>
<stop offset="1" stop-color="#EEF0FF"/>
</linearGradient>
<linearGradient id="paint131_linear" x1="86.5" y1="0.0351563" x2="86.5" y2="173.035" gradientUnits="userSpaceOnUse">
<stop stop-color="#4B6CAC"/>
<stop offset="1" stop-color="#EEF0FF"/>
</linearGradient>
<linearGradient id="paint132_linear" x1="86.5" y1="0.0351563" x2="86.5" y2="173.035" gradientUnits="userSpaceOnUse">
<stop stop-color="#4B6CAC"/>
<stop offset="1" stop-color="#EEF0FF"/>
</linearGradient>
<linearGradient id="paint133_linear" x1="86.5" y1="0.0351563" x2="86.5" y2="173.035" gradientUnits="userSpaceOnUse">
<stop stop-color="#4B6CAC"/>
<stop offset="1" stop-color="#EEF0FF"/>
</linearGradient>
<linearGradient id="paint134_linear" x1="86.5" y1="0.0351563" x2="86.5" y2="173.035" gradientUnits="userSpaceOnUse">
<stop stop-color="#4B6CAC"/>
<stop offset="1" stop-color="#EEF0FF"/>
</linearGradient>
<linearGradient id="paint135_linear" x1="86.5" y1="0.0351563" x2="86.5" y2="173.035" gradientUnits="userSpaceOnUse">
<stop stop-color="#4B6CAC"/>
<stop offset="1" stop-color="#EEF0FF"/>
</linearGradient>
<linearGradient id="paint136_linear" x1="86.5" y1="0.0351563" x2="86.5" y2="173.035" gradientUnits="userSpaceOnUse">
<stop stop-color="#4B6CAC"/>
<stop offset="1" stop-color="#EEF0FF"/>
</linearGradient>
<linearGradient id="paint137_linear" x1="86.5" y1="0.0351563" x2="86.5" y2="173.035" gradientUnits="userSpaceOnUse">
<stop stop-color="#4B6CAC"/>
<stop offset="1" stop-color="#EEF0FF"/>
</linearGradient>
<linearGradient id="paint138_linear" x1="86.5" y1="0.0351563" x2="86.5" y2="173.035" gradientUnits="userSpaceOnUse">
<stop stop-color="#4B6CAC"/>
<stop offset="1" stop-color="#EEF0FF"/>
</linearGradient>
<linearGradient id="paint139_linear" x1="86.5" y1="0.0351563" x2="86.5" y2="173.035" gradientUnits="userSpaceOnUse">
<stop stop-color="#4B6CAC"/>
<stop offset="1" stop-color="#EEF0FF"/>
</linearGradient>
<linearGradient id="paint140_linear" x1="86.5" y1="0.0351563" x2="86.5" y2="173.035" gradientUnits="userSpaceOnUse">
<stop stop-color="#4B6CAC"/>
<stop offset="1" stop-color="#EEF0FF"/>
</linearGradient>
<linearGradient id="paint141_linear" x1="86.5" y1="0.0351563" x2="86.5" y2="173.035" gradientUnits="userSpaceOnUse">
<stop stop-color="#4B6CAC"/>
<stop offset="1" stop-color="#EEF0FF"/>
</linearGradient>
<linearGradient id="paint142_linear" x1="86.5" y1="0.0351563" x2="86.5" y2="173.035" gradientUnits="userSpaceOnUse">
<stop stop-color="#4B6CAC"/>
<stop offset="1" stop-color="#EEF0FF"/>
</linearGradient>
</defs>
</svg>
