<svg width="67" height="67" viewBox="0 0 67 67" fill="none" xmlns="http://www.w3.org/2000/svg">
<path d="M45.2176 12.25C41.9668 10.3732 37.8315 11.432 35.9905 14.6207L30.6572 23.8583L21.2271 18.4139C17.9763 16.537 13.841 17.5959 12 20.7846C10.159 23.9733 11.3097 28.084 14.5605 29.9609L23.9905 35.4053L18.6572 44.6429C16.8162 47.8316 17.9668 51.9424 21.2176 53.8192C24.4684 55.6961 28.6038 54.6372 30.4447 51.4485L35.7781 42.2109L45.2081 47.6553C48.4589 49.5322 52.5943 48.4733 54.4352 45.2846C56.2762 42.0959 55.1256 37.9852 51.8748 36.1083L42.4447 30.6639L47.7781 21.4263C49.6191 18.2376 48.4684 14.1268 45.2176 12.25Z" fill="url(#paint0_linear)"/>
<defs>
<linearGradient id="paint0_linear" x1="45.2176" y1="12.25" x2="21.2176" y2="53.8192" gradientUnits="userSpaceOnUse">
<stop stop-color="#FA5060"/>
<stop offset="1" stop-color="#FEDCDF"/>
</linearGradient>
</defs>
</svg>
