<svg width="33" height="34" viewBox="0 0 33 34" fill="none" xmlns="http://www.w3.org/2000/svg">
<path d="M22.3923 6.23145C20.8001 5.31217 18.7594 5.85719 17.8389 7.45153L15.1722 12.0703L10.5534 9.40367C8.96119 8.48439 6.92049 9.02941 6 10.6237C5.07951 12.2181 5.62786 14.2579 7.22008 15.1772L11.8389 17.8438L9.17222 22.4626C8.25173 24.057 8.80008 26.0968 10.3923 27.0161C11.9845 27.9353 14.0252 27.3903 14.9457 25.796L17.6124 21.1772L22.2312 23.8438C23.8234 24.7631 25.8641 24.2181 26.7846 22.6237C27.7051 21.0294 27.1567 18.9896 25.5645 18.0703L20.9457 15.4037L23.6124 10.7849C24.5329 9.19053 23.9845 7.15072 22.3923 6.23145Z" fill="url(#paint0_linear)"/>
<defs>
<linearGradient id="paint0_linear" x1="22.3923" y1="6.23145" x2="10.3923" y2="27.0161" gradientUnits="userSpaceOnUse">
<stop stop-color="#4B6CAC"/>
<stop offset="1" stop-color="#EEF0FF"/>
</linearGradient>
</defs>
</svg>
