<svg width="204" height="251" viewBox="0 0 204 251" fill="none" xmlns="http://www.w3.org/2000/svg">
<path d="M-127.44 197.679C-139.69 168.75 -161.073 140.06 -155.796 119.04C-150.717 97.8722 -119.126 84.571 -91.6315 74.6721C-64.3346 64.6249 -41.2821 58.1773 -18.1292 58.5896C4.82617 58.8536 27.8821 65.9777 33.8598 83.1072C40.0351 100.385 29.4778 127.619 47.6513 153.592C65.4793 179.614 112.137 203.831 128.733 238.489C145.181 273.343 131.715 318.441 101.703 326.759C71.6903 335.076 25.1305 306.615 -12.5394 293.459C-50.4068 280.154 -79.3349 282.502 -95.5305 269.115C-111.578 255.531 -115.041 226.411 -127.44 197.679Z" fill="#4B6CAC"/>
</svg>
