<svg width="220" height="250" viewBox="0 0 220 250" fill="none" xmlns="http://www.w3.org/2000/svg">
<path d="M326.916 45.0064C344.059 71.3336 370.149 95.8201 368.648 117.44C367.366 139.171 338.604 157.816 313.276 172.391C288.169 187.078 266.608 197.475 243.742 201.137C221.098 204.91 197.149 201.947 188.254 186.134C179.14 170.21 184.748 141.545 162.294 119.169C140.172 96.684 89.9855 81.0402 67.5587 49.8375C45.243 18.4146 50.5759 -28.347 78.6603 -41.8082C106.745 -55.2694 157.581 -35.4303 196.976 -29.0971C236.592 -22.6526 264.658 -30.0455 282.953 -19.7125C301.138 -9.1593 309.663 18.8995 326.916 45.0064Z" fill="#FA5060"/>
</svg>
