<svg width="73" height="62" viewBox="0 0 73 62" fill="none" xmlns="http://www.w3.org/2000/svg">
<path d="M44.6836 58.7894H64.2951C67.3898 58.7894 69.8984 56.8113 69.8984 54.3713V25.6538" stroke="#4B6CAC" stroke-width="5" stroke-linecap="round" stroke-linejoin="round"/>
<path d="M3.26696 3.30859H22.1641" stroke="#4B6CAC" stroke-width="5" stroke-linecap="round" stroke-linejoin="round"/>
<path d="M4.6685 18.0063C2.7358 18.0063 1.16904 16.4395 1.16904 14.5068C1.16904 12.5741 2.7358 11.0073 4.6685 11.0073C6.60121 11.0073 8.16797 12.5741 8.16797 14.5068C8.16797 16.4395 6.60121 18.0063 4.6685 18.0063Z" fill="#FA5060"/>
<path fill-rule="evenodd" clip-rule="evenodd" d="M25.6641 14.5068H14.4658H25.6641Z" fill="#FA5060"/>
<path d="M25.6641 14.5068H14.4658" stroke="#FA5060" stroke-width="5" stroke-linecap="round" stroke-linejoin="round"/>
<path d="M24.2662 29.2045C22.3335 29.2045 20.7667 27.6377 20.7667 25.705C20.7667 23.7723 22.3335 22.2056 24.2662 22.2056C26.1989 22.2056 27.7656 23.7723 27.7656 25.705C27.7656 27.6377 26.1989 29.2045 24.2662 29.2045Z" fill="#4B6CAC"/>
<path d="M3.26656 25.7051H14.4648" stroke="#4B6CAC" stroke-width="5" stroke-linecap="round" stroke-linejoin="round"/>
<path d="M3.96929 40.4032C2.03658 40.4032 0.469821 38.8365 0.469821 36.9038C0.469821 34.9711 2.03658 33.4043 3.96929 33.4043C5.90199 33.4043 7.46875 34.9711 7.46875 36.9038C7.46875 38.8365 5.90199 40.4032 3.96929 40.4032Z" fill="#FA5060"/>
<path fill-rule="evenodd" clip-rule="evenodd" d="M27.0664 36.9038H14.4683H27.0664Z" fill="#FA5060"/>
<path d="M27.0664 36.9038H14.4683" stroke="#FA5060" stroke-width="5" stroke-linecap="round" stroke-linejoin="round"/>
<path d="M51.6914 47.7434V36.6982" stroke="#4B6CAC" stroke-width="5" stroke-linecap="round" stroke-linejoin="round"/>
<path fill-rule="evenodd" clip-rule="evenodd" d="M3.26937 58.6001H27.7656H3.26937Z" fill="#FA5060"/>
<path d="M3.26937 58.6001H27.7656" stroke="#FA5060" stroke-width="5" stroke-linecap="round" stroke-linejoin="round"/>
<path d="M33.477 25.6538H69.8984" stroke="#4B6CAC" stroke-width="5" stroke-linecap="round" stroke-linejoin="round"/>
<path d="M27.7656 47.4019H3.26937" stroke="#4B6CAC" stroke-width="5" stroke-linecap="round" stroke-linejoin="round"/>
<path d="M69.8984 16.8173C69.5116 8.88718 61.0448 2.70581 50.9873 3.01082C40.9298 3.31582 33.0902 9.9917 33.477 17.9218V36.6986" stroke="#4B6CAC" stroke-width="5" stroke-linecap="round" stroke-linejoin="round"/>
</svg>
