<svg width="74" height="64" viewBox="0 0 74 64" fill="none" xmlns="http://www.w3.org/2000/svg">
<path d="M65.7539 26.3989L71.2389 31.8486" stroke="#4B6CAC" stroke-width="4" stroke-linecap="round" stroke-linejoin="round"/>
<path d="M65.7539 37.2978L71.2389 31.8481" stroke="#4B6CAC" stroke-width="4" stroke-linecap="round" stroke-linejoin="round"/>
<path d="M31.8417 21.9017L28.9248 16.9239L20.2031 2" stroke="#4B6CAC" stroke-width="4" stroke-linecap="round" stroke-linejoin="round"/>
<path d="M43.4645 21.9017L55.0934 2" stroke="#FA5060" stroke-width="4" stroke-linecap="round" stroke-linejoin="round"/>
<path d="M6.30859 31.8481H17.9375" stroke="#FA5060" stroke-width="4" stroke-linecap="round" stroke-linejoin="round"/>
<path d="M69.2986 31.8481H49.2775" stroke="#4B6CAC" stroke-width="4" stroke-linecap="round" stroke-linejoin="round"/>
<path d="M47.6221 3.65607L55.1906 2" stroke="#FA5060" stroke-width="4" stroke-linecap="round" stroke-linejoin="round"/>
<path d="M56.8679 9.51972L55.1914 2" stroke="#FA5060" stroke-width="4" stroke-linecap="round" stroke-linejoin="round"/>
<path d="M27.792 3.65607L20.2235 2" stroke="#4B6CAC" stroke-width="4" stroke-linecap="round" stroke-linejoin="round"/>
<path d="M18.5508 9.51972L20.2273 2" stroke="#4B6CAC" stroke-width="4" stroke-linecap="round" stroke-linejoin="round"/>
<path d="M43.5892 41.823L43.9478 42.4392V42.4392V42.4392L55.2085 61.6959" stroke="#FA5060" stroke-width="4" stroke-linecap="round" stroke-linejoin="round"/>
<path d="M31.833 41.9863L20.3203 61.6955" stroke="#4B6CAC" stroke-width="4" stroke-linecap="round" stroke-linejoin="round"/>
<path d="M27.792 60.0393L20.2235 61.6954" stroke="#4B6CAC" stroke-width="4" stroke-linecap="round" stroke-linejoin="round"/>
<path d="M18.5508 54.1758L20.2273 61.6955" stroke="#4B6CAC" stroke-width="4" stroke-linecap="round" stroke-linejoin="round"/>
<path d="M47.6992 60.0396L55.2677 61.6956" stroke="#FA5060" stroke-width="4" stroke-linecap="round" stroke-linejoin="round"/>
<path d="M56.9421 54.1758L55.2656 61.6955" stroke="#FA5060" stroke-width="4" stroke-linecap="round" stroke-linejoin="round"/>
<path d="M8.2467 37.2978L2.76172 31.8481" stroke="#FA5060" stroke-width="4" stroke-linecap="round" stroke-linejoin="round"/>
<path d="M8.2467 26.3989L2.76172 31.8486" stroke="#FA5060" stroke-width="4" stroke-linecap="round" stroke-linejoin="round"/>
<path d="M43.4632 41.8521C38.9049 44.4669 33.1471 43.7136 29.4254 40.0156C25.7037 36.3175 24.9461 30.5968 27.5783 26.0681C30.2105 21.5394 35.5762 19.3319 40.6601 20.6862C45.7441 22.0404 49.2787 26.6187 49.2777 31.8483" stroke="#4B6CAC" stroke-width="4" stroke-linecap="round" stroke-linejoin="round"/>
</svg>
