<svg width="74" height="62" viewBox="0 0 74 62" fill="none" xmlns="http://www.w3.org/2000/svg">
<rect x="30.7539" y="52.2227" width="12.5008" height="7.15923" rx="3" stroke="#4B6CAC" stroke-width="4" stroke-linecap="round" stroke-linejoin="round"/>
<path d="M32.9835 22.6906C32.983 20.5669 34.472 18.7354 36.5474 18.3069C38.6227 17.8785 40.7127 18.9711 41.5497 20.9221C42.3866 22.8731 41.7399 25.1449 40.0019 26.3597C39.2786 26.8698 37.3677 27.8542 37.4481 32.5345" stroke="#FA5060" stroke-width="4" stroke-linecap="round" stroke-linejoin="round"/>
<path d="M38.0383 38.4245C38.2285 38.7546 38.1138 39.1746 37.7892 39.3625C37.4671 39.5488 37.0533 39.44 36.8646 39.1125C36.6745 38.7825 36.7891 38.3625 37.1138 38.1746C37.4358 37.9882 37.8497 38.097 38.0383 38.4245Z" fill="#FA5060" stroke="#FA5060" stroke-width="4"/>
<path d="M68.2536 20.9009C70.2262 20.9009 71.8253 22.5035 71.8253 24.4805V33.4295C71.8253 35.4073 70.6735 37.0091 68.7001 37.0091H63.7891" stroke="#4B6CAC" stroke-width="4" stroke-linecap="round" stroke-linejoin="round"/>
<path d="M5.75136 20.9012C3.77878 20.9012 2.17969 22.5038 2.17969 24.4808V33.4298C2.17969 35.4076 4.22447 37.0095 6.19782 37.0095H11.6357L11.4392 36.2846C7.90437 21.926 16.6217 7.40637 30.9355 3.8115C45.2492 0.216623 59.7682 8.90052 63.4071 23.233C67.046 37.5654 58.4341 52.1482 44.1468 55.8472" stroke="#4B6CAC" stroke-width="4" stroke-linecap="round" stroke-linejoin="round"/>
</svg>
