<svg width="71" height="68" viewBox="0 0 71 68" fill="none" xmlns="http://www.w3.org/2000/svg">
<path fill-rule="evenodd" clip-rule="evenodd" d="M26.3041 5.85911L28.6192 3.55181C31.1764 1.00324 35.3225 1.00324 37.8797 3.55181L65.6611 31.2394L67.2046 45.0832L54.0855 42.7759L26.3041 15.0883C23.7469 12.5397 23.7469 8.40769 26.3041 5.85911ZM36.3376 8.16884L34.7907 6.62713C33.9383 5.77761 32.5563 5.77761 31.7039 6.62713L29.3888 8.93443C28.5363 9.78396 28.5363 11.1613 29.3888 12.0108L30.9357 13.5525L36.3376 8.16884ZM39.4245 11.2452L34.0225 16.6289L53.4524 35.9931L58.8452 30.6003L39.4245 11.2452ZM56.1972 38.7287L55.9372 38.4696L61.33 33.0768L61.4894 33.2356L62.2199 39.7879L56.1972 38.7287ZM40.5831 15.4727C39.9438 14.8356 38.9073 14.8356 38.268 15.4727C37.6287 16.1099 37.6287 17.1429 38.268 17.78L52.1587 31.6238C52.798 32.261 53.8345 32.261 54.4738 31.6238C55.1131 30.9867 55.1131 29.9537 54.4738 29.3165L40.5831 15.4727Z" fill="#FA5060"/>
<mask id="path-2-inside-1" fill="white">
<path fill-rule="evenodd" clip-rule="evenodd" d="M5.29196 1.28437C4.28323 0.279059 2.5625 0.99352 2.5625 2.41766V64.3998C2.5625 65.2834 3.27884 65.9998 4.1625 65.9998H66.3547C67.7815 65.9998 68.4948 64.2737 67.4842 63.2665L47.9137 43.7621L35.6598 31.5496L5.29196 1.28437ZM26.5741 47.5098L21.1173 42.0714V47.5098H26.5741Z"/>
</mask>
<path d="M5.29196 1.28437L8.11559 -1.54883V-1.54883L5.29196 1.28437ZM67.4842 63.2665L64.6606 66.0997L67.4842 63.2665ZM47.9137 43.7621L45.0901 46.5953L47.9137 43.7621ZM35.6598 31.5496L38.4834 28.7164L35.6598 31.5496ZM21.1173 42.0714L23.941 39.2382L17.1173 32.4376V42.0714H21.1173ZM26.5741 47.5098V51.5098H36.2542L29.3978 44.6766L26.5741 47.5098ZM21.1173 47.5098H17.1173V51.5098H21.1173V47.5098ZM6.5625 2.41766C6.5625 4.55386 3.98142 5.62557 2.46832 4.11758L8.11559 -1.54883C4.58505 -5.06745 -1.4375 -2.56682 -1.4375 2.41766H6.5625ZM6.5625 64.3998V2.41766H-1.4375V64.3998H6.5625ZM4.1625 61.9998C5.48799 61.9998 6.5625 63.0743 6.5625 64.3998H-1.4375C-1.4375 67.4926 1.06969 69.9998 4.1625 69.9998V61.9998ZM66.3547 61.9998H4.1625V69.9998H66.3547V61.9998ZM64.6606 66.0997C63.1447 64.589 64.2146 61.9998 66.3547 61.9998V69.9998C71.3484 69.9998 73.8448 63.9583 70.3078 60.4333L64.6606 66.0997ZM45.0901 46.5953L64.6606 66.0997L70.3078 60.4333L50.7373 40.9289L45.0901 46.5953ZM32.8361 34.3828L45.0901 46.5953L50.7373 40.9289L38.4834 28.7164L32.8361 34.3828ZM2.46832 4.11758L32.8361 34.3828L38.4834 28.7164L8.11559 -1.54883L2.46832 4.11758ZM18.2937 44.9046L23.7505 50.343L29.3978 44.6766L23.941 39.2382L18.2937 44.9046ZM25.1173 47.5098V42.0714H17.1173V47.5098H25.1173ZM26.5741 43.5098H21.1173V51.5098H26.5741V43.5098Z" fill="#4B6CAC" mask="url(#path-2-inside-1)"/>
<path fill-rule="evenodd" clip-rule="evenodd" d="M37.4849 56.536C37.4849 55.6524 38.2012 54.936 39.0849 54.936H40.2503C41.134 54.936 41.8503 55.6524 41.8503 56.536V63.1251C41.8503 64.0087 41.134 64.7251 40.2503 64.7251H39.0849C38.2012 64.7251 37.4849 64.0087 37.4849 63.1251V56.536ZM21.6242 54.9374C20.7405 54.9374 20.0242 55.6537 20.0242 56.5374V63.1264C20.0242 64.0101 20.7405 64.7264 21.6242 64.7264H22.7896C23.6733 64.7264 24.3896 64.0101 24.3896 63.1264V56.5374C24.3896 55.6537 23.6733 54.9374 22.7896 54.9374H21.6242ZM30.3549 57.1118C29.4712 57.1118 28.7549 57.8282 28.7549 58.7118V63.1255C28.7549 64.0092 29.4712 64.7255 30.3549 64.7255H31.5203C32.404 64.7255 33.1203 64.0092 33.1203 63.1255V58.7118C33.1203 57.8282 32.404 57.1118 31.5203 57.1118H30.3549ZM47.8195 57.1118C46.9358 57.1118 46.2195 57.8282 46.2195 58.7118V63.1255C46.2195 64.0092 46.9358 64.7255 47.8195 64.7255H48.9849C49.8686 64.7255 50.5849 64.0092 50.5849 63.1255V58.7118C50.5849 57.8282 49.8686 57.1118 48.9849 57.1118H47.8195Z" fill="#4B6CAC"/>
<path fill-rule="evenodd" clip-rule="evenodd" d="M14.0045 28.7789C14.0045 27.8953 13.2882 27.1789 12.4045 27.1789H5.81547C4.93182 27.1789 4.21547 27.8953 4.21547 28.7789V29.9444C4.21547 30.828 4.93182 31.5444 5.81547 31.5444H12.4045C13.2882 31.5444 14.0045 30.828 14.0045 29.9444V28.7789ZM11.8327 20.0485C11.8327 19.1648 11.1164 18.4485 10.2327 18.4485H5.81904C4.93539 18.4485 4.21904 19.1648 4.21904 20.0485V21.2139C4.21904 22.0976 4.93539 22.8139 5.81904 22.8139H10.2327C11.1164 22.8139 11.8327 22.0976 11.8327 21.2139V20.0485ZM10.2327 35.9098C11.1164 35.9098 11.8327 36.6262 11.8327 37.5098V38.6753C11.8327 39.5589 11.1164 40.2753 10.2327 40.2753H5.81904C4.93539 40.2753 4.21904 39.5589 4.21904 38.6753V37.5098C4.21904 36.6262 4.93539 35.9098 5.81904 35.9098H10.2327ZM14.0045 46.2408C14.0045 45.3571 13.2882 44.6408 12.4045 44.6408H5.81547C4.93182 44.6408 4.21547 45.3571 4.21547 46.2408V47.4062C4.21547 48.2898 4.93182 49.0062 5.81547 49.0062H12.4045C13.2882 49.0062 14.0045 48.2898 14.0045 47.4062V46.2408Z" fill="#4B6CAC"/>
</svg>
